<svg width="183" height="54" viewBox="0 0 183 54" fill="none" xmlns="http://www.w3.org/2000/svg">
<path d="M113.935 51.5252C113.425 51.5252 112.964 51.409 112.552 51.1766C112.139 50.9367 111.81 50.5956 111.562 50.1533C111.322 49.7034 111.202 49.1562 111.202 48.5115C111.202 47.8667 111.322 47.3232 111.562 46.8809C111.802 46.4311 112.128 46.09 112.54 45.8576C112.953 45.6252 113.418 45.509 113.935 45.509C114.497 45.509 114.999 45.6364 115.442 45.8913C115.892 46.1387 116.244 46.4911 116.499 46.9484C116.754 47.3982 116.881 47.9192 116.881 48.5115C116.881 49.1112 116.754 49.636 116.499 50.0858C116.244 50.5356 115.892 50.8879 115.442 51.1428C114.999 51.3977 114.497 51.5252 113.935 51.5252ZM110.887 53.6505V45.5652H111.652V47.342L111.573 48.5227L111.686 49.7147V53.6505H110.887ZM113.879 50.8167C114.298 50.8167 114.673 50.723 115.003 50.5356C115.333 50.3407 115.595 50.0708 115.79 49.7259C115.985 49.3736 116.083 48.9688 116.083 48.5115C116.083 48.0541 115.985 47.6531 115.79 47.3082C115.595 46.9634 115.333 46.6935 115.003 46.4986C114.673 46.3036 114.298 46.2062 113.879 46.2062C113.459 46.2062 113.08 46.3036 112.743 46.4986C112.413 46.6935 112.151 46.9634 111.956 47.3082C111.768 47.6531 111.675 48.0541 111.675 48.5115C111.675 48.9688 111.768 49.3736 111.956 49.7259C112.151 50.0708 112.413 50.3407 112.743 50.5356C113.08 50.723 113.459 50.8167 113.879 50.8167Z" fill="white"/>
<path d="M121.522 45.509C122.002 45.509 122.422 45.6027 122.782 45.7901C123.149 45.97 123.434 46.2474 123.637 46.6223C123.846 46.9971 123.951 47.4694 123.951 48.0392V51.4689H123.153V48.1179C123.153 47.4956 122.996 47.0271 122.681 46.7122C122.373 46.3899 121.938 46.2287 121.376 46.2287C120.956 46.2287 120.589 46.3149 120.274 46.4873C119.967 46.6522 119.727 46.8959 119.555 47.2183C119.39 47.5331 119.307 47.9155 119.307 48.3653V51.4689H118.509V43.125H119.307V47.1845L119.15 46.8809C119.337 46.4536 119.637 46.12 120.049 45.8801C120.462 45.6327 120.953 45.509 121.522 45.509Z" fill="white"/>
<path d="M128.514 51.5252C127.945 51.5252 127.431 51.3977 126.974 51.1428C126.524 50.8804 126.168 50.5243 125.906 50.0745C125.643 49.6172 125.512 49.0962 125.512 48.5115C125.512 47.9192 125.643 47.3982 125.906 46.9484C126.168 46.4986 126.524 46.1462 126.974 45.8913C127.424 45.6364 127.937 45.509 128.514 45.509C129.099 45.509 129.617 45.6364 130.066 45.8913C130.524 46.1462 130.88 46.4986 131.135 46.9484C131.397 47.3982 131.528 47.9192 131.528 48.5115C131.528 49.0962 131.397 49.6172 131.135 50.0745C130.88 50.5243 130.524 50.8804 130.066 51.1428C129.609 51.3977 129.092 51.5252 128.514 51.5252ZM128.514 50.8167C128.942 50.8167 129.32 50.723 129.65 50.5356C129.98 50.3407 130.239 50.0708 130.426 49.7259C130.621 49.3736 130.719 48.9688 130.719 48.5115C130.719 48.0467 130.621 47.6418 130.426 47.297C130.239 46.9521 129.98 46.686 129.65 46.4986C129.32 46.3036 128.946 46.2062 128.526 46.2062C128.106 46.2062 127.731 46.3036 127.401 46.4986C127.071 46.686 126.809 46.9521 126.614 47.297C126.419 47.6418 126.322 48.0467 126.322 48.5115C126.322 48.9688 126.419 49.3736 126.614 49.7259C126.809 50.0708 127.071 50.3407 127.401 50.5356C127.731 50.723 128.102 50.8167 128.514 50.8167Z" fill="white"/>
<path d="M135.025 51.5252C134.47 51.5252 134.043 51.3752 133.743 51.0754C133.443 50.7755 133.293 50.3519 133.293 49.8047V44.2608H134.092V49.7597C134.092 50.1045 134.178 50.3707 134.35 50.5581C134.53 50.7455 134.785 50.8392 135.115 50.8392C135.467 50.8392 135.76 50.738 135.992 50.5356L136.273 51.1091C136.116 51.2515 135.925 51.3565 135.7 51.424C135.482 51.4914 135.257 51.5252 135.025 51.5252ZM132.236 46.2287V45.5652H135.891V46.2287H132.236Z" fill="white"/>
<path d="M139.924 51.5252C139.355 51.5252 138.841 51.3977 138.384 51.1428C137.934 50.8804 137.578 50.5243 137.316 50.0745C137.053 49.6172 136.922 49.0962 136.922 48.5115C136.922 47.9192 137.053 47.3982 137.316 46.9484C137.578 46.4986 137.934 46.1462 138.384 45.8913C138.834 45.6364 139.347 45.509 139.924 45.509C140.509 45.509 141.026 45.6364 141.476 45.8913C141.934 46.1462 142.29 46.4986 142.545 46.9484C142.807 47.3982 142.938 47.9192 142.938 48.5115C142.938 49.0962 142.807 49.6172 142.545 50.0745C142.29 50.5243 141.934 50.8804 141.476 51.1428C141.019 51.3977 140.502 51.5252 139.924 51.5252ZM139.924 50.8167C140.352 50.8167 140.73 50.723 141.06 50.5356C141.39 50.3407 141.649 50.0708 141.836 49.7259C142.031 49.3736 142.128 48.9688 142.128 48.5115C142.128 48.0467 142.031 47.6418 141.836 47.297C141.649 46.9521 141.39 46.686 141.06 46.4986C140.73 46.3036 140.355 46.2062 139.936 46.2062C139.516 46.2062 139.141 46.3036 138.811 46.4986C138.481 46.686 138.219 46.9521 138.024 47.297C137.829 47.6418 137.732 48.0467 137.732 48.5115C137.732 48.9688 137.829 49.3736 138.024 49.7259C138.219 50.0708 138.481 50.3407 138.811 50.5356C139.141 50.723 139.512 50.8167 139.924 50.8167Z" fill="white"/>
<path d="M147.087 53.7067C146.547 53.7067 146.03 53.628 145.535 53.4706C145.04 53.3132 144.639 53.0882 144.332 52.7959L144.737 52.1886C145.014 52.436 145.355 52.6309 145.76 52.7734C146.172 52.9233 146.607 52.9983 147.065 52.9983C147.814 52.9983 148.365 52.8221 148.718 52.4698C149.07 52.1249 149.246 51.5851 149.246 50.8505V49.3773L149.359 48.3653L149.28 47.3532V45.5652H150.045V50.7492C150.045 51.7688 149.793 52.5147 149.291 52.987C148.796 53.4668 148.062 53.7067 147.087 53.7067ZM146.941 51.244C146.379 51.244 145.873 51.1241 145.423 50.8842C144.973 50.6368 144.617 50.2957 144.354 49.8609C144.1 49.4261 143.972 48.9275 143.972 48.3653C143.972 47.803 144.1 47.3082 144.354 46.8809C144.617 46.4461 144.973 46.1087 145.423 45.8688C145.873 45.6289 146.379 45.509 146.941 45.509C147.466 45.509 147.938 45.6177 148.358 45.8351C148.778 46.0525 149.111 46.3749 149.359 46.8022C149.606 47.2295 149.73 47.7505 149.73 48.3653C149.73 48.98 149.606 49.501 149.359 49.9283C149.111 50.3557 148.778 50.6818 148.358 50.9067C147.938 51.1316 147.466 51.244 146.941 51.244ZM147.02 50.5356C147.454 50.5356 147.841 50.4456 148.178 50.2657C148.515 50.0783 148.781 49.8234 148.976 49.501C149.171 49.1712 149.269 48.7926 149.269 48.3653C149.269 47.9379 149.171 47.5631 148.976 47.2407C148.781 46.9184 148.515 46.6672 148.178 46.4873C147.841 46.2999 147.454 46.2062 147.02 46.2062C146.592 46.2062 146.206 46.2999 145.861 46.4873C145.524 46.6672 145.258 46.9184 145.063 47.2407C144.876 47.5631 144.782 47.9379 144.782 48.3653C144.782 48.7926 144.876 49.1712 145.063 49.501C145.258 49.8234 145.524 50.0783 145.861 50.2657C146.206 50.4456 146.592 50.5356 147.02 50.5356Z" fill="white"/>
<path d="M152.266 51.4689V45.5652H153.031V47.1733L152.952 46.8921C153.117 46.4423 153.395 46.1012 153.784 45.8688C154.174 45.6289 154.658 45.509 155.235 45.509V46.2849C155.205 46.2849 155.175 46.2849 155.145 46.2849C155.115 46.2774 155.085 46.2737 155.055 46.2737C154.433 46.2737 153.946 46.4648 153.593 46.8472C153.241 47.222 153.065 47.758 153.065 48.4552V51.4689H152.266Z" fill="white"/>
<path d="M159.952 51.4689V50.1645L159.919 49.9508V47.7693C159.919 47.267 159.776 46.8809 159.491 46.611C159.214 46.3411 158.798 46.2062 158.243 46.2062C157.861 46.2062 157.497 46.2699 157.152 46.3974C156.807 46.5248 156.515 46.6935 156.275 46.9034L155.915 46.3074C156.215 46.0525 156.575 45.8576 156.995 45.7226C157.415 45.5802 157.857 45.509 158.322 45.509C159.086 45.509 159.675 45.7002 160.087 46.0825C160.507 46.4573 160.717 47.0308 160.717 47.803V51.4689H159.952ZM157.917 51.5252C157.475 51.5252 157.089 51.4539 156.759 51.3115C156.436 51.1616 156.189 50.9592 156.016 50.7043C155.844 50.4419 155.758 50.142 155.758 49.8047C155.758 49.4973 155.829 49.2199 155.971 48.9725C156.121 48.7176 156.361 48.5152 156.691 48.3653C157.029 48.2078 157.478 48.1291 158.041 48.1291H160.076V48.7251H158.063C157.493 48.7251 157.096 48.8263 156.871 49.0287C156.654 49.2311 156.545 49.4823 156.545 49.7822C156.545 50.1195 156.676 50.3894 156.939 50.5918C157.201 50.7942 157.568 50.8954 158.041 50.8954C158.49 50.8954 158.876 50.7942 159.199 50.5918C159.529 50.3819 159.769 50.082 159.919 49.6922L160.098 50.2432C159.949 50.633 159.686 50.9442 159.311 51.1766C158.944 51.409 158.479 51.5252 157.917 51.5252Z" fill="white"/>
<path d="M165.933 51.5252C165.423 51.5252 164.962 51.409 164.55 51.1766C164.137 50.9367 163.808 50.5956 163.56 50.1533C163.32 49.7034 163.2 49.1562 163.2 48.5115C163.2 47.8667 163.32 47.3232 163.56 46.8809C163.8 46.4311 164.126 46.09 164.539 45.8576C164.951 45.6252 165.416 45.509 165.933 45.509C166.495 45.509 166.998 45.6364 167.44 45.8913C167.89 46.1387 168.242 46.4911 168.497 46.9484C168.752 47.3982 168.879 47.9192 168.879 48.5115C168.879 49.1112 168.752 49.636 168.497 50.0858C168.242 50.5356 167.89 50.8879 167.44 51.1428C166.998 51.3977 166.495 51.5252 165.933 51.5252ZM162.886 53.6505V45.5652H163.65V47.342L163.571 48.5227L163.684 49.7147V53.6505H162.886ZM165.877 50.8167C166.297 50.8167 166.671 50.723 167.001 50.5356C167.331 50.3407 167.594 50.0708 167.788 49.7259C167.983 49.3736 168.081 48.9688 168.081 48.5115C168.081 48.0541 167.983 47.6531 167.788 47.3082C167.594 46.9634 167.331 46.6935 167.001 46.4986C166.671 46.3036 166.297 46.2062 165.877 46.2062C165.457 46.2062 165.078 46.3036 164.741 46.4986C164.411 46.6935 164.149 46.9634 163.954 47.3082C163.766 47.6531 163.673 48.0541 163.673 48.5115C163.673 48.9688 163.766 49.3736 163.954 49.7259C164.149 50.0708 164.411 50.3407 164.741 50.5356C165.078 50.723 165.457 50.8167 165.877 50.8167Z" fill="white"/>
<path d="M173.521 45.509C174 45.509 174.42 45.6027 174.78 45.7901C175.147 45.97 175.432 46.2474 175.635 46.6223C175.845 46.9971 175.949 47.4694 175.949 48.0392V51.4689H175.151V48.1179C175.151 47.4956 174.994 47.0271 174.679 46.7122C174.371 46.3899 173.937 46.2287 173.374 46.2287C172.954 46.2287 172.587 46.3149 172.272 46.4873C171.965 46.6522 171.725 46.8959 171.553 47.2183C171.388 47.5331 171.305 47.9155 171.305 48.3653V51.4689H170.507V43.125H171.305V47.1845L171.148 46.8809C171.335 46.4536 171.635 46.12 172.047 45.8801C172.46 45.6327 172.951 45.509 173.521 45.509Z" fill="white"/>
<path d="M178.041 53.7067C177.764 53.7067 177.498 53.6618 177.243 53.5718C176.995 53.4818 176.782 53.3469 176.602 53.167L176.973 52.571C177.123 52.7134 177.284 52.8221 177.456 52.8971C177.636 52.9795 177.835 53.0208 178.052 53.0208C178.315 53.0208 178.54 52.9458 178.727 52.7959C178.922 52.6534 179.106 52.3985 179.278 52.0312L179.661 51.1653L179.751 51.0416L182.179 45.5652H182.967L180.009 52.1774C179.844 52.5597 179.661 52.8633 179.458 53.0883C179.263 53.3132 179.05 53.4706 178.817 53.5605C178.585 53.658 178.326 53.7067 178.041 53.7067ZM179.616 51.6376L176.894 45.5652H177.726L180.133 50.9854L179.616 51.6376Z" fill="white"/>
<path fill-rule="evenodd" clip-rule="evenodd" d="M77.1512 0.323067C76.9529 0.521366 75.8288 1.93388 74.6533 3.46179L72.5164 6.23999L67.0978 6.24268C61.3346 6.24537 60.0816 6.40916 58.5434 7.35987C57.815 7.81002 56.6379 9.10355 56.6379 9.45399C56.6379 9.53488 60.5703 9.60098 65.3765 9.60098C73.5682 9.60098 74.1409 9.57522 74.5281 9.18803C74.7553 8.96083 75.8803 7.54921 77.0286 6.0511L79.1163 3.32712L89.8916 3.33788L100.667 3.34886L102.901 6.26912C104.129 7.87545 105.307 9.28214 105.519 9.39529C105.73 9.50844 107 9.60098 108.342 9.60098C111.265 9.60098 112.566 9.94313 114.111 11.1184C114.911 11.7267 115.447 12.394 115.986 13.4509L116.741 14.9311L117.491 27.1104C117.904 33.8091 118.245 39.5672 118.249 39.906C118.255 40.4119 118.356 40.5221 118.816 40.5221C119.278 40.5221 119.376 40.4141 119.376 39.906C119.375 39.5672 119.588 34.0466 119.849 27.6383C120.374 14.7489 120.356 14.364 119.114 11.8416C118.144 9.87076 116.534 8.31305 114.351 7.2344C112.661 6.39885 112.458 6.35381 109.889 6.24357L107.198 6.12795L104.819 3.10306L102.441 0.0781619L89.9763 0.0203521C78.7692 -0.0318554 77.4754 -0.00115708 77.1512 0.323067ZM63.6859 3.20501C63.3055 3.58525 63.1359 4.0038 63.1359 4.56195C63.1359 5.35134 63.1468 5.36142 63.634 5.02039C64.3201 4.53977 68.2338 4.52476 68.8628 5.00045C69.5114 5.49116 69.5944 5.42483 69.4832 4.50347C69.4205 3.98453 69.1682 3.47053 68.8231 3.15907C68.3311 2.71498 68.0241 2.65493 66.2502 2.65493C64.4104 2.65493 64.1883 2.70265 63.6859 3.20501ZM108.051 3.20501C107.671 3.58525 107.501 4.0038 107.501 4.56195C107.501 5.35134 107.512 5.36142 107.999 5.02039C108.369 4.7607 109.073 4.67152 110.75 4.67152C112.426 4.67152 113.13 4.7607 113.501 5.02039C113.982 5.35739 113.999 5.34664 113.999 4.70132C113.999 4.30988 113.759 3.74837 113.419 3.34438C112.846 2.66411 112.811 2.65493 110.72 2.65493C108.769 2.65493 108.557 2.69862 108.051 3.20501ZM87.1255 9.39686C85.0426 9.80533 82.5358 10.8091 80.9505 11.8694C78.2572 13.6709 74.8306 17.1133 75.2816 17.5643C75.3253 17.608 76.2151 16.982 77.2588 16.1733C81.8089 12.6487 83.7007 11.6848 87.1161 11.152C91.0346 10.5405 95.8565 11.6357 99.1404 13.8831C101.641 15.5943 103.532 17.766 104.877 20.4686C106.274 23.2778 106.486 24.3132 106.488 28.3105C106.489 31.6623 106.448 32.0123 105.862 33.6881C103.503 40.4278 97.6367 44.9127 90.584 45.3678C86.9743 45.6008 82.6776 44.3709 79.2037 42.1105C78.315 41.5322 77.4714 40.9886 77.3289 40.9024C77.1555 40.7975 77.108 40.8919 77.1855 41.1881C77.6697 43.0395 84.7291 46.5394 88.9584 47.025C90.9026 47.2482 93.8773 46.9885 95.8426 46.4241C102.51 44.5087 107.81 38.7941 109.316 31.8956C109.8 29.6789 109.701 25.4853 109.115 23.4283C107.071 16.2519 101.493 10.9534 94.4585 9.50777C92.6093 9.12776 88.7921 9.06995 87.1255 9.39686ZM109.238 12.0809C108.095 12.6841 108.182 12.9169 109.503 12.7899C110.859 12.6597 111.976 13.2562 112.519 14.3998C112.963 15.336 112.971 15.8916 112.556 16.8854C112.075 18.0373 111.018 18.6085 109.567 18.5011C108.785 18.4433 108.41 18.496 108.46 18.6566C108.605 19.1213 110.084 19.6833 111.164 19.6835C114.634 19.6846 116.454 16.0041 114.405 13.1276C113.406 11.7233 110.883 11.2125 109.238 12.0809Z" fill="#A61010"/>
<path d="M13.7296 40.0281C10.7683 40.0281 8.38584 39.2878 6.58214 37.8072C4.80537 36.3265 3.91698 34.0383 3.91698 30.9424C3.91698 28.5733 4.3881 26.3254 5.33032 24.1987C6.27255 22.045 7.52437 20.0798 9.08578 18.303C10.6741 16.5263 12.424 15.0052 14.3353 13.74C13.2854 13.6053 12.2221 13.4707 11.1452 13.3361C10.0684 13.2015 9.00502 13.1342 7.9551 13.1342C6.74367 13.1342 5.65337 13.2958 4.68422 13.6188C3.742 13.9419 2.85361 14.561 2.01906 15.4763C1.77677 15.7456 1.58833 15.9878 1.45372 16.2032C1.31912 16.4186 1.25182 16.7147 1.25182 17.0916C1.25182 17.7108 1.3595 18.155 1.57487 18.4242C1.79024 18.6934 2.04598 18.8684 2.34211 18.9491C2.63824 19.0299 2.92091 19.0837 3.19012 19.1107C3.45933 19.1376 3.63431 19.2183 3.71507 19.3529C3.68815 19.4337 3.59393 19.501 3.43241 19.5549C3.27088 19.5818 3.13628 19.5952 3.02859 19.5952C2.62478 19.5952 2.27481 19.501 1.97868 19.3126C1.70947 19.1241 1.46719 18.9491 1.25182 18.7876C1.06337 18.5992 0.888387 18.5049 0.726862 18.5049C0.673021 18.5049 0.619179 18.5319 0.565337 18.5857C0.538417 18.6395 0.484575 18.6665 0.403812 18.6665C0.188446 18.6665 0.0673021 18.5184 0.0403812 18.2223C0.0134604 17.8992 0 17.6839 0 17.5762C0 17.28 0.121144 16.9435 0.363431 16.5666C0.605719 16.1897 0.821085 15.8936 1.00953 15.6783C2.16713 14.2784 3.40548 13.2958 4.72461 12.7304C6.07065 12.1651 7.63206 11.8824 9.40883 11.8824C10.5664 11.8824 11.7106 11.9632 12.8412 12.1247C13.9719 12.2593 15.1026 12.4208 16.2333 12.6093C17.5524 11.8824 18.9523 11.344 20.4329 10.994C21.9136 10.6171 23.3942 10.4287 24.8748 10.4287C25.7363 10.4287 26.6382 10.5229 27.5804 10.7114C28.5226 10.8729 29.3975 11.1556 30.2052 11.5594C31.0397 11.9632 31.7127 12.5151 32.2242 13.215C32.7357 13.9149 32.9915 14.7899 32.9915 15.8398C32.9915 16.6743 32.8434 17.4954 32.5473 18.303C32.5473 18.4107 32.5204 18.5049 32.4665 18.5857C32.4396 18.6395 32.3992 18.7068 32.3454 18.7876C32.1569 19.1376 31.9685 19.4606 31.78 19.7568C31.6185 20.026 31.2955 20.1606 30.8109 20.1606C30.4609 20.1606 30.2859 19.9721 30.2859 19.5952C30.2859 19.4606 30.2859 19.326 30.2859 19.1914C30.3129 19.0299 30.3398 18.8953 30.3667 18.7876C28.213 17.6031 25.8709 16.6205 23.3404 15.8398C20.8367 15.0322 18.3735 14.413 15.9506 13.9822C14.7122 14.8975 13.5143 15.9878 12.3567 17.2531C11.1991 18.5184 10.1492 19.9048 9.20692 21.4124C8.29162 22.893 7.56475 24.441 7.02634 26.0562C6.48792 27.6715 6.21871 29.2733 6.21871 30.8616C6.21871 32.6653 6.62252 34.1729 7.43015 35.3843C8.23777 36.5957 9.32807 37.4976 10.701 38.0898C12.074 38.6821 13.6219 38.9782 15.3449 38.9782C16.8255 38.9782 18.3196 38.7494 19.8272 38.2917C21.3617 37.861 22.8154 37.2553 24.1884 36.4746C25.5613 35.667 26.7593 34.7382 27.7823 33.6883C28.5092 32.9345 29.2495 32.0461 30.0033 31.0231C30.784 30.0001 31.3762 28.9906 31.78 27.9945C31.78 27.9676 31.807 27.8868 31.8608 27.7522C31.9416 27.6176 31.9954 27.5503 32.0223 27.5503C32.0762 27.5503 32.1031 27.6311 32.1031 27.7926C32.13 27.9541 32.1435 28.0484 32.1435 28.0753C32.1435 28.2099 32.13 28.5195 32.1031 29.0041C32.1031 29.4617 32.0762 29.7578 32.0223 29.8925C31.6454 31.077 30.9186 32.2076 29.8417 33.2845C28.7918 34.3344 27.5669 35.2901 26.167 36.1515C24.7941 37.013 23.3807 37.7399 21.927 38.3321C20.5002 38.9244 19.208 39.3417 18.0504 39.5839C17.3505 39.7186 16.6371 39.8262 15.9102 39.907C15.1833 39.9878 14.4565 40.0281 13.7296 40.0281ZM30.6897 17.0108C30.7167 16.8493 30.7301 16.6878 30.7301 16.5263C30.757 16.3647 30.7705 16.1897 30.7705 16.0013C30.7705 14.7899 30.434 13.8476 29.761 13.1746C29.088 12.4747 28.2534 11.9901 27.2573 11.7209C26.2613 11.4248 25.2517 11.2767 24.2287 11.2767C23.1519 11.2767 22.0347 11.4113 20.8771 11.6805C19.7195 11.9228 18.6561 12.3131 17.687 12.8516C19.9214 13.2823 22.1289 13.8476 24.3095 14.5476C26.4901 15.2475 28.6168 16.0686 30.6897 17.0108Z" fill="white"/>
<path d="M29.972 38.4129C29.9182 38.4129 29.8913 38.3994 29.8913 38.3725C29.8913 38.2648 29.9451 38.1571 30.0528 38.0495C30.1336 37.9687 30.2009 37.8879 30.2547 37.8072C30.4701 37.4572 30.6854 36.9995 30.9008 36.4342C31.1162 35.842 31.3181 35.2497 31.5065 34.6574C31.7219 34.0383 31.8969 33.5268 32.0315 33.1229C32.5699 31.5346 33.0948 29.9328 33.6063 28.3176C34.1178 26.7023 34.6697 25.1005 35.262 23.5122C35.6119 22.57 36.0292 21.5066 36.5138 20.3221C36.9984 19.1107 37.5637 17.8992 38.2098 16.6878C38.8559 15.4763 39.5828 14.3726 40.3904 13.3765C41.2249 12.3535 42.1537 11.5324 43.1767 10.9133C44.1997 10.2941 45.3304 9.9845 46.5687 9.9845C47.9148 9.9845 48.8031 10.2268 49.2339 10.7114C49.6915 11.1959 49.9204 11.694 49.9204 12.2055C49.9204 12.4208 49.8396 12.5554 49.6781 12.6093C49.5435 12.6631 49.4762 12.5958 49.4762 12.4074C49.4762 11.842 49.2473 11.3844 48.7897 11.0344C48.332 10.6575 47.7936 10.4691 47.1744 10.4691C46.6091 10.4691 46.0034 10.6844 45.3573 11.1152C44.7381 11.519 44.1458 12.0036 43.5805 12.5689C43.0152 13.1342 42.571 13.6323 42.2479 14.063C41.1711 15.5167 40.2962 16.8628 39.6231 18.1011C38.9501 19.3395 38.3713 20.5509 37.8868 21.7354C37.4291 22.92 36.9849 24.1718 36.5542 25.4909C36.1504 26.81 35.6658 28.2772 35.1004 29.8925V30.054C35.1004 30.1347 35.1139 30.1751 35.1408 30.1751C35.2216 30.0944 35.262 30.054 35.262 30.054C36.0965 28.9502 36.9445 27.8734 37.806 26.8235C38.6944 25.7466 39.7578 24.8717 40.9961 24.1987C41.1846 24.091 41.3999 23.9833 41.6422 23.8756C41.8845 23.741 42.1133 23.6737 42.3287 23.6737C42.6787 23.6737 42.8806 23.8353 42.9344 24.1583C43.0152 24.4544 43.0556 24.7371 43.0556 25.0063C43.0556 25.5717 42.8671 26.312 42.4902 27.2273C42.1402 28.1157 41.7095 29.0848 41.198 30.1347C40.7134 31.1847 40.2827 32.2211 39.9058 33.2441C39.5558 34.2402 39.3809 35.142 39.3809 35.9496C39.3809 36.0573 39.3943 36.1919 39.4212 36.3534C39.4751 36.4881 39.5828 36.5554 39.7443 36.5554C40.0135 36.5554 40.3769 36.34 40.8346 35.9093C41.2922 35.4516 41.723 34.967 42.1268 34.4555C42.5306 33.9171 42.7863 33.5268 42.894 33.2845C43.0017 33.3922 43.0556 33.4729 43.0556 33.5268C43.0556 33.769 42.8133 34.1594 42.3287 34.6978C41.871 35.2093 41.3192 35.7477 40.6731 36.3131C40.027 36.8784 39.4078 37.363 38.8155 37.7668C38.2233 38.1706 37.806 38.3725 37.5637 38.3725C37.2945 38.3725 37.1061 38.1706 36.9984 37.7668C36.9176 37.363 36.8772 37.0668 36.8772 36.8784C36.8772 36.3669 36.9849 35.7208 37.2003 34.9401C37.4426 34.1594 37.7252 33.3383 38.0483 32.4768C38.3982 31.6154 38.7348 30.7943 39.0578 30.0136C39.4078 29.2329 39.6904 28.5868 39.9058 28.0753C39.9866 27.9138 40.1077 27.6311 40.2692 27.2273C40.4308 26.7966 40.5115 26.487 40.5115 26.2985C40.5115 26.1639 40.4846 26.0159 40.4308 25.8543C40.4038 25.6928 40.2962 25.612 40.1077 25.612C39.8116 25.612 39.4482 25.787 39.0174 26.137C38.6136 26.487 38.304 26.7696 38.0887 26.985C36.9311 28.2503 35.9215 29.6905 35.0601 31.3058C34.2255 32.8941 33.539 34.5094 33.0006 36.1515C32.9468 36.3669 32.9064 36.515 32.8795 36.5957C32.8526 36.6765 32.7314 36.7976 32.516 36.9592C32.4353 36.9861 32.1795 37.1207 31.7488 37.363C31.345 37.6053 30.9546 37.8341 30.5777 38.0495C30.2009 38.2917 29.9989 38.4129 29.972 38.4129Z" fill="white"/>
<path d="M42.5997 38.4129C42.5458 38.4129 42.5189 38.3994 42.5189 38.3725C42.5189 38.2648 42.5728 38.1571 42.6804 38.0495C42.7612 37.9687 42.8285 37.8879 42.8824 37.8072C43.1246 37.4034 43.3938 36.7169 43.69 35.7477C44.013 34.7517 44.3226 33.6614 44.6187 32.4768C44.9418 31.2923 45.2245 30.1886 45.4668 29.1656C45.736 28.1157 45.9244 27.3215 46.0321 26.7831C46.0859 26.5677 46.1398 26.2851 46.1936 25.9351C46.2744 25.5851 46.3686 25.2351 46.4763 24.8852C46.584 24.5352 46.7051 24.3064 46.8397 24.1987C47.082 23.9833 47.4454 23.7949 47.93 23.6334C48.4146 23.4718 48.8992 23.3507 49.3837 23.2699C49.8952 23.1622 50.3125 23.1084 50.6356 23.1084C50.6894 23.1084 50.7567 23.1353 50.8375 23.1892C50.9182 23.243 50.9721 23.2968 50.999 23.3507L51.0394 23.4718C51.0124 23.5526 50.9721 23.593 50.9182 23.593C50.8644 23.5661 50.8105 23.5526 50.7567 23.5526C50.2452 23.5526 49.7741 23.8487 49.3433 24.441C48.9126 25.0063 48.5357 25.7063 48.2127 26.5408C47.8896 27.3754 47.607 28.183 47.3647 28.9637C47.1493 29.7175 47.0012 30.2828 46.9205 30.6597C47.1897 30.0405 47.5397 29.3406 47.9704 28.5599C48.428 27.7522 48.953 26.985 49.5453 26.2581C50.1375 25.5044 50.7836 24.8852 51.4836 24.4006C52.1835 23.8891 52.9238 23.6334 53.7045 23.6334C53.8122 23.6334 53.9872 23.6603 54.2295 23.7141C54.4987 23.741 54.741 23.8083 54.9563 23.916C55.1986 23.9968 55.3198 24.1045 55.3198 24.2391L55.2794 24.2795H55.239L54.9967 24.1987C55.0775 24.3871 55.1313 24.5756 55.1582 24.764C55.1852 24.9525 55.1986 25.1409 55.1986 25.3294C55.1986 25.4909 55.1448 25.8409 55.0371 26.3793C54.9563 26.9177 54.8352 27.4292 54.6737 27.9138C54.5391 28.3714 54.391 28.6003 54.2295 28.6003C54.1218 28.6003 54.068 28.5599 54.068 28.4791C54.068 28.3445 54.1083 28.1291 54.1891 27.833C54.2968 27.51 54.3506 27.2138 54.3506 26.9446C54.3506 26.46 54.2295 26.0697 53.9872 25.7736C53.7449 25.4774 53.3815 25.3294 52.8969 25.3294C52.0893 25.3294 51.3086 25.6793 50.5548 26.3793C49.801 27.0523 49.1145 27.9003 48.4953 28.9233C47.8762 29.9194 47.3512 30.9289 46.9205 31.9519C46.4897 32.9749 46.1936 33.8094 46.0321 34.4555C45.9244 34.8055 45.8302 35.2632 45.7494 35.8285C45.6687 36.3669 45.4668 36.7438 45.1437 36.9592C45.0629 36.9861 44.8072 37.1207 44.3765 37.363C43.9726 37.6053 43.5823 37.8341 43.2054 38.0495C42.8016 38.2917 42.5997 38.4129 42.5997 38.4129Z" fill="white"/>
<path d="M55.4034 38.0898C54.8919 38.0898 54.5285 37.9552 54.3131 37.686C54.1246 37.3899 54.0304 36.8784 54.0304 36.1515C54.0304 35.1016 54.165 33.9979 54.4342 32.8403C54.7034 31.6827 55.0669 30.5655 55.5245 29.4886C55.9822 28.3849 56.4937 27.4292 57.059 26.6216C57.4897 26.0293 58.0685 25.4774 58.7954 24.9659C59.5223 24.4544 60.303 24.0372 61.1375 23.7141C61.9721 23.3911 62.7528 23.2295 63.4796 23.2295C63.7219 23.2295 64.018 23.2699 64.368 23.3507C64.718 23.4045 64.9872 23.5122 65.1756 23.6737C65.3102 23.7814 65.391 23.9295 65.4179 24.1179C65.4718 24.3064 65.4987 24.4814 65.4987 24.6429C65.4987 25.3428 65.3775 26.1639 65.1353 27.1061C64.9199 28.0215 64.6238 28.9637 64.2469 29.9328C63.87 30.902 63.4662 31.8173 63.0354 32.6788C62.6047 33.5133 62.174 34.2132 61.7432 34.7786C61.5009 35.1016 61.1106 35.4651 60.5722 35.8689C60.0338 36.2458 59.4415 36.6092 58.7954 36.9592C58.1762 37.2822 57.557 37.5514 56.9379 37.7668C56.3187 37.9822 55.8072 38.0898 55.4034 38.0898ZM56.4937 36.9592C57.7589 36.69 58.7819 36.0842 59.5626 35.142C60.1818 34.4151 60.7606 33.4595 61.299 32.2749C61.8375 31.0904 62.2682 29.8655 62.5912 28.6003C62.9412 27.335 63.1162 26.2312 63.1162 25.289C63.1162 25.2082 63.1027 25.0736 63.0758 24.8852C63.0758 24.6967 63.0354 24.589 62.9547 24.5621C62.6316 24.4006 62.2682 24.3198 61.8644 24.3198C61.5952 24.3198 61.2452 24.4141 60.8145 24.6025C60.3837 24.764 60.0607 24.9525 59.8453 25.1678C59.7107 25.3024 59.5761 25.4909 59.4415 25.7332C59.3338 25.9485 59.2261 26.137 59.1185 26.2985C58.607 27.1061 58.1089 28.0484 57.6243 29.1252C57.1667 30.202 56.7898 31.3058 56.4937 32.4365C56.1975 33.5671 56.0495 34.6305 56.0495 35.6266C56.0495 35.9496 56.0764 36.2458 56.1302 36.515C56.211 36.7573 56.3321 36.9053 56.4937 36.9592Z" fill="white"/>
<path d="M63.933 38.4129C63.906 38.4129 63.8926 38.3994 63.8926 38.3725C63.8926 38.2648 63.9464 38.1571 64.0541 38.0495C64.1349 37.9418 64.1887 37.861 64.2156 37.8072C64.4041 37.511 64.6329 37.013 64.9021 36.3131C65.1444 35.5862 65.3867 34.7786 65.629 33.8902C65.8982 32.9749 66.1405 32.0596 66.3558 31.1443C66.5981 30.202 66.8135 29.3406 67.0019 28.5599C67.1904 27.7792 67.325 27.1869 67.4058 26.7831C67.4596 26.5677 67.5134 26.2851 67.5673 25.9351C67.6211 25.5851 67.7019 25.2351 67.8096 24.8852C67.9173 24.5352 68.0384 24.3064 68.173 24.1987C68.4153 23.9833 68.7787 23.7949 69.2633 23.6334C69.7479 23.4718 70.2459 23.3507 70.7574 23.2699C71.2689 23.1622 71.6727 23.1084 71.9688 23.1084C72.1304 23.1084 72.2515 23.1892 72.3323 23.3507L72.3727 23.4718C72.3457 23.5526 72.3053 23.593 72.2515 23.593C72.1977 23.5661 72.1438 23.5526 72.09 23.5526C71.4977 23.5526 70.9728 23.8891 70.5151 24.5621C70.0844 25.2082 69.694 26.0159 69.3441 26.985C69.021 27.9272 68.7518 28.8425 68.5364 29.7309C68.348 30.6193 68.1999 31.2923 68.0922 31.75C68.9537 30.2963 69.9363 28.8829 71.0401 27.51C72.1707 26.137 73.4764 25.0332 74.957 24.1987C75.1724 24.091 75.3878 23.9833 75.6031 23.8756C75.8454 23.741 76.0743 23.6737 76.2896 23.6737C76.6396 23.6737 76.855 23.8353 76.9357 24.1583C77.0165 24.4544 77.0569 24.7371 77.0569 25.0063C77.0569 25.3563 76.9492 25.8543 76.7338 26.5004C76.5454 27.1196 76.3165 27.7388 76.0473 28.358C75.8051 28.9771 75.6031 29.4617 75.4416 29.8117C76.2762 28.7079 77.2049 27.6715 78.2279 26.7023C79.2509 25.7063 80.3816 24.8717 81.6199 24.1987C81.8084 24.091 82.0238 23.9833 82.2661 23.8756C82.5083 23.741 82.7372 23.6737 82.9525 23.6737C83.3025 23.6737 83.5044 23.8353 83.5583 24.1583C83.639 24.4544 83.6794 24.7371 83.6794 25.0063C83.6794 25.4101 83.5583 25.9216 83.316 26.5408C83.1006 27.1331 82.8448 27.7388 82.5487 28.358C82.2795 28.9502 82.0641 29.4483 81.9026 29.8521C81.7142 30.2828 81.5257 30.727 81.3373 31.1847C81.1758 31.6423 81.0277 32.1 80.8931 32.5576C80.7854 32.9883 80.6643 33.4729 80.5297 34.0113C80.3951 34.5228 80.3278 35.0074 80.3278 35.4651C80.3278 35.6535 80.3547 35.8689 80.4085 36.1112C80.4893 36.3534 80.6508 36.4746 80.8931 36.4746C81.0277 36.4746 81.1354 36.4477 81.2161 36.3938C81.3238 36.34 81.4315 36.2861 81.5392 36.2323C82.1584 35.8823 82.7506 35.4112 83.316 34.819C83.9082 34.1998 84.4466 33.5402 84.9312 32.8403C85.4158 32.1134 85.8196 31.4539 86.1427 30.8616C86.1696 30.8885 86.183 30.9424 86.183 31.0231C86.183 31.1846 86.0888 31.4269 85.9004 31.75C85.7119 32.0461 85.4966 32.3692 85.2543 32.7191C85.012 33.0691 84.7831 33.3787 84.5678 33.6479C84.3793 33.9171 84.2851 34.0786 84.2851 34.1325C84.2582 34.3209 84.2178 34.4824 84.164 34.6171C84.1101 34.7247 84.0294 34.8728 83.9217 35.0612C83.5986 35.3843 83.1275 35.7881 82.5083 36.2727C81.9161 36.7303 81.2969 37.1476 80.6508 37.5245C80.0047 37.8745 79.4394 38.0495 78.9548 38.0495C78.551 38.0495 78.2818 37.9149 78.1472 37.6456C78.0126 37.3495 77.9453 37.0265 77.9453 36.6765C77.9453 35.9766 78.1068 35.1151 78.4298 34.0921C78.7529 33.0422 79.1163 31.9923 79.5201 30.9424C79.9239 29.8925 80.247 29.031 80.4893 28.358C80.57 28.1426 80.6912 27.7926 80.8527 27.3081C81.0412 26.8235 81.1354 26.487 81.1354 26.2985C81.1354 26.137 81.1085 25.9755 81.0546 25.8139C81.0008 25.6524 80.8662 25.5717 80.6508 25.5717C80.2201 25.5717 79.6951 25.8543 79.0759 26.4197C78.4837 26.985 77.878 27.6715 77.2588 28.4791C76.6396 29.2598 76.0877 30.0271 75.6031 30.7808C75.1455 31.5077 74.8224 32.0461 74.634 32.3961C74.3648 32.9345 74.109 33.4998 73.8668 34.0921C73.6245 34.6574 73.4495 35.2362 73.3418 35.8285C73.0995 35.8285 72.7765 35.99 72.3727 36.3131C71.9958 36.6361 71.6323 36.9592 71.2824 37.2822C70.9593 37.5783 70.7574 37.7264 70.6766 37.7264C70.6228 37.7264 70.6093 37.6995 70.6363 37.6456C70.6632 37.5649 70.6766 37.4976 70.6766 37.4437L70.717 37.1611C70.7709 36.7573 70.8516 36.3669 70.9593 35.99C71.0939 35.5862 71.215 35.2093 71.3227 34.8593C71.4573 34.4017 71.6054 33.944 71.7669 33.4864C71.9554 33.0018 72.1438 32.5442 72.3323 32.1134C72.413 31.8981 72.5611 31.5212 72.7765 30.9827C73.0187 30.4174 73.2745 29.7982 73.5437 29.1252C73.8129 28.4522 74.0417 27.8599 74.2302 27.3484C74.4186 26.81 74.5129 26.46 74.5129 26.2985C74.5129 26.1639 74.4859 26.0159 74.4321 25.8543C74.4052 25.6928 74.284 25.612 74.0687 25.612C73.7994 25.612 73.4495 25.787 73.0187 26.137C72.6149 26.487 72.3053 26.7696 72.09 26.985C70.9324 28.2503 69.9229 29.6905 69.0614 31.3058C68.2268 32.8941 67.5404 34.5094 67.0019 36.1515C66.9212 36.3669 66.8673 36.515 66.8404 36.5957C66.8404 36.6765 66.7327 36.7976 66.5174 36.9592C66.4366 36.9861 66.1809 37.1207 65.7501 37.363C65.3463 37.6053 64.956 37.8341 64.5791 38.0495C64.1753 38.2917 63.9599 38.4129 63.933 38.4129Z" fill="white"/>
<path d="M85.3587 37.9687C84.928 37.9687 84.6453 37.8072 84.5107 37.4841C84.403 37.1342 84.3492 36.7842 84.3492 36.4342C84.3492 35.1689 84.5914 33.8094 85.076 32.3557C85.5606 30.902 86.1932 29.5156 86.9739 28.1964C87.7546 26.8504 88.6026 25.7466 89.518 24.8852C90.4871 23.9968 91.6312 23.5526 92.9504 23.5526C93.4888 23.5526 94.0137 23.6199 94.5252 23.7545C95.0636 23.8622 95.5886 24.0237 96.1001 24.2391C96.5578 23.916 97.0558 23.6334 97.5942 23.3911C98.1326 23.1488 98.6845 23.0276 99.2498 23.0276C99.3844 23.0276 99.4921 23.1084 99.5729 23.2699V23.3911C99.5729 23.4718 99.5325 23.5122 99.4517 23.5122C99.3979 23.4853 99.3441 23.4718 99.2902 23.4718C98.8595 23.4718 98.3884 23.8083 97.8769 24.4814C97.3654 25.1275 96.8539 25.962 96.3424 26.985C95.8309 28.008 95.3598 29.0848 94.929 30.2155C94.5252 31.3462 94.1887 32.3826 93.9195 33.3249C93.6772 34.2671 93.5561 34.9805 93.5561 35.4651C93.5561 35.6535 93.583 35.8689 93.6368 36.1112C93.7176 36.3534 93.8791 36.4746 94.1214 36.4746C94.256 36.4746 94.3637 36.4477 94.4445 36.3938C94.5521 36.34 94.6598 36.2861 94.7675 36.2323C95.3598 35.8823 95.9386 35.4112 96.5039 34.819C97.0962 34.1998 97.6346 33.5402 98.1192 32.8403C98.6307 32.1134 99.0479 31.4539 99.371 30.8616C99.3979 30.8885 99.4114 30.9424 99.4114 31.0231C99.4114 31.1846 99.3171 31.4269 99.1287 31.75C98.9402 32.0461 98.7249 32.3692 98.4826 32.7191C98.2403 33.0691 98.0115 33.3787 97.7961 33.6479C97.6077 33.9171 97.5134 34.0786 97.5134 34.1325C97.4865 34.3209 97.4461 34.4824 97.3923 34.6171C97.3385 34.7247 97.2577 34.8728 97.15 35.0612C96.8 35.4112 96.3558 35.815 95.8174 36.2727C95.279 36.7303 94.7137 37.1342 94.1214 37.4841C93.5561 37.8072 93.0042 37.9687 92.4658 37.9687C91.6312 37.9687 91.214 37.5245 91.214 36.6361C91.214 36.0977 91.3217 35.4785 91.537 34.7786C91.7793 34.0517 92.0485 33.3383 92.3446 32.6384C92.6677 31.9115 92.9504 31.3058 93.1926 30.8212C93.1926 30.7943 93.1926 30.7539 93.1926 30.7001C93.1926 30.6462 93.1792 30.6193 93.1523 30.6193C93.1253 30.6193 93.085 30.6462 93.0311 30.7001C92.7081 31.1308 92.237 31.75 91.6178 32.5576C90.9986 33.3652 90.3121 34.1863 89.5583 35.0209C88.8315 35.8285 88.0911 36.5284 87.3374 37.1207C86.5836 37.686 85.924 37.9687 85.3587 37.9687ZM87.1355 36.2323C87.4316 36.2323 87.795 36.0439 88.2258 35.667C88.6834 35.2632 89.1545 34.792 89.6391 34.2536C90.1506 33.6883 90.5948 33.1499 90.9717 32.6384C91.3755 32.1269 91.6582 31.75 91.8197 31.5077C92.1427 31.0231 92.5062 30.4174 92.91 29.6905C93.3407 28.9637 93.7041 28.2099 94.0003 27.4292C94.3233 26.6485 94.4848 25.9889 94.4848 25.4505C94.4848 24.616 94.0676 24.1987 93.233 24.1987C92.7484 24.1987 92.237 24.4141 91.6985 24.8448C91.1601 25.2755 90.7294 25.6659 90.4063 26.0159C90.0564 26.4466 89.6526 27.0658 89.1949 27.8734C88.7642 28.681 88.3604 29.5559 87.9835 30.4982C87.6066 31.4404 87.2835 32.3422 87.0143 33.2037C86.772 34.0652 86.6509 34.7786 86.6509 35.3439C86.6509 35.5054 86.6778 35.6939 86.7317 35.9093C86.7855 36.1246 86.9201 36.2323 87.1355 36.2323Z" fill="white"/>
<path d="M135.466 39.4669C133.155 39.4669 131.296 38.8891 129.888 37.7336C128.502 36.5781 127.809 34.7923 127.809 32.3763C127.809 30.5275 128.176 28.7732 128.912 27.1135C129.647 25.4327 130.624 23.8991 131.842 22.5125C133.082 21.1259 134.447 19.9388 135.939 18.9514C135.12 18.8464 134.29 18.7413 133.45 18.6363C132.609 18.5312 131.779 18.4787 130.96 18.4787C130.015 18.4787 129.164 18.6048 128.407 18.8569C127.672 19.109 126.979 19.5922 126.327 20.3065C126.138 20.5166 125.991 20.7057 125.886 20.8737C125.781 21.0418 125.729 21.2729 125.729 21.567C125.729 22.0503 125.813 22.3969 125.981 22.607C126.149 22.8171 126.348 22.9537 126.58 23.0167C126.811 23.0797 127.031 23.1217 127.241 23.1427C127.451 23.1637 127.588 23.2268 127.651 23.3318C127.63 23.3948 127.556 23.4474 127.43 23.4894C127.304 23.5104 127.199 23.5209 127.115 23.5209C126.8 23.5209 126.527 23.4474 126.296 23.3003C126.086 23.1532 125.897 23.0167 125.729 22.8906C125.582 22.7436 125.445 22.67 125.319 22.67C125.277 22.67 125.235 22.691 125.193 22.7331C125.172 22.7751 125.13 22.7961 125.067 22.7961C124.899 22.7961 124.804 22.6805 124.783 22.4494C124.762 22.1973 124.752 22.0293 124.752 21.9452C124.752 21.7141 124.846 21.4515 125.035 21.1574C125.224 20.8632 125.392 20.6321 125.54 20.4641C126.443 19.3716 127.409 18.6048 128.439 18.1636C129.489 17.7224 130.708 17.5018 132.094 17.5018C132.998 17.5018 133.891 17.5648 134.773 17.6909C135.655 17.7959 136.538 17.922 137.42 18.069C138.45 17.5018 139.542 17.0816 140.698 16.8085C141.853 16.5143 143.009 16.3673 144.164 16.3673C144.836 16.3673 145.54 16.4408 146.276 16.5879C147.011 16.7139 147.694 16.9345 148.324 17.2497C148.975 17.5648 149.5 17.9955 149.9 18.5417C150.299 19.088 150.498 19.7708 150.498 20.5901C150.498 21.2414 150.383 21.8822 150.152 22.5125C150.152 22.5965 150.131 22.67 150.089 22.7331C150.068 22.7751 150.036 22.8276 149.994 22.8906C149.847 23.1637 149.7 23.4159 149.553 23.647C149.427 23.857 149.175 23.9621 148.797 23.9621C148.524 23.9621 148.387 23.815 148.387 23.5209C148.387 23.4159 148.387 23.3108 148.387 23.2058C148.408 23.0797 148.429 22.9747 148.45 22.8906C146.769 21.9662 144.942 21.1994 142.967 20.5901C141.013 19.9598 139.09 19.4766 137.2 19.1405C136.233 19.8548 135.298 20.7057 134.395 21.6931C133.492 22.6805 132.672 23.7625 131.937 24.939C131.223 26.0945 130.655 27.3026 130.235 28.5631C129.815 29.8236 129.605 31.0737 129.605 32.3132C129.605 33.7208 129.92 34.8974 130.55 35.8428C131.181 36.7882 132.031 37.492 133.103 37.9542C134.174 38.4164 135.382 38.6475 136.727 38.6475C137.882 38.6475 139.048 38.4689 140.225 38.1118C141.422 37.7756 142.557 37.3029 143.628 36.6936C144.7 36.0634 145.635 35.3386 146.433 34.5192C147 33.9309 147.578 33.2376 148.166 32.4393C148.776 31.6409 149.238 30.8531 149.553 30.0758C149.553 30.0548 149.574 29.9917 149.616 29.8867C149.679 29.7816 149.721 29.7291 149.742 29.7291C149.784 29.7291 149.805 29.7921 149.805 29.9182C149.826 30.0442 149.837 30.1178 149.837 30.1388C149.837 30.2438 149.826 30.4854 149.805 30.8636C149.805 31.2208 149.784 31.4519 149.742 31.5569C149.448 32.4813 148.881 33.3637 148.04 34.2041C147.221 35.0234 146.265 35.7692 145.173 36.4415C144.101 37.1138 142.998 37.6811 141.864 38.1433C140.75 38.6055 139.742 38.9311 138.838 39.1202C138.292 39.2252 137.735 39.3093 137.168 39.3723C136.601 39.4353 136.034 39.4669 135.466 39.4669ZM148.702 21.504C148.723 21.378 148.734 21.2519 148.734 21.1259C148.755 20.9998 148.765 20.8632 148.765 20.7162C148.765 19.7708 148.503 19.0354 147.977 18.5102C147.452 17.964 146.801 17.5858 146.023 17.3757C145.246 17.1446 144.458 17.0291 143.66 17.0291C142.82 17.0291 141.948 17.1341 141.044 17.3442C140.141 17.5333 139.311 17.8379 138.555 18.2581C140.298 18.5943 142.021 19.0354 143.723 19.5817C145.425 20.1279 147.084 20.7687 148.702 21.504Z" fill="white"/>
<path d="M150.096 37.7651C149.466 37.7651 149.15 37.4185 149.15 36.7252C149.15 36.2419 149.277 35.5697 149.529 34.7083C149.781 33.8469 150.075 32.933 150.411 31.9666C150.768 30.9792 151.115 30.0548 151.451 29.1934C151.808 28.311 152.081 27.6177 152.27 27.1135C152.543 26.3781 152.88 25.5273 153.279 24.5609C153.678 23.5944 154.14 22.6175 154.665 21.6301C155.191 20.6216 155.779 19.6972 156.43 18.8569C157.102 18.0165 157.838 17.3337 158.636 16.8085C159.455 16.2832 160.348 16.0206 161.315 16.0206C162.365 16.0206 163.059 16.2097 163.395 16.5879C163.752 16.966 163.93 17.3547 163.93 17.7539C163.93 17.922 163.867 18.027 163.741 18.069C163.636 18.111 163.584 18.0585 163.584 17.9115C163.584 17.4703 163.405 17.1131 163.048 16.84C162.712 16.5459 162.292 16.3988 161.787 16.3988C160.926 16.3988 160.107 16.7244 159.329 17.3757C158.552 18.027 157.827 18.8674 157.155 19.8968C156.483 20.9263 155.873 22.0187 155.327 23.1743C154.781 24.3087 154.298 25.3907 153.878 26.4202C153.478 27.4286 153.163 28.2375 152.932 28.8467C152.785 29.2459 152.585 29.7711 152.333 30.4224C152.081 31.0527 151.829 31.725 151.577 32.4393C151.346 33.1326 151.146 33.8049 150.978 34.4562C150.81 35.0864 150.726 35.6012 150.726 36.0003C150.726 36.1264 150.747 36.2735 150.789 36.4415C150.831 36.6096 150.936 36.6936 151.104 36.6936C151.209 36.6936 151.293 36.6726 151.356 36.6306C151.44 36.5886 151.525 36.5466 151.609 36.5046C152.092 36.2314 152.554 35.8638 152.995 35.4016C153.457 34.9184 153.878 34.4036 154.256 33.8574C154.634 33.2902 154.949 32.7754 155.201 32.3132C155.222 32.3342 155.233 32.3763 155.233 32.4393C155.233 32.6074 155.107 32.87 154.854 33.2271C154.623 33.5843 154.382 33.9309 154.13 34.2671C153.899 34.5822 153.772 34.7818 153.751 34.8658C153.73 35.0129 153.699 35.139 153.657 35.244C153.615 35.328 153.562 35.4436 153.499 35.5907C153.247 35.8428 152.922 36.1369 152.522 36.473C152.144 36.8092 151.745 37.1138 151.325 37.3869C150.905 37.6391 150.495 37.7651 150.096 37.7651Z" fill="white"/>
<path d="M159.915 24.2457C159.747 24.2457 159.484 24.1827 159.127 24.0566C158.791 23.9096 158.623 23.731 158.623 23.5209C158.623 23.4999 158.623 23.4894 158.623 23.4894C158.644 23.4684 158.654 23.4474 158.654 23.4264C158.759 23.2163 158.99 23.0902 159.348 23.0482C159.726 23.0062 160.009 22.9431 160.199 22.8591C160.619 22.691 161.028 22.5545 161.428 22.4494C161.827 22.3444 162.205 22.1553 162.562 21.8822C162.646 21.9242 162.688 21.9662 162.688 22.0082C162.688 22.0923 162.594 22.2078 162.404 22.3549C162.236 22.502 162.121 22.628 162.058 22.7331C161.974 22.8591 161.785 23.0482 161.491 23.3003C161.217 23.5314 160.923 23.752 160.608 23.9621C160.293 24.1512 160.062 24.2457 159.915 24.2457ZM154.589 37.8912C154.253 37.8912 154.022 37.8071 153.896 37.6391C153.77 37.471 153.707 37.2294 153.707 36.9142C153.707 36.2209 153.843 35.3806 154.116 34.3931C154.41 33.4057 154.736 32.4078 155.093 31.3993C155.45 30.3699 155.734 29.456 155.944 28.6576C156.028 28.3635 156.228 28.1639 156.543 28.0589C156.879 27.9328 157.163 27.7858 157.394 27.6177C157.73 27.3866 158.087 27.1975 158.465 27.0504C158.843 26.8824 159.243 26.7983 159.663 26.7983C159.768 26.7983 159.831 26.8193 159.852 26.8614C159.894 26.9034 159.915 26.9349 159.915 26.9559C159.915 27.082 159.841 27.145 159.694 27.145C159.4 27.145 159.096 27.3236 158.78 27.6807C158.465 28.0169 158.15 28.4581 157.835 29.0043C157.52 29.5505 157.236 30.1178 156.984 30.706C156.732 31.2943 156.511 31.8405 156.322 32.3447C156.133 32.828 156.007 33.1851 155.944 33.4162C155.839 33.7524 155.734 34.1515 155.629 34.6137C155.524 35.0549 155.471 35.4646 155.471 35.8428C155.471 35.9898 155.492 36.1684 155.534 36.3785C155.576 36.5676 155.703 36.6621 155.913 36.6621C156.06 36.6621 156.217 36.6096 156.385 36.5046C156.848 36.2314 157.299 35.8638 157.74 35.4016C158.203 34.9184 158.623 34.4036 159.001 33.8574C159.4 33.2902 159.715 32.7754 159.946 32.3132C159.988 32.3342 160.009 32.3763 160.009 32.4393C160.009 32.5653 159.936 32.7544 159.789 33.0065C159.642 33.2376 159.474 33.4897 159.285 33.7629C159.096 34.036 158.917 34.2776 158.749 34.4877C158.602 34.6978 158.528 34.8238 158.528 34.8658C158.507 35.0339 158.476 35.16 158.434 35.244C158.392 35.307 158.329 35.4226 158.245 35.5907C157.993 35.8428 157.656 36.1579 157.236 36.5361C156.816 36.8932 156.375 37.2084 155.913 37.4815C155.45 37.7546 155.009 37.8912 154.589 37.8912Z" fill="white"/>
<path d="M159.58 37.7966C159.349 37.7966 159.149 37.6916 158.981 37.4815C158.834 37.2714 158.718 37.0298 158.634 36.7567C158.571 36.4836 158.54 36.2525 158.54 36.0634C158.54 35.139 158.729 34.1515 159.107 33.1011C159.506 32.0296 160.01 31.0107 160.62 30.0442C161.229 29.0568 161.859 28.2585 162.511 27.6492C162.889 27.292 163.319 27.0294 163.803 26.8614C164.307 26.6933 164.811 26.6092 165.315 26.6092C165.651 26.6092 166.009 26.6513 166.387 26.7353C166.786 26.8193 167.122 26.9664 167.395 27.1765C167.395 27.1975 167.395 27.2185 167.395 27.2395C167.416 27.2395 167.427 27.25 167.427 27.271C167.427 27.3131 167.416 27.3341 167.395 27.3341H167.364L167.143 27.271C167.206 27.4601 167.238 27.6492 167.238 27.8383C167.238 28.0274 167.185 28.311 167.08 28.6892C166.975 29.0463 166.849 29.393 166.702 29.7291C166.555 30.0653 166.397 30.2859 166.229 30.3909C166.229 30.3909 166.208 30.3909 166.166 30.3909C166.103 30.3909 166.072 30.3384 166.072 30.2333C166.072 30.1913 166.093 30.1493 166.135 30.1073C166.177 30.0653 166.208 30.0232 166.229 29.9812C166.334 29.7501 166.408 29.519 166.45 29.2879C166.513 29.0568 166.544 28.8257 166.544 28.5946C166.544 28.2375 166.46 27.9013 166.292 27.5862C166.124 27.271 165.83 27.1135 165.41 27.1135C165.032 27.1135 164.633 27.2815 164.212 27.6177C163.792 27.9538 163.456 28.2585 163.204 28.5316C162.784 29.0148 162.353 29.6766 161.912 30.517C161.492 31.3363 161.134 32.1872 160.84 33.0696C160.546 33.9519 160.399 34.7188 160.399 35.3701C160.399 35.6642 160.452 35.9478 160.557 36.2209C160.683 36.473 160.924 36.5991 161.282 36.5991C161.807 36.5991 162.364 36.4205 162.952 36.0634C163.54 35.6852 164.128 35.2335 164.717 34.7083C165.305 34.162 165.841 33.6263 166.324 33.1011C166.828 32.5548 167.238 32.1031 167.553 31.746C167.889 31.3678 168.078 31.1787 168.12 31.1787C168.183 31.1787 168.215 31.2313 168.215 31.3363C168.215 31.3783 168.204 31.4203 168.183 31.4624C168.183 31.5044 168.173 31.5464 168.152 31.5884C167.626 32.2817 167.059 32.996 166.45 33.7314C165.862 34.4457 165.21 35.118 164.496 35.7482C163.803 36.3575 163.046 36.8512 162.227 37.2294C161.408 37.6075 160.525 37.7966 159.58 37.7966Z" fill="white"/>
<path d="M165.502 38.2063C165.481 38.2063 165.471 38.1958 165.471 38.1748C165.471 38.0908 165.513 38.0067 165.597 37.9227C165.66 37.8597 165.702 37.7966 165.723 37.7336C165.891 37.4605 166.069 37.1033 166.259 36.6621C166.448 36.1999 166.626 35.7272 166.794 35.244C166.962 34.7608 167.099 34.3721 167.204 34.078C167.645 32.8385 168.076 31.5884 168.496 30.3279C168.916 29.0463 169.357 27.7858 169.82 26.5462C170.093 25.8109 170.408 24.981 170.765 24.0566C171.143 23.1322 171.574 22.1973 172.057 21.2519C172.561 20.3065 173.128 19.4451 173.759 18.6678C174.389 17.8694 175.093 17.2287 175.87 16.7454C176.648 16.2622 177.519 16.0206 178.486 16.0206C178.717 16.0206 178.969 16.0626 179.242 16.1467C179.536 16.2307 179.746 16.3778 179.872 16.5879C179.956 16.6719 179.998 16.7665 179.998 16.8715C179.998 16.9555 179.967 16.9976 179.904 16.9976C179.757 16.9345 179.62 16.819 179.494 16.6509C179.368 16.4828 179.179 16.3988 178.927 16.3988C178.507 16.3988 178.045 16.5669 177.54 16.903C177.036 17.2182 176.563 17.5963 176.122 18.0375C175.702 18.4787 175.366 18.8674 175.114 19.2035C174.4 20.1699 173.717 21.2939 173.065 22.5755C172.435 23.857 171.847 25.1701 171.301 26.5147C170.775 27.8593 170.303 29.1093 169.883 30.2648C170.093 29.9707 170.376 29.6346 170.733 29.2564C171.112 28.8572 171.521 28.4686 171.962 28.0904C172.404 27.7122 172.845 27.3971 173.286 27.145C173.748 26.8929 174.158 26.7668 174.515 26.7668C174.914 26.7668 175.24 26.8929 175.492 27.145C175.744 27.3971 175.87 27.7227 175.87 28.1219C175.87 28.7732 175.671 29.3299 175.271 29.7921C174.872 30.2333 174.358 30.5905 173.727 30.8636C173.118 31.1367 172.477 31.3363 171.805 31.4624C171.154 31.5884 170.576 31.662 170.072 31.683C170.219 32.1452 170.439 32.7019 170.733 33.3532C171.028 33.9835 171.385 34.6137 171.805 35.244C172.246 35.8533 172.719 36.368 173.223 36.7882C173.727 37.1874 174.252 37.3869 174.799 37.3869C175.45 37.3869 175.944 37.1874 176.28 36.7882C176.637 36.389 176.984 35.9583 177.32 35.4961C177.341 35.4961 177.351 35.5276 177.351 35.5907C177.351 35.6747 177.33 35.7587 177.288 35.8428C177.246 35.9268 177.204 36.0003 177.162 36.0634C177.078 36.2104 176.994 36.368 176.91 36.5361C176.847 36.6831 176.763 36.8302 176.658 36.9773C176.385 37.3344 176.038 37.597 175.618 37.7651C175.219 37.9332 174.799 38.0172 174.358 38.0172C173.412 38.0172 172.582 37.7651 171.868 37.2609C171.175 36.7357 170.586 36.0739 170.103 35.2755C169.641 34.4772 169.263 33.6788 168.969 32.8805C168.822 33.3427 168.675 33.8154 168.527 34.2986C168.38 34.7608 168.233 35.2335 168.086 35.7167C168.065 35.8008 168.034 35.8953 167.992 36.0003C167.971 36.1054 167.95 36.2104 167.929 36.3155C167.908 36.3575 167.897 36.3995 167.897 36.4415C167.876 36.6096 167.845 36.7357 167.803 36.8197C167.782 36.8827 167.687 36.9668 167.519 37.0718C167.477 37.0928 167.288 37.1979 166.952 37.3869C166.616 37.576 166.301 37.7546 166.006 37.9227C165.691 38.1118 165.523 38.2063 165.502 38.2063ZM170.639 31.1157C171.206 31.1157 171.752 31.0107 172.278 30.8006C172.803 30.5695 173.234 30.2438 173.57 29.8236C173.906 29.3825 174.074 28.8572 174.074 28.248C174.074 28.1429 174.053 28.0274 174.011 27.9013C173.99 27.7542 173.895 27.6807 173.727 27.6807C173.223 27.6807 172.719 27.8908 172.215 28.311C171.731 28.7312 171.269 29.2039 170.828 29.7291C170.387 30.2543 170.009 30.685 169.694 31.0212C169.988 31.0842 170.303 31.1157 170.639 31.1157Z" fill="white"/>
</svg>
