<svg width="169" height="46" viewBox="0 0 169 46" fill="none" xmlns="http://www.w3.org/2000/svg">
<path d="M111.15 44.0678C110.73 44.0678 110.351 43.9721 110.011 43.7808C109.672 43.5832 109.4 43.3024 109.197 42.9382C108.999 42.5679 108.9 42.1173 108.9 41.5864C108.9 41.0556 108.999 40.6081 109.197 40.2439C109.394 39.8735 109.663 39.5927 110.002 39.4013C110.342 39.21 110.724 39.1143 111.15 39.1143C111.613 39.1143 112.027 39.2193 112.391 39.4291C112.761 39.6328 113.051 39.9229 113.261 40.2994C113.471 40.6698 113.576 41.0988 113.576 41.5864C113.576 42.0802 113.471 42.5123 113.261 42.8827C113.051 43.253 112.761 43.5431 112.391 43.753C112.027 43.9628 111.613 44.0678 111.15 44.0678ZM108.641 45.8177V39.1606H109.271V40.6235L109.206 41.5957L109.298 42.5771V45.8177H108.641ZM111.104 43.4845C111.449 43.4845 111.758 43.4073 112.03 43.253C112.301 43.0925 112.517 42.8703 112.678 42.5864C112.838 42.2963 112.919 41.9629 112.919 41.5864C112.919 41.2099 112.838 40.8797 112.678 40.5957C112.517 40.3118 112.301 40.0896 112.03 39.9291C111.758 39.7686 111.449 39.6884 111.104 39.6884C110.758 39.6884 110.446 39.7686 110.169 39.9291C109.897 40.0896 109.681 40.3118 109.521 40.5957C109.366 40.8797 109.289 41.2099 109.289 41.5864C109.289 41.9629 109.366 42.2963 109.521 42.5864C109.681 42.8703 109.897 43.0925 110.169 43.253C110.446 43.4073 110.758 43.4845 111.104 43.4845ZM117.397 39.1143C117.792 39.1143 118.138 39.1915 118.434 39.3458C118.737 39.4939 118.971 39.7223 119.138 40.0309C119.311 40.3396 119.397 40.7284 119.397 41.1975V44.0215H118.74V41.2624C118.74 40.75 118.61 40.3643 118.351 40.105C118.098 39.8396 117.74 39.7069 117.277 39.7069C116.931 39.7069 116.629 39.7779 116.37 39.9198C116.117 40.0556 115.919 40.2562 115.777 40.5217C115.641 40.7809 115.573 41.0957 115.573 41.4661V44.0215H114.916V37.1515H115.573V40.4939L115.444 40.2439C115.598 39.8921 115.845 39.6174 116.184 39.4199C116.524 39.2162 116.928 39.1143 117.397 39.1143ZM123.154 44.0678C122.685 44.0678 122.262 43.9628 121.886 43.753C121.515 43.5369 121.222 43.2437 121.006 42.8734C120.79 42.4969 120.682 42.0679 120.682 41.5864C120.682 41.0988 120.79 40.6698 121.006 40.2994C121.222 39.9291 121.515 39.639 121.886 39.4291C122.256 39.2193 122.679 39.1143 123.154 39.1143C123.636 39.1143 124.062 39.2193 124.432 39.4291C124.809 39.639 125.102 39.9291 125.312 40.2994C125.528 40.6698 125.636 41.0988 125.636 41.5864C125.636 42.0679 125.528 42.4969 125.312 42.8734C125.102 43.2437 124.809 43.5369 124.432 43.753C124.055 43.9628 123.63 44.0678 123.154 44.0678ZM123.154 43.4845C123.506 43.4845 123.818 43.4073 124.089 43.253C124.361 43.0925 124.574 42.8703 124.728 42.5864C124.889 42.2963 124.969 41.9629 124.969 41.5864C124.969 41.2037 124.889 40.8704 124.728 40.5865C124.574 40.3025 124.361 40.0834 124.089 39.9291C123.818 39.7686 123.509 39.6884 123.164 39.6884C122.818 39.6884 122.509 39.7686 122.238 39.9291C121.966 40.0834 121.75 40.3025 121.59 40.5865C121.429 40.8704 121.349 41.2037 121.349 41.5864C121.349 41.9629 121.429 42.2963 121.59 42.5864C121.75 42.8703 121.966 43.0925 122.238 43.253C122.509 43.4073 122.815 43.4845 123.154 43.4845ZM128.515 44.0678C128.058 44.0678 127.706 43.9443 127.459 43.6974C127.212 43.4505 127.089 43.1018 127.089 42.6512V38.0866H127.746V42.6141C127.746 42.8981 127.817 43.1172 127.959 43.2715C128.107 43.4258 128.317 43.503 128.589 43.503C128.879 43.503 129.12 43.4197 129.311 43.253L129.542 43.7252C129.413 43.8425 129.255 43.9289 129.07 43.9844C128.891 44.04 128.706 44.0678 128.515 44.0678ZM126.219 39.7069V39.1606H129.228V39.7069H126.219ZM132.549 44.0678C132.08 44.0678 131.657 43.9628 131.28 43.753C130.91 43.5369 130.617 43.2437 130.401 42.8734C130.185 42.4969 130.077 42.0679 130.077 41.5864C130.077 41.0988 130.185 40.6698 130.401 40.2994C130.617 39.9291 130.91 39.639 131.28 39.4291C131.651 39.2193 132.073 39.1143 132.549 39.1143C133.03 39.1143 133.456 39.2193 133.826 39.4291C134.203 39.639 134.496 39.9291 134.706 40.2994C134.922 40.6698 135.03 41.0988 135.03 41.5864C135.03 42.0679 134.922 42.4969 134.706 42.8734C134.496 43.2437 134.203 43.5369 133.826 43.753C133.45 43.9628 133.024 44.0678 132.549 44.0678ZM132.549 43.4845C132.901 43.4845 133.212 43.4073 133.484 43.253C133.755 43.0925 133.968 42.8703 134.123 42.5864C134.283 42.2963 134.363 41.9629 134.363 41.5864C134.363 41.2037 134.283 40.8704 134.123 40.5865C133.968 40.3025 133.755 40.0834 133.484 39.9291C133.212 39.7686 132.904 39.6884 132.558 39.6884C132.212 39.6884 131.904 39.7686 131.632 39.9291C131.361 40.0834 131.144 40.3025 130.984 40.5865C130.824 40.8704 130.743 41.2037 130.743 41.5864C130.743 41.9629 130.824 42.2963 130.984 42.5864C131.144 42.8703 131.361 43.0925 131.632 43.253C131.904 43.4073 132.209 43.4845 132.549 43.4845ZM138.446 45.864C138.002 45.864 137.576 45.7992 137.168 45.6696C136.761 45.5399 136.431 45.3548 136.178 45.114L136.511 44.614C136.739 44.8177 137.02 44.9782 137.354 45.0955C137.693 45.219 138.051 45.2807 138.428 45.2807C139.045 45.2807 139.499 45.1356 139.789 44.8455C140.079 44.5616 140.224 44.1172 140.224 43.5123V42.2993L140.316 41.4661L140.252 40.6328V39.1606H140.881V43.4289C140.881 44.2684 140.674 44.8826 140.261 45.2714C139.854 45.6665 139.249 45.864 138.446 45.864ZM138.326 43.8363C137.863 43.8363 137.446 43.7375 137.076 43.54C136.706 43.3363 136.412 43.0555 136.196 42.6975C135.986 42.3395 135.881 41.929 135.881 41.4661C135.881 41.0031 135.986 40.5957 136.196 40.2439C136.412 39.8859 136.706 39.6081 137.076 39.4106C137.446 39.2131 137.863 39.1143 138.326 39.1143C138.758 39.1143 139.147 39.2038 139.492 39.3828C139.838 39.5618 140.113 39.8272 140.316 40.1791C140.52 40.5309 140.622 40.9599 140.622 41.4661C140.622 41.9722 140.52 42.4012 140.316 42.753C140.113 43.1049 139.838 43.3734 139.492 43.5585C139.147 43.7437 138.758 43.8363 138.326 43.8363ZM138.391 43.253C138.749 43.253 139.067 43.1789 139.344 43.0308C139.622 42.8765 139.841 42.6666 140.002 42.4012C140.162 42.1296 140.242 41.8179 140.242 41.4661C140.242 41.1142 140.162 40.8056 140.002 40.5402C139.841 40.2748 139.622 40.068 139.344 39.9198C139.067 39.7655 138.749 39.6884 138.391 39.6884C138.039 39.6884 137.721 39.7655 137.437 39.9198C137.159 40.068 136.94 40.2748 136.78 40.5402C136.625 40.8056 136.548 41.1142 136.548 41.4661C136.548 41.8179 136.625 42.1296 136.78 42.4012C136.94 42.6666 137.159 42.8765 137.437 43.0308C137.721 43.1789 138.039 43.253 138.391 43.253ZM142.71 44.0215V39.1606H143.34V40.4846L143.275 40.2532C143.411 39.8828 143.639 39.6019 143.96 39.4106C144.281 39.2131 144.68 39.1143 145.155 39.1143V39.7532C145.13 39.7532 145.105 39.7532 145.081 39.7532C145.056 39.747 145.031 39.7439 145.007 39.7439C144.494 39.7439 144.093 39.9013 143.803 40.2161C143.513 40.5247 143.368 40.9661 143.368 41.5401V44.0215H142.71ZM149.039 44.0215V42.9475L149.011 42.7715V40.9753C149.011 40.5618 148.894 40.2439 148.659 40.0217C148.431 39.7995 148.088 39.6884 147.631 39.6884C147.317 39.6884 147.017 39.7408 146.733 39.8458C146.449 39.9507 146.209 40.0896 146.011 40.2624L145.715 39.7717C145.962 39.5618 146.258 39.4013 146.604 39.2902C146.949 39.173 147.314 39.1143 147.696 39.1143C148.326 39.1143 148.81 39.2717 149.15 39.5865C149.496 39.8951 149.668 40.3673 149.668 41.0031V44.0215H149.039ZM147.363 44.0678C146.999 44.0678 146.681 44.0091 146.409 43.8919C146.144 43.7684 145.94 43.6018 145.798 43.3919C145.656 43.1758 145.585 42.9289 145.585 42.6512C145.585 42.3981 145.644 42.1697 145.761 41.966C145.885 41.7562 146.082 41.5895 146.354 41.4661C146.632 41.3364 147.002 41.2716 147.465 41.2716H149.141V41.7623H147.483C147.014 41.7623 146.687 41.8457 146.502 42.0123C146.323 42.179 146.233 42.3858 146.233 42.6327C146.233 42.9104 146.341 43.1326 146.557 43.2993C146.773 43.466 147.076 43.5493 147.465 43.5493C147.835 43.5493 148.153 43.466 148.418 43.2993C148.69 43.1265 148.888 42.8796 149.011 42.5586L149.159 43.0123C149.036 43.3332 148.82 43.5894 148.511 43.7808C148.209 43.9721 147.826 44.0678 147.363 44.0678ZM153.963 44.0678C153.543 44.0678 153.164 43.9721 152.824 43.7808C152.485 43.5832 152.213 43.3024 152.009 42.9382C151.812 42.5679 151.713 42.1173 151.713 41.5864C151.713 41.0556 151.812 40.6081 152.009 40.2439C152.207 39.8735 152.475 39.5927 152.815 39.4013C153.154 39.21 153.537 39.1143 153.963 39.1143C154.426 39.1143 154.84 39.2193 155.204 39.4291C155.574 39.6328 155.864 39.9229 156.074 40.2994C156.284 40.6698 156.389 41.0988 156.389 41.5864C156.389 42.0802 156.284 42.5123 156.074 42.8827C155.864 43.253 155.574 43.5431 155.204 43.753C154.84 43.9628 154.426 44.0678 153.963 44.0678ZM151.454 45.8177V39.1606H152.084V40.6235L152.019 41.5957L152.111 42.5771V45.8177H151.454ZM153.917 43.4845C154.262 43.4845 154.571 43.4073 154.843 43.253C155.114 43.0925 155.33 42.8703 155.491 42.5864C155.651 42.2963 155.731 41.9629 155.731 41.5864C155.731 41.2099 155.651 40.8797 155.491 40.5957C155.33 40.3118 155.114 40.0896 154.843 39.9291C154.571 39.7686 154.262 39.6884 153.917 39.6884C153.571 39.6884 153.259 39.7686 152.982 39.9291C152.71 40.0896 152.494 40.3118 152.334 40.5957C152.179 40.8797 152.102 41.2099 152.102 41.5864C152.102 41.9629 152.179 42.2963 152.334 42.5864C152.494 42.8703 152.71 43.0925 152.982 43.253C153.259 43.4073 153.571 43.4845 153.917 43.4845ZM160.21 39.1143C160.605 39.1143 160.951 39.1915 161.247 39.3458C161.55 39.4939 161.784 39.7223 161.951 40.0309C162.124 40.3396 162.21 40.7284 162.21 41.1975V44.0215H161.553V41.2624C161.553 40.75 161.423 40.3643 161.164 40.105C160.911 39.8396 160.553 39.7069 160.09 39.7069C159.744 39.7069 159.442 39.7779 159.183 39.9198C158.929 40.0556 158.732 40.2562 158.59 40.5217C158.454 40.7809 158.386 41.0957 158.386 41.4661V44.0215H157.729V37.1515H158.386V40.4939L158.257 40.2439C158.411 39.8921 158.658 39.6174 158.997 39.4199C159.337 39.2162 159.741 39.1143 160.21 39.1143ZM163.932 45.864C163.704 45.864 163.485 45.827 163.275 45.7529C163.071 45.6788 162.895 45.5677 162.747 45.4196L163.053 44.9288C163.176 45.0461 163.309 45.1356 163.451 45.1974C163.599 45.2653 163.763 45.2992 163.942 45.2992C164.158 45.2992 164.343 45.2375 164.497 45.114C164.658 44.9967 164.809 44.7869 164.951 44.4844L165.266 43.7715L165.34 43.6696L167.34 39.1606H167.988L165.553 44.6048C165.417 44.9196 165.266 45.1696 165.099 45.3548C164.939 45.5399 164.763 45.6696 164.571 45.7436C164.38 45.8239 164.167 45.864 163.932 45.864ZM165.229 44.1604L162.988 39.1606H163.673L165.655 43.6234L165.229 44.1604Z" fill="white"/>
<path fill-rule="evenodd" clip-rule="evenodd" d="M80.8638 2.68165C80.7006 2.84492 79.775 4.00792 78.8072 5.26593L77.0477 7.55338L72.5863 7.55559C67.8411 7.55781 66.8095 7.69267 65.543 8.47544C64.9432 8.84608 63.9741 9.91111 63.9741 10.1997C63.9741 10.2663 67.2119 10.3207 71.1691 10.3207C77.9137 10.3207 78.3853 10.2995 78.7041 9.98067C78.8911 9.7936 79.8174 8.63133 80.7629 7.39786L82.4818 5.15506L91.3537 5.16391L100.226 5.17295L102.065 7.57736C103.077 8.89995 104.046 10.0582 104.221 10.1513C104.395 10.2445 105.44 10.3207 106.545 10.3207C108.952 10.3207 110.023 10.6024 111.295 11.57C111.953 12.0709 112.395 12.6203 112.839 13.4905L113.461 14.7092L114.078 24.7372C114.418 30.2526 114.698 34.9935 114.702 35.2725C114.707 35.689 114.79 35.7798 115.169 35.7798C115.55 35.7798 115.63 35.6909 115.63 35.2725C115.629 34.9935 115.804 30.4481 116.019 25.1718C116.451 14.5592 116.437 14.2423 115.414 12.1655C114.615 10.5428 113.29 9.26025 111.492 8.37213C110.101 7.68418 109.934 7.6471 107.819 7.55633L105.603 7.46114L103.645 4.97057L101.686 2.48L91.4235 2.43241C82.196 2.38942 81.1308 2.4147 80.8638 2.68165ZM69.7771 5.05451C69.4639 5.36759 69.3242 5.71221 69.3242 6.17176C69.3242 6.82171 69.3333 6.83001 69.7343 6.54922C70.2992 6.1535 73.5217 6.14114 74.0395 6.5328C74.5736 6.93683 74.6419 6.88222 74.5504 6.12361C74.4987 5.69634 74.291 5.27313 74.0069 5.01669C73.6017 4.65104 73.349 4.6016 71.8884 4.6016C70.3736 4.6016 70.1908 4.64089 69.7771 5.05451ZM106.305 5.05451C105.992 5.36759 105.853 5.71221 105.853 6.17176C105.853 6.82171 105.862 6.83001 106.263 6.54922C106.568 6.3354 107.147 6.26198 108.528 6.26198C109.908 6.26198 110.488 6.3354 110.793 6.54922C111.189 6.82669 111.203 6.81783 111.203 6.28651C111.203 5.96421 111.005 5.50189 110.725 5.16926C110.254 4.60916 110.224 4.6016 108.503 4.6016C106.897 4.6016 106.722 4.63757 106.305 5.05451ZM89.0763 10.1526C87.3613 10.4889 85.2972 11.3154 83.992 12.1884C81.7745 13.6717 78.9531 16.5059 79.3245 16.8773C79.3605 16.9133 80.0931 16.3978 80.9524 15.732C84.6988 12.8301 86.2564 12.0364 89.0685 11.5977C92.2948 11.0942 96.265 11.996 98.9688 13.8464C101.027 15.2553 102.585 17.0434 103.692 19.2686C104.842 21.5815 105.017 22.4341 105.018 25.7253C105.019 28.485 104.986 28.7732 104.503 30.153C102.561 35.7021 97.7307 39.3948 91.9238 39.7695C88.9517 39.9614 85.414 38.9487 82.5537 37.0876C81.8221 36.6115 81.1275 36.1639 81.0101 36.0929C80.8673 36.0065 80.8282 36.0842 80.8921 36.3281C81.2907 37.8525 87.1032 40.7342 90.5854 41.134C92.1861 41.3177 94.6354 41.1039 96.2535 40.6392C101.743 39.0622 106.107 34.357 107.347 28.6771C107.746 26.8519 107.664 23.3991 107.181 21.7055C105.499 15.7968 100.906 11.4342 95.1139 10.2439C93.5914 9.93104 90.4485 9.88344 89.0763 10.1526ZM107.282 12.3626C106.342 12.8592 106.413 13.0509 107.501 12.9463C108.617 12.8391 109.537 13.3302 109.984 14.2718C110.35 15.0426 110.357 15.5001 110.015 16.3183C109.618 17.2668 108.748 17.737 107.554 17.6487C106.909 17.6011 106.601 17.6444 106.642 17.7767C106.761 18.1593 107.98 18.622 108.869 18.6222C111.725 18.6231 113.224 15.5927 111.537 13.2243C110.714 12.0681 108.637 11.6475 107.282 12.3626Z" fill="#A61010"/>
<path d="M16.0186 13.7286C16.3937 13.491 16.7876 13.1909 17.2003 12.8282C17.6254 12.4531 18.0443 12.0342 18.457 11.5715C18.8822 11.0963 19.2886 10.5899 19.6762 10.0522C20.0638 9.502 20.4015 8.9518 20.6891 8.40159C20.9892 7.83889 21.2268 7.28243 21.4018 6.73223C21.5769 6.16952 21.6644 5.63182 21.6644 5.11913C21.6644 4.73149 21.6332 4.41887 21.5706 4.18128C21.5081 3.94369 21.4206 3.76238 21.308 3.63733C21.208 3.49978 21.0892 3.40599 20.9517 3.35598C20.8141 3.30596 20.6703 3.28095 20.5203 3.28095C19.92 3.28095 19.2385 3.53729 18.4758 4.04998C17.713 4.55017 16.9064 5.23792 16.0561 6.11325C15.2183 6.97607 14.3555 7.98894 13.4676 9.15187C12.5923 10.3148 11.742 11.5653 10.9167 12.9033C10.0914 14.2288 9.30986 15.598 8.57209 17.011C7.84682 18.4241 7.20908 19.8183 6.65888 21.1938C6.12118 22.5693 5.68977 23.8886 5.36465 25.1515C5.05203 26.402 4.89572 27.5274 4.89572 28.5278C4.89572 28.9029 4.92073 29.2155 4.97075 29.4656C5.03328 29.7032 5.11456 29.8971 5.21459 30.0471C5.32713 30.1847 5.46469 30.2784 5.62725 30.3285C5.78981 30.3785 5.97738 30.4035 6.18995 30.4035C6.55259 30.4035 6.97775 30.2534 7.46543 29.9533C7.96561 29.6407 8.49081 29.2406 9.04101 28.7529C9.60372 28.2652 10.1664 27.7212 10.7291 27.121C11.3043 26.5208 11.842 25.9331 12.3422 25.3579C12.8424 24.7702 13.2926 24.2325 13.6927 23.7448C14.0929 23.2446 14.3992 22.8507 14.6118 22.5631C14.6118 22.5756 14.7619 22.7069 15.062 22.957C15.3746 23.2071 15.7372 23.5072 16.1499 23.8573C16.5625 24.2074 16.9752 24.5638 17.3878 24.9265C17.8005 25.2766 18.1131 25.5642 18.3257 25.7893C18.0256 26.1269 17.6442 26.5583 17.1815 27.0835C16.7189 27.6087 16.1937 28.1652 15.6059 28.7529C15.0307 29.3281 14.4117 29.9096 13.749 30.4973C13.0863 31.085 12.4048 31.6102 11.7045 32.0729C11.0042 32.548 10.2977 32.9294 9.58496 33.217C8.8722 33.5171 8.17819 33.6672 7.50294 33.6672C7.01526 33.6672 6.49632 33.5171 5.94611 33.217C5.39591 32.9294 4.85196 32.548 4.31426 32.0729C3.77656 31.6102 3.27638 31.0912 2.8137 30.516C2.35103 29.9533 1.96339 29.3906 1.65077 28.8279C1.27563 28.1276 1.0568 27.4837 0.994281 26.8959C0.931757 26.3082 0.900496 25.8393 0.900496 25.4892C0.900496 24.5263 1.03805 23.4384 1.31315 22.2255C1.58825 21.0125 1.98215 19.7495 2.49484 18.4366C3.00753 17.1111 3.6265 15.7668 4.35177 14.4038C5.07704 13.0408 5.87734 11.7216 6.75266 10.4461C7.64049 9.17063 8.59709 7.97018 9.62247 6.84477C10.6604 5.71935 11.742 4.73774 12.8674 3.89993C14.0053 3.06212 15.1745 2.40562 16.375 1.93045C17.5879 1.44277 18.8134 1.19893 20.0513 1.19893C20.4015 1.19893 20.7704 1.29271 21.158 1.48028C21.5456 1.65535 21.927 1.89293 22.3022 2.19305C22.6773 2.48065 23.0399 2.81828 23.3901 3.20592C23.7402 3.59356 24.0466 3.99371 24.3092 4.40637C24.5718 4.80651 24.7781 5.21291 24.9281 5.62557C25.0907 6.02571 25.172 6.3946 25.172 6.73223C25.172 7.4825 25.0219 8.31406 24.7218 9.2269C24.4217 10.1272 24.0153 11.0401 23.5026 11.9654C22.9899 12.8783 22.3772 13.7723 21.6644 14.6477C20.9642 15.523 20.2139 16.3045 19.4136 16.9923L16.0186 13.7286ZM31.887 28.9029C32.0745 28.9029 32.3246 28.8217 32.6372 28.6591C32.9499 28.4965 33.2937 28.2902 33.6689 28.0401C34.0565 27.79 34.4504 27.5149 34.8506 27.2148C35.2507 26.9022 35.6321 26.6021 35.9947 26.3145C36.3699 26.0144 36.7012 25.7455 36.9889 25.5079C37.2765 25.2578 37.4953 25.0703 37.6453 24.9452C37.7579 25.0578 37.8892 25.2016 38.0392 25.3766C38.2018 25.5517 38.3519 25.7143 38.4894 25.8643C38.2143 26.1394 37.8704 26.4708 37.4578 26.8584C37.0451 27.2336 36.6012 27.6212 36.126 28.0214C35.6509 28.4215 35.1569 28.8154 34.6442 29.203C34.1315 29.5907 33.6314 29.9408 33.1437 30.2534C32.656 30.566 32.1996 30.8161 31.7744 31.0037C31.3493 31.1913 30.9929 31.2851 30.7053 31.2851C30.4677 31.2851 30.1863 31.2225 29.8612 31.0975C29.5486 30.985 29.2422 30.8349 28.9421 30.6473C28.6545 30.4723 28.4044 30.2784 28.1918 30.0659C27.9918 29.8408 27.8917 29.6219 27.8917 29.4094C27.9042 28.8717 28.0043 28.2464 28.1918 27.5337C28.3794 26.8209 28.5982 26.0894 28.8483 25.3391C29.1109 24.5888 29.386 23.8511 29.6736 23.1258C29.9738 22.388 30.2489 21.7315 30.499 21.1563C30.3989 21.1813 30.2051 21.3189 29.9175 21.569C29.6299 21.8191 29.2798 22.1629 28.8671 22.6006C28.4669 23.0258 28.023 23.5447 27.5354 24.1574C27.0602 24.7576 26.585 25.4329 26.1098 26.1832C25.6472 26.9335 25.2032 27.7463 24.7781 28.6216C24.3529 29.4844 23.9965 30.3972 23.7089 31.3601C23.6714 31.4976 23.6152 31.5977 23.5401 31.6602C23.4776 31.7227 23.3651 31.754 23.2025 31.754C23.09 31.754 22.9149 31.6977 22.6773 31.5852C22.4397 31.4726 22.1896 31.3351 21.927 31.1725C21.6644 31.0225 21.4081 30.8599 21.158 30.6848C20.9079 30.5098 20.7078 30.3535 20.5578 30.2159C20.4827 30.1284 20.4202 30.0471 20.3702 29.9721C20.3202 29.8971 20.2952 29.7845 20.2952 29.6345C20.2952 28.8091 20.4327 27.7963 20.7078 26.5958C20.9829 25.3954 21.3643 24.0949 21.852 22.6944C22.3272 21.2814 22.8836 19.8121 23.5214 18.2865C24.1716 16.7484 24.8594 15.2416 25.5846 13.7661C26.3224 12.2905 27.0852 10.89 27.873 9.56452C28.6733 8.22653 29.4548 7.05109 30.2176 6.03822C30.9929 5.01284 31.7307 4.19379 32.4309 3.58106C33.1437 2.95583 33.7939 2.62446 34.3816 2.58694C34.6692 2.67447 34.9569 2.81202 35.2445 2.99959C35.5446 3.18716 35.8259 3.39349 36.0885 3.61857C36.3511 3.84366 36.5825 4.06249 36.7825 4.27507C36.9951 4.48765 37.1577 4.66896 37.2702 4.81902C37.3452 4.91905 37.3953 5.03785 37.4203 5.1754C37.4453 5.31295 37.4578 5.41299 37.4578 5.47551C37.4578 5.92568 37.3327 6.48213 37.0826 7.14488C36.8325 7.80762 36.4824 8.55165 36.0323 9.37695C35.5821 10.2023 35.0319 11.0901 34.3816 12.0404C33.7439 12.9783 33.0311 13.9474 32.2433 14.9478C31.4681 15.9356 30.624 16.936 29.7112 17.9489C28.8108 18.9618 27.8667 19.9434 26.8789 20.8937C26.6288 21.569 26.4037 22.2255 26.2036 22.8632C26.8789 22.1629 27.4978 21.5752 28.0605 21.1C28.6233 20.6249 29.1234 20.2497 29.5611 19.9746C29.9988 19.687 30.3677 19.4869 30.6678 19.3744C30.9804 19.2494 31.218 19.1868 31.3805 19.1868C31.4931 19.1868 31.6931 19.2619 31.9808 19.4119C32.2684 19.5495 32.5685 19.7183 32.8811 19.9184C33.1937 20.1184 33.4813 20.3248 33.7439 20.5373C34.0065 20.7499 34.1691 20.925 34.2316 21.0625C34.2566 21.1251 34.2566 21.2126 34.2316 21.3251C34.2066 21.4252 34.1816 21.5064 34.1566 21.569C34.044 21.9066 33.9065 22.3005 33.7439 22.7507C33.5938 23.1883 33.425 23.6572 33.2375 24.1574C33.0624 24.6451 32.8873 25.139 32.7123 25.6392C32.5372 26.1394 32.3809 26.6021 32.2433 27.0272C32.1058 27.4399 31.9933 27.8088 31.9057 28.1339C31.8182 28.4465 31.7744 28.6653 31.7744 28.7904C31.7744 28.8654 31.8119 28.9029 31.887 28.9029ZM30.2364 12.772C29.9362 13.4097 29.6424 14.0474 29.3548 14.6852C29.0797 15.3104 28.8108 15.9419 28.5482 16.5796C29.386 15.5042 30.1988 14.4163 30.9866 13.3159C31.7744 12.203 32.4747 11.1401 33.0874 10.1272C33.7126 9.10185 34.2128 8.15775 34.588 7.29493C34.9631 6.43211 35.1507 5.70685 35.1507 5.11913C35.1507 4.84403 35.1007 4.70648 35.0006 4.70648C34.8506 4.70648 34.6192 4.9128 34.3066 5.32546C34.0065 5.7256 33.6439 6.28206 33.2187 6.99482C32.7936 7.70759 32.3246 8.5579 31.8119 9.54577C31.3118 10.5336 30.7866 11.609 30.2364 12.772ZM46.0672 22.7131C45.9047 23.2008 45.6983 23.7573 45.4482 24.3825C45.2106 25.0077 44.9793 25.6205 44.7542 26.2207C44.5291 26.8209 44.3353 27.3649 44.1728 27.8525C44.0227 28.3402 43.9477 28.6904 43.9477 28.9029C43.9477 28.978 43.9852 29.0155 44.0602 29.0155C44.1978 29.0155 44.4041 28.9342 44.6792 28.7716C44.9543 28.6091 45.2669 28.3965 45.617 28.1339C45.9797 27.8713 46.3548 27.5837 46.7425 27.2711C47.1301 26.9585 47.499 26.6521 47.8491 26.352C48.2118 26.0394 48.5369 25.758 48.8245 25.5079C49.1121 25.2578 49.3309 25.0703 49.481 24.9452C49.5935 25.0578 49.7248 25.2016 49.8749 25.3766C50.0374 25.5517 50.1875 25.7143 50.325 25.8643C50.0499 26.1394 49.7061 26.477 49.2934 26.8772C48.8808 27.2648 48.4306 27.665 47.9429 28.0776C47.4677 28.4903 46.9675 28.9029 46.4424 29.3156C45.9297 29.7282 45.4232 30.0971 44.923 30.4222C44.4354 30.7474 43.9789 31.01 43.5538 31.21C43.1286 31.4101 42.7722 31.5101 42.4846 31.5101C42.2971 31.5101 42.0595 31.4414 41.7719 31.3038C41.4843 31.1788 41.2092 31.0162 40.9466 30.8161C40.684 30.6286 40.4589 30.416 40.2713 30.1784C40.0838 29.9408 39.99 29.7095 39.99 29.4844C40.1775 28.6466 40.3651 27.9151 40.5527 27.2898C40.7402 26.6646 40.9153 26.1332 41.0779 25.6955C41.2404 25.2453 41.3842 24.8827 41.5093 24.6076C41.6343 24.3325 41.7281 24.1262 41.7906 23.9886C41.6406 23.9261 41.4968 23.8573 41.3592 23.7823C41.2217 23.7073 41.0841 23.6322 40.9466 23.5572C40.7465 23.7698 40.5214 23.9949 40.2713 24.2325C40.0337 24.47 39.7899 24.7076 39.5398 24.9452C39.2897 25.1828 39.0396 25.4141 38.7895 25.6392C38.5394 25.8643 38.3143 26.0706 38.1143 26.2582L37.2139 25.3391C37.5391 25.0265 37.933 24.6514 38.3956 24.2137C38.8458 23.7635 39.2897 23.3134 39.7274 22.8632C39.4148 22.6756 39.1334 22.5006 38.8833 22.338C38.6332 22.1629 38.4206 22.0066 38.2456 21.8691C38.033 21.719 37.8454 21.5815 37.6829 21.4564C37.6078 21.4189 37.5703 21.3376 37.5703 21.2126C37.5703 21.075 37.6266 20.8812 37.7391 20.6311C37.8392 20.3685 37.9705 20.0934 38.133 19.8058C38.2956 19.5057 38.4707 19.2056 38.6582 18.9055C38.8458 18.5929 39.0271 18.3115 39.2022 18.0614C39.3772 17.8113 39.5273 17.6113 39.6523 17.4612C39.7899 17.2986 39.8774 17.2174 39.9149 17.2174C39.9399 17.2174 40.0212 17.2486 40.1588 17.3111C40.3088 17.3737 40.4651 17.4487 40.6277 17.5362C40.7903 17.6113 40.9403 17.6988 41.0779 17.7988C41.2154 17.8989 41.303 17.9864 41.3405 18.0614C41.353 18.1239 41.3655 18.2552 41.378 18.4553C41.3905 18.6554 41.403 18.8992 41.4155 19.1868C41.9032 19.4369 42.4034 19.7245 42.916 20.0497C43.4287 20.3623 43.8977 20.6624 44.3228 20.95C44.823 21.2751 45.2982 21.6065 45.7483 21.9441C45.9109 22.0441 46.0109 22.1692 46.0485 22.3192C46.0985 22.4693 46.1047 22.6006 46.0672 22.7131ZM51.7318 28.5653C51.7318 28.9404 51.8694 29.128 52.1445 29.128C52.4321 29.128 52.8135 28.9029 53.2886 28.4528C53.7638 27.9901 54.2577 27.4086 54.7704 26.7084C54.7454 26.5708 54.7267 26.452 54.7142 26.352C54.7142 26.2394 54.7142 26.1394 54.7142 26.0519C54.7142 25.8018 54.7392 25.5079 54.7892 25.1703C54.8517 24.8202 54.9955 24.4263 55.2206 23.9886C55.3707 23.651 55.552 23.3196 55.7646 22.9945C55.9396 22.7069 56.1522 22.4005 56.4023 22.0754C56.6524 21.7378 56.9275 21.4252 57.2276 21.1376L57.3401 21.025C57.4652 21.1751 57.6277 21.3814 57.8278 21.644C58.0404 21.8941 58.2467 22.1567 58.4468 22.4318C58.6594 22.6944 58.8407 22.9382 58.9908 23.1633C59.1533 23.3884 59.2533 23.5447 59.2909 23.6322C59.2909 24.1699 59.1908 24.7076 58.9908 25.2453C58.8032 25.783 58.5468 26.3145 58.2217 26.8397C58.972 26.7897 59.666 26.6021 60.3037 26.277C60.954 25.9393 61.6292 25.3954 62.3295 24.6451C62.442 24.7576 62.5858 24.914 62.7609 25.114C62.9485 25.3016 63.0985 25.4642 63.2111 25.6017C62.6859 26.1519 62.1669 26.6083 61.6542 26.971C61.1541 27.3336 60.6476 27.6212 60.1349 27.8338C59.6347 28.0464 59.122 28.2027 58.5969 28.3027C58.0717 28.3902 57.534 28.434 56.9838 28.434C56.5586 28.8842 56.1022 29.2968 55.6145 29.672C55.1268 30.0471 54.6266 30.3722 54.1139 30.6473C53.6138 30.9224 53.1136 31.135 52.6134 31.2851C52.1132 31.4351 51.638 31.5101 51.1879 31.5101C50.8127 31.5101 50.4251 31.3976 50.0249 31.1725C49.6248 30.9474 49.2621 30.6723 48.937 30.3472C48.6119 30.0096 48.3431 29.6532 48.1305 29.2781C47.9179 28.9029 47.8116 28.5716 47.8116 28.284C47.8116 27.3336 47.9429 26.3895 48.2055 25.4517C48.4556 24.5138 48.8557 23.6385 49.406 22.8257C49.9437 22.0004 50.6314 21.2751 51.4692 20.6499C52.3195 20.0246 53.3262 19.5495 54.4891 19.2243C54.5266 19.1993 54.5891 19.1806 54.6767 19.1681C54.7767 19.1556 54.858 19.1493 54.9205 19.1493C55.0956 19.1493 55.2769 19.2181 55.4644 19.3556C55.6645 19.4807 55.8458 19.6245 56.0084 19.7871C56.1835 19.9496 56.3273 20.1122 56.4398 20.2747C56.5523 20.4248 56.6086 20.5248 56.6086 20.5748C56.5836 20.6374 56.4898 20.7187 56.3273 20.8187C56.1647 20.9062 55.9459 21.0625 55.6708 21.2876C55.3957 21.5127 55.0705 21.8378 54.6954 22.263C54.3203 22.6756 53.9076 23.2258 53.4575 23.9136C52.7822 24.9265 52.3258 25.8456 52.0882 26.6709C51.8506 27.4837 51.7318 28.1151 51.7318 28.5653ZM67.1313 21.4189C66.9812 21.8066 66.8312 22.2067 66.6811 22.6194C66.531 23.032 66.3872 23.4509 66.2497 23.8761C67.0375 22.9382 67.6877 22.1879 68.2004 21.6252C68.7256 21.0625 69.157 20.6249 69.4946 20.3123C69.8448 19.9996 70.1324 19.7808 70.3575 19.6558C70.5825 19.5307 70.7889 19.4369 70.9764 19.3744C71.089 19.3744 71.2765 19.4369 71.5391 19.562C71.8142 19.687 72.1019 19.8433 72.402 20.0309C72.7146 20.206 73.0084 20.3935 73.2835 20.5936C73.5586 20.7812 73.7525 20.9375 73.865 21.0625C73.965 21.1626 73.9775 21.3064 73.9025 21.4939C73.7525 21.8941 73.6024 22.3005 73.4524 22.7131C73.3148 23.1133 73.1772 23.5259 73.0397 23.9511C73.8775 22.9882 74.5778 22.2192 75.1405 21.644C75.7032 21.0563 76.1596 20.6061 76.5097 20.2935C76.8724 19.9809 77.1537 19.7746 77.3538 19.6745C77.5539 19.5745 77.7102 19.5245 77.8227 19.5245C77.9853 19.5245 78.2291 19.6057 78.5542 19.7683C78.8794 19.9309 79.2045 20.1309 79.5296 20.3685C79.8672 20.6061 80.1548 20.85 80.3924 21.1C80.6425 21.3501 80.7676 21.569 80.7676 21.7565C80.7676 21.7941 80.7613 21.8441 80.7488 21.9066C80.7363 21.9566 80.7175 22.0254 80.6925 22.1129C80.5925 22.4255 80.4612 22.7944 80.2986 23.2196C80.1486 23.6447 79.986 24.0887 79.811 24.5513C79.6359 25.0015 79.4608 25.4579 79.2858 25.9206C79.1107 26.3707 78.9544 26.7959 78.8168 27.1961C78.6793 27.5962 78.5667 27.9463 78.4792 28.2464C78.3917 28.5466 78.3479 28.7654 78.3479 28.9029C78.3479 28.978 78.3854 29.0155 78.4605 29.0155C78.598 29.0155 78.8043 28.9342 79.0794 28.7716C79.3545 28.6091 79.6672 28.3965 80.0173 28.1339C80.3799 27.8713 80.7551 27.5837 81.1427 27.2711C81.5303 26.9585 81.8992 26.6521 82.2494 26.352C82.612 26.0394 82.9371 25.758 83.2247 25.5079C83.5123 25.2578 83.7312 25.0703 83.8812 24.9452C83.9938 25.0578 84.1251 25.2016 84.2751 25.3766C84.4377 25.5517 84.5877 25.7143 84.7253 25.8643C84.4502 26.1394 84.1063 26.477 83.6936 26.8772C83.281 27.2648 82.8308 27.665 82.3431 28.0776C81.868 28.4903 81.3678 28.9029 80.8426 29.3156C80.3299 29.7282 79.8297 30.0971 79.342 30.4222C78.8544 30.7474 78.3979 31.01 77.9728 31.21C77.5476 31.4101 77.185 31.5101 76.8849 31.5101C76.6973 31.5101 76.4597 31.4414 76.1721 31.3038C75.8845 31.1788 75.6094 31.0162 75.3468 30.8161C75.0842 30.6286 74.8591 30.416 74.6716 30.1784C74.484 29.9408 74.3902 29.7095 74.3902 29.4844C74.5027 28.9717 74.6528 28.3902 74.8404 27.74C75.0279 27.0898 75.2343 26.427 75.4593 25.7518C75.6844 25.064 75.9158 24.3888 76.1534 23.726C76.4034 23.0633 76.641 22.4505 76.8661 21.8878C76.616 22.1879 76.2846 22.5506 75.872 22.9757C75.4593 23.4009 74.9904 23.9636 74.4652 24.6639C73.94 25.3516 73.3773 26.2082 72.7771 27.2336C72.1769 28.2589 71.5767 29.5094 70.9764 30.985C70.9014 31.235 70.7201 31.3601 70.4325 31.3601C70.2824 31.3601 70.0949 31.3288 69.8698 31.2663C69.6572 31.2163 69.4259 31.1288 69.1758 31.0037C68.9382 30.8912 68.6881 30.7474 68.4255 30.5723C68.1754 30.3972 67.9378 30.1847 67.7127 29.9346C67.7127 29.847 67.7565 29.5844 67.844 29.1468C67.9441 28.6966 68.0816 28.1276 68.2567 27.4399C68.4442 26.7521 68.6631 25.9831 68.9132 25.1328C69.1633 24.2825 69.4446 23.4071 69.7572 22.5068C69.4571 22.8319 69.082 23.2508 68.6318 23.7635C68.1817 24.2637 67.7002 24.8764 67.1875 25.6017C66.6748 26.3145 66.1496 27.146 65.6119 28.0964C65.0743 29.0467 64.5678 30.1221 64.0926 31.3226C64.0176 31.5852 63.8425 31.7165 63.5674 31.7165C63.3549 31.7165 63.1173 31.654 62.8547 31.5289C62.5796 31.4164 62.3045 31.2601 62.0294 31.06C61.7418 30.8724 61.4604 30.6598 61.1853 30.4222C60.8977 30.1847 60.6414 29.9471 60.4163 29.7095C60.4163 29.6345 60.4538 29.4219 60.5288 29.0717C60.5913 28.7216 60.6851 28.284 60.8102 27.7588C60.9352 27.2211 61.0915 26.6146 61.2791 25.9393C61.4542 25.2516 61.6605 24.5326 61.8981 23.7823C62.1357 23.032 62.3983 22.2692 62.6859 21.4939C62.9735 20.7061 63.2798 19.9496 63.605 19.2243C64.1302 19.4744 64.7116 19.7808 65.3494 20.1434C65.9996 20.5061 66.5936 20.9312 67.1313 21.4189ZM94.4226 28.8279C94.4226 28.9029 94.4601 28.9404 94.5352 28.9404C94.6477 28.9404 94.8353 28.8592 95.0979 28.6966C95.3605 28.534 95.6606 28.3277 95.9982 28.0776C96.3358 27.8275 96.6922 27.5462 97.0673 27.2336C97.455 26.9209 97.8239 26.6146 98.174 26.3145C98.5241 26.0144 98.8368 25.7393 99.1119 25.4892C99.3995 25.2391 99.6183 25.0453 99.7683 24.9077C99.8809 25.0202 100.018 25.1703 100.181 25.3579C100.356 25.5454 100.512 25.7143 100.65 25.8643C100.35 26.1394 99.9872 26.477 99.562 26.8772C99.1494 27.2648 98.6992 27.6712 98.2115 28.0964C97.7363 28.5215 97.2424 28.9467 96.7297 29.3719C96.217 29.7845 95.7168 30.1534 95.2292 30.4785C94.7415 30.8036 94.2788 31.0662 93.8412 31.2663C93.4035 31.4789 93.0221 31.5852 92.697 31.5852C92.4719 31.5852 92.2218 31.5414 91.9467 31.4539C91.6841 31.3663 91.4403 31.2413 91.2152 31.0787C90.9901 30.9287 90.8025 30.7474 90.6525 30.5348C90.5024 30.3222 90.4274 30.0846 90.4274 29.822C90.4274 29.722 90.4211 29.6032 90.4086 29.4656C90.4086 29.3156 90.4211 29.128 90.4461 28.9029C90.4712 28.6653 90.5212 28.384 90.5962 28.0589C90.6712 27.7212 90.7838 27.3086 90.9338 26.8209C90.5212 27.2586 90.0335 27.715 89.4708 28.1902C88.9206 28.6653 88.3391 29.1155 87.7264 29.5407C87.1137 29.9658 86.4947 30.3472 85.8695 30.6848C85.2567 31.035 84.6878 31.2976 84.1626 31.4726C84.1 31.4976 84.05 31.5101 84.0125 31.5101C83.975 31.5101 83.9375 31.5101 83.9 31.5101C83.7749 31.5101 83.6124 31.4476 83.4123 31.3226C83.1997 31.1975 82.9934 31.0287 82.7933 30.8161C82.5932 30.6161 82.4244 30.3847 82.2869 30.1221C82.1368 29.8595 82.0618 29.5969 82.0618 29.3343C82.0618 29.2593 82.0993 29.0092 82.1743 28.5841C82.2494 28.1589 82.4307 27.6212 82.7183 26.971C82.9934 26.3082 83.406 25.5704 83.9562 24.7576C84.5064 23.9323 85.2567 23.0883 86.2071 22.2255C86.6948 21.7878 87.22 21.3751 87.7827 20.9875C88.2578 20.6624 88.8018 20.331 89.4145 19.9934C90.0272 19.6558 90.6712 19.3869 91.3465 19.1868C91.3715 19.1868 91.3902 19.1806 91.4027 19.1681C91.4278 19.1556 91.459 19.1618 91.4965 19.1868C91.6466 19.2369 91.8217 19.3181 92.0217 19.4307C92.2343 19.5307 92.4406 19.6433 92.6407 19.7683C92.8533 19.8808 93.0346 19.9996 93.1847 20.1247C93.3472 20.2372 93.4535 20.331 93.5035 20.406C93.516 20.431 93.516 20.4498 93.5035 20.4623L93.466 20.4998C92.9033 20.7999 92.3719 21.1376 91.8717 21.5127C91.3715 21.8753 90.9276 22.2192 90.5399 22.5443C90.0898 22.932 89.6709 23.3134 89.2832 23.6885C88.3704 24.5888 87.7389 25.3704 87.3888 26.0331C87.0386 26.6834 86.8636 27.1523 86.8636 27.4399C86.8636 27.6525 86.9511 27.7588 87.1262 27.7588C87.3012 27.7588 87.5201 27.69 87.7827 27.5524C88.0578 27.4024 88.3641 27.2086 88.7017 26.971C89.0394 26.7209 89.4083 26.4333 89.8084 26.1081C90.2211 25.7705 90.6462 25.4204 91.0839 25.0578C91.4715 24.7451 91.8467 24.4075 92.2093 24.0449C92.5219 23.7448 92.847 23.4009 93.1847 23.0133C93.5223 22.6256 93.8099 22.2317 94.0475 21.8316C94.0475 21.8191 94.0537 21.8066 94.0662 21.7941C94.0787 21.7815 94.0975 21.7815 94.1225 21.7941C94.2601 21.8941 94.4164 22.0629 94.5914 22.3005C94.7665 22.5256 94.9291 22.7757 95.0791 23.0508C95.2292 23.3259 95.3542 23.5947 95.4542 23.8573C95.5668 24.1074 95.6231 24.3012 95.6231 24.4388C95.3355 25.0265 95.1104 25.5642 94.9478 26.0519C94.7978 26.5271 94.679 26.946 94.5914 27.3086C94.5164 27.6712 94.4664 27.9838 94.4414 28.2464C94.4289 28.4965 94.4226 28.6904 94.4226 28.8279Z" fill="white"/>
<path d="M131.407 20.6101C131.648 20.4574 131.902 20.2644 132.167 20.0313C132.44 19.7902 132.71 19.5209 132.975 19.2234C133.248 18.918 133.509 18.5924 133.759 18.2467C134.008 17.893 134.225 17.5393 134.41 17.1856C134.603 16.8239 134.755 16.4662 134.868 16.1125C134.98 15.7507 135.037 15.4051 135.037 15.0755C135.037 14.8263 135.017 14.6253 134.976 14.4726C134.936 14.3198 134.88 14.2033 134.808 14.1229C134.743 14.0345 134.667 13.9742 134.579 13.942C134.49 13.9099 134.398 13.8938 134.301 13.8938C133.915 13.8938 133.477 14.0586 132.987 14.3882C132.497 14.7097 131.978 15.1518 131.431 15.7145C130.893 16.2692 130.338 16.9203 129.767 17.6679C129.205 18.4155 128.658 19.2194 128.128 20.0796C127.597 20.9317 127.095 21.8119 126.62 22.7203C126.154 23.6286 125.744 24.5249 125.39 25.4092C125.045 26.2935 124.767 27.1415 124.558 27.9534C124.357 28.7573 124.257 29.4808 124.257 30.1239C124.257 30.3651 124.273 30.566 124.305 30.7268C124.345 30.8795 124.398 31.0041 124.462 31.1006C124.534 31.189 124.623 31.2493 124.727 31.2815C124.832 31.3136 124.952 31.3297 125.089 31.3297C125.322 31.3297 125.595 31.2332 125.909 31.0403C126.23 30.8393 126.568 30.5821 126.922 30.2686C127.283 29.9551 127.645 29.6054 128.007 29.2195C128.377 28.8337 128.722 28.4559 129.044 28.0861C129.365 27.7083 129.655 27.3626 129.912 27.0491C130.169 26.7275 130.366 26.4743 130.503 26.2894C130.503 26.2975 130.599 26.3819 130.792 26.5427C130.993 26.7034 131.226 26.8964 131.492 27.1214C131.757 27.3465 132.022 27.5756 132.288 27.8088C132.553 28.0338 132.754 28.2187 132.89 28.3634C132.698 28.5805 132.452 28.8578 132.155 29.1954C131.857 29.5331 131.52 29.8908 131.142 30.2686C130.772 30.6384 130.374 31.0122 129.948 31.39C129.522 31.7678 129.084 32.1054 128.634 32.4029C128.184 32.7083 127.73 32.9535 127.271 33.1384C126.813 33.3313 126.367 33.4278 125.933 33.4278C125.619 33.4278 125.286 33.3313 124.932 33.1384C124.578 32.9535 124.229 32.7083 123.883 32.4029C123.537 32.1054 123.216 31.7718 122.918 31.402C122.621 31.0403 122.372 30.6786 122.171 30.3168C121.93 29.8667 121.789 29.4527 121.749 29.0748C121.709 28.697 121.689 28.3956 121.689 28.1705C121.689 27.5515 121.777 26.8521 121.954 26.0724C122.131 25.2926 122.384 24.4807 122.713 23.6367C123.043 22.7846 123.441 21.9204 123.907 21.0442C124.373 20.168 124.888 19.3199 125.451 18.4999C126.021 17.68 126.636 16.9083 127.296 16.1848C127.963 15.4613 128.658 14.8303 129.382 14.2917C130.113 13.7531 130.865 13.3311 131.636 13.0256C132.416 12.7121 133.204 12.5553 134 12.5553C134.225 12.5553 134.462 12.6156 134.711 12.7362C134.96 12.8488 135.206 13.0015 135.447 13.1944C135.688 13.3793 135.921 13.5963 136.146 13.8455C136.371 14.0947 136.568 14.352 136.737 14.6173C136.906 14.8745 137.038 15.1358 137.135 15.401C137.239 15.6583 137.292 15.8954 137.292 16.1125C137.292 16.5948 137.195 17.1294 137.002 17.7162C136.809 18.295 136.548 18.8818 136.218 19.4767C135.889 20.0635 135.495 20.6382 135.037 21.2009C134.587 21.7637 134.104 22.2661 133.59 22.7082L131.407 20.6101ZM137.412 30.5339C137.541 30.5339 137.714 30.4776 137.931 30.3651C138.156 30.2525 138.401 30.1118 138.666 29.943C138.932 29.7662 139.209 29.5732 139.498 29.3642C139.788 29.1552 140.057 28.9502 140.306 28.7493C140.563 28.5483 140.792 28.3634 140.993 28.1946C141.194 28.0258 141.343 27.9012 141.44 27.8208C141.512 27.8932 141.596 27.9856 141.693 28.0981C141.797 28.2107 141.894 28.3152 141.982 28.4117C141.805 28.5885 141.584 28.8055 141.319 29.0628C141.054 29.312 140.764 29.5692 140.451 29.8345C140.145 30.0998 139.824 30.3651 139.486 30.6303C139.157 30.8956 138.831 31.1327 138.509 31.3418C138.196 31.5508 137.903 31.7196 137.629 31.8482C137.356 31.9768 137.127 32.0411 136.942 32.0411C136.693 32.0411 136.427 31.9527 136.146 31.7758C135.873 31.599 135.616 31.394 135.374 31.1609C135.133 30.9197 134.928 30.6786 134.759 30.4374C134.591 30.1962 134.494 30.0154 134.47 29.8948C134.454 29.8466 134.446 29.7903 134.446 29.726C134.446 29.6536 134.446 29.5773 134.446 29.4969C134.446 29.0949 134.498 28.5885 134.603 27.9776C134.699 27.3586 134.832 26.7075 135.001 26.0242C135.169 25.3328 135.362 24.6495 135.579 23.9743C135.804 23.291 136.038 22.6881 136.279 22.1656C136.769 21.0964 137.272 20.1479 137.786 19.3199C138.309 18.4919 138.819 17.7724 139.317 17.1615C139.816 16.5425 140.294 16.024 140.752 15.606C141.21 15.188 141.62 14.8504 141.982 14.5931C142.352 14.3359 142.661 14.151 142.911 14.0385C143.168 13.9259 143.345 13.8697 143.441 13.8697C143.594 13.9259 143.747 14.0103 143.899 14.1229C144.06 14.2274 144.209 14.3399 144.346 14.4605C144.482 14.5811 144.603 14.7017 144.707 14.8222C144.812 14.9348 144.888 15.0192 144.936 15.0755C145.001 15.1398 145.041 15.2041 145.057 15.2684C145.081 15.3247 145.093 15.401 145.093 15.4975C145.093 15.6904 145.045 15.9557 144.948 16.2933C144.852 16.631 144.671 17.061 144.406 17.5835C144.141 18.098 143.771 18.717 143.297 19.4405C142.83 20.164 142.219 21.008 141.464 21.9727C141.11 22.4228 140.736 22.881 140.342 23.3473C140.005 23.7492 139.615 24.1873 139.173 24.6616C138.731 25.1359 138.276 25.5901 137.81 26.0242C137.577 26.9084 137.412 27.6882 137.316 28.3634C137.227 29.0387 137.183 29.5652 137.183 29.943C137.183 30.1922 137.203 30.353 137.243 30.4253C137.284 30.4977 137.34 30.5339 137.412 30.5339ZM139.341 21.6953C139.205 22.0008 139.076 22.2982 138.956 22.5876C138.843 22.877 138.735 23.1624 138.63 23.4437C138.879 23.1624 139.104 22.8931 139.305 22.6359C139.514 22.3786 139.691 22.1576 139.836 21.9727C140.005 21.7556 140.157 21.5506 140.294 21.3577C140.857 20.5699 141.343 19.8464 141.753 19.1873C142.163 18.5281 142.501 17.9493 142.766 17.4509C143.031 16.9445 143.224 16.5265 143.345 16.1969C143.473 15.8592 143.538 15.6181 143.538 15.4734C143.538 15.4332 143.534 15.4051 143.526 15.389C143.526 15.3649 143.506 15.3528 143.465 15.3528C143.393 15.3528 143.228 15.4734 142.971 15.7145C142.714 15.9477 142.396 16.3215 142.018 16.8359C141.649 17.3504 141.231 18.0096 140.764 18.8135C140.306 19.6093 139.832 20.5699 139.341 21.6953ZM142.211 32.0411C142.091 32.0411 141.938 31.9969 141.753 31.9085C141.568 31.8281 141.391 31.7236 141.223 31.595C141.054 31.4744 140.909 31.3377 140.788 31.185C140.668 31.0323 140.608 30.8836 140.608 30.7389C140.688 30.3852 140.796 29.9792 140.933 29.521C141.07 29.0628 141.219 28.5965 141.379 28.1223C141.532 27.648 141.697 27.1858 141.874 26.7356C142.042 26.2774 142.195 25.8714 142.332 25.5177C142.477 25.164 142.601 24.8786 142.706 24.6616C142.81 24.4446 142.879 24.336 142.911 24.336C142.959 24.336 143.079 24.3883 143.272 24.4928C143.465 24.5973 143.666 24.7259 143.875 24.8786C144.092 25.0233 144.285 25.1801 144.454 25.3489C144.623 25.5097 144.707 25.6504 144.707 25.7709C144.707 25.7951 144.703 25.8272 144.695 25.8674C144.687 25.8996 144.675 25.9438 144.659 26C144.595 26.201 144.51 26.4382 144.406 26.7115C144.309 26.9848 144.205 27.2702 144.092 27.5676C143.98 27.857 143.867 28.1504 143.755 28.4478C143.642 28.7372 143.542 29.0105 143.453 29.2678C143.365 29.525 143.293 29.7501 143.236 29.943C143.18 30.136 143.152 30.2766 143.152 30.3651C143.152 30.4133 143.176 30.4374 143.224 30.4374C143.313 30.4374 143.445 30.3852 143.622 30.2806C143.799 30.1761 144 30.0395 144.225 29.8707C144.458 29.7019 144.699 29.517 144.948 29.316C145.198 29.115 145.435 28.9181 145.66 28.7252C145.893 28.5242 146.102 28.3433 146.287 28.1826C146.472 28.0218 146.612 27.9012 146.709 27.8208C146.781 27.8932 146.866 27.9856 146.962 28.0981C147.067 28.2107 147.163 28.3152 147.252 28.4117C147.075 28.5885 146.854 28.8055 146.588 29.0628C146.323 29.312 146.034 29.5692 145.72 29.8345C145.415 30.0998 145.093 30.3651 144.756 30.6303C144.426 30.8956 144.104 31.1327 143.791 31.3418C143.477 31.5508 143.184 31.7196 142.911 31.8482C142.637 31.9768 142.404 32.0411 142.211 32.0411ZM146.986 20.6583C146.978 20.6905 146.946 20.7709 146.89 20.8995C146.842 21.0201 146.781 21.1648 146.709 21.3336C146.637 21.4944 146.552 21.6672 146.456 21.8521C146.367 22.0289 146.279 22.1937 146.19 22.3465C146.102 22.4992 146.018 22.6278 145.937 22.7323C145.857 22.8288 145.793 22.877 145.744 22.877C145.6 22.869 145.423 22.8248 145.214 22.7444C145.013 22.664 144.816 22.5756 144.623 22.4791C144.438 22.3746 144.277 22.2741 144.141 22.1777C144.012 22.0812 143.948 22.0129 143.948 21.9727C143.948 21.8039 143.996 21.5868 144.092 21.3215C144.189 21.0482 144.301 20.787 144.43 20.5378C144.559 20.2805 144.687 20.0595 144.816 19.8746C144.952 19.6897 145.057 19.5972 145.129 19.5972C145.274 19.5972 145.451 19.6455 145.66 19.7419C145.869 19.8304 146.07 19.9349 146.263 20.0554C146.464 20.176 146.633 20.2966 146.769 20.4172C146.914 20.5297 146.986 20.6101 146.986 20.6583ZM147.625 32.2702C147.481 32.2702 147.316 32.222 147.131 32.1255C146.946 32.0371 146.757 31.9125 146.564 31.7517C146.371 31.599 146.186 31.4181 146.01 31.2091C145.825 30.9921 145.672 30.767 145.551 30.5339C145.503 30.4454 145.471 30.345 145.455 30.2324C145.439 30.1199 145.431 29.9752 145.431 29.7983C145.431 29.3401 145.503 28.8819 145.648 28.4237C145.784 27.9575 145.977 27.5153 146.227 27.0973C146.476 26.6793 146.777 26.2894 147.131 25.9277C147.477 25.5579 147.854 25.2404 148.264 24.9751C148.674 24.7098 149.113 24.5008 149.579 24.3481C150.045 24.1954 150.519 24.119 151.002 24.119C151.074 24.119 151.17 24.1592 151.291 24.2396C151.42 24.3119 151.556 24.4124 151.701 24.541C151.846 24.6696 151.99 24.8143 152.135 24.9751C152.288 25.1359 152.424 25.3007 152.545 25.4695C152.666 25.6303 152.762 25.791 152.834 25.9518C152.915 26.1045 152.955 26.2412 152.955 26.3618C152.915 26.5145 152.79 26.6833 152.581 26.8682C152.372 27.0451 152.123 27.2139 151.834 27.3747C151.552 27.5274 151.255 27.656 150.941 27.7605C150.628 27.865 150.354 27.9173 150.121 27.9173C149.985 27.9173 149.916 27.8771 149.916 27.7967C149.916 27.7083 149.977 27.5796 150.097 27.4108C150.218 27.234 150.35 27.0451 150.495 26.8441C150.648 26.6351 150.785 26.4301 150.905 26.2291C151.026 26.0201 151.086 25.8433 151.086 25.6986C151.086 25.6262 151.066 25.566 151.026 25.5177C150.994 25.4695 150.945 25.4454 150.881 25.4454C150.704 25.4454 150.519 25.5258 150.326 25.6865C150.133 25.8473 149.94 26.0603 149.748 26.3256C149.555 26.5909 149.37 26.8964 149.193 27.242C149.016 27.5796 148.859 27.9293 148.723 28.2911C148.594 28.6528 148.49 29.0146 148.409 29.3763C148.329 29.738 148.289 30.0676 148.289 30.3651C148.289 30.5419 148.341 30.6665 148.445 30.7389C148.55 30.8032 148.711 30.8353 148.928 30.8353C149.466 30.8353 149.985 30.7469 150.483 30.57C150.99 30.3852 151.472 30.152 151.93 29.8707C152.396 29.5813 152.838 29.2597 153.256 28.906C153.674 28.5523 154.068 28.1986 154.438 27.8449C154.527 27.9494 154.635 28.0539 154.764 28.1584C154.892 28.2549 154.989 28.3393 155.053 28.4117C154.555 28.9342 154.024 29.4326 153.461 29.9068C152.907 30.3731 152.32 30.7831 151.701 31.1368C151.082 31.4824 150.431 31.7557 149.748 31.9567C149.072 32.1657 148.365 32.2702 147.625 32.2702ZM161.094 30.1721C161.223 30.1721 161.384 30.1239 161.577 30.0274C161.777 29.931 161.995 29.8104 162.228 29.6657C162.461 29.513 162.698 29.3441 162.939 29.1593C163.188 28.9744 163.421 28.7935 163.638 28.6166C163.864 28.4398 164.064 28.275 164.241 28.1223C164.418 27.9695 164.555 27.853 164.651 27.7726C164.724 27.8449 164.808 27.9374 164.905 28.0499C165.009 28.1625 165.105 28.267 165.194 28.3634C165.017 28.5403 164.796 28.7573 164.531 29.0146C164.265 29.2638 163.976 29.521 163.663 29.7863C163.357 30.0515 163.036 30.3168 162.698 30.5821C162.368 30.8474 162.043 31.0845 161.721 31.2935C161.408 31.5025 161.114 31.6713 160.841 31.8C160.568 31.9286 160.339 31.9929 160.154 31.9929C159.84 31.9929 159.555 31.9286 159.298 31.8C159.048 31.6794 158.819 31.5226 158.61 31.3297C158.409 31.1287 158.22 30.9036 158.043 30.6544C157.867 30.3972 157.702 30.136 157.549 29.8707C157.412 30.0475 157.272 30.2445 157.127 30.4615C156.99 30.6705 156.862 30.8715 156.741 31.0644C156.621 31.2573 156.52 31.4262 156.44 31.5709C156.359 31.7156 156.307 31.804 156.283 31.8361C156.267 31.9004 156.243 31.9447 156.211 31.9688C156.179 32.0009 156.126 32.017 156.054 32.017C155.933 32.017 155.789 31.9688 155.62 31.8723C155.459 31.7839 155.294 31.6633 155.125 31.5106C154.957 31.3578 154.792 31.193 154.631 31.0162C154.462 30.8313 154.318 30.6464 154.197 30.4615C154.133 30.3731 154.092 30.2726 154.076 30.1601C154.06 30.0475 154.052 29.9109 154.052 29.7501C154.052 29.2195 154.117 28.6207 154.245 27.9534C154.374 27.2862 154.555 26.5869 154.788 25.8554C155.021 25.1158 155.298 24.3561 155.62 23.5764C155.949 22.7886 156.311 22.0129 156.705 21.2492C157.099 20.4775 157.525 19.7258 157.983 18.9943C158.441 18.2628 158.916 17.5795 159.406 16.9445C159.896 16.3094 160.399 15.7387 160.913 15.2322C161.428 14.7258 161.946 14.3118 162.469 13.9902C162.549 13.942 162.622 13.9099 162.686 13.8938C162.758 13.8777 162.818 13.8697 162.867 13.8697C162.963 13.8697 163.1 13.9259 163.277 14.0385C163.454 14.143 163.638 14.2716 163.831 14.4243C164.032 14.5771 164.217 14.7298 164.386 14.8825C164.563 15.0353 164.691 15.1599 164.772 15.2563C164.82 15.3287 164.844 15.4332 164.844 15.5698C164.844 16.1004 164.667 16.7636 164.314 17.5594C163.96 18.3472 163.462 19.2194 162.818 20.176C162.175 21.1246 161.396 22.1334 160.479 23.2026C159.571 24.2717 158.558 25.3449 157.441 26.4221C157.32 26.8321 157.203 27.242 157.091 27.652C156.978 28.0539 156.874 28.4599 156.777 28.8699C157.533 27.7846 158.2 26.9285 158.779 26.3015C159.366 25.6664 159.868 25.1881 160.286 24.8666C160.704 24.537 161.042 24.328 161.299 24.2396C161.564 24.1431 161.749 24.0949 161.854 24.0949C161.95 24.0949 162.063 24.1471 162.191 24.2516C162.328 24.3481 162.457 24.4647 162.577 24.6013C162.698 24.7299 162.806 24.8586 162.903 24.9872C162.999 25.1078 163.064 25.1962 163.096 25.2524C163.104 25.3328 163.019 25.4976 162.843 25.7468C162.666 25.988 162.421 26.2693 162.107 26.5909C161.794 26.9124 161.42 27.2541 160.986 27.6158C160.56 27.9695 160.093 28.2991 159.587 28.6046C159.844 28.9744 160.065 29.2638 160.25 29.4728C160.435 29.6818 160.592 29.8385 160.72 29.943C160.865 30.0636 160.99 30.14 161.094 30.1721ZM159.804 20.4413C159.563 20.9236 159.314 21.4582 159.056 22.045C158.807 22.6318 158.558 23.2548 158.309 23.914C159.201 22.9011 159.961 21.9606 160.588 21.0924C161.223 20.2242 161.741 19.4405 162.143 18.7411C162.553 18.0337 162.851 17.4107 163.036 16.8721C163.22 16.3335 163.313 15.8834 163.313 15.5216C163.313 15.4975 163.309 15.4734 163.301 15.4493C163.301 15.4171 163.281 15.401 163.241 15.401C163.144 15.401 162.987 15.5136 162.77 15.7387C162.553 15.9637 162.292 16.2933 161.986 16.7274C161.681 17.1615 161.339 17.6921 160.962 18.3191C160.592 18.9381 160.206 19.6455 159.804 20.4413Z" fill="white"/>
</svg>
