<svg width="169" height="46" viewBox="0 0 169 46" fill="none" xmlns="http://www.w3.org/2000/svg">
<path d="M110.874 43.6107C110.455 43.6107 110.075 43.5151 109.736 43.3237C109.396 43.1262 109.125 42.8454 108.921 42.4812C108.723 42.1108 108.625 41.6602 108.625 41.1294C108.625 40.5985 108.723 40.151 108.921 39.7869C109.118 39.4165 109.387 39.1357 109.726 38.9443C110.066 38.753 110.449 38.6573 110.874 38.6573C111.337 38.6573 111.751 38.7622 112.115 38.9721C112.486 39.1758 112.776 39.4659 112.985 39.8424C113.195 40.2128 113.3 40.6418 113.3 41.1294C113.3 41.6232 113.195 42.0553 112.985 42.4256C112.776 42.796 112.486 43.0861 112.115 43.2959C111.751 43.5058 111.337 43.6107 110.874 43.6107ZM108.365 45.3607V38.7036H108.995V40.1665L108.93 41.1386L109.023 42.1201V45.3607H108.365ZM110.828 43.0274C111.174 43.0274 111.482 42.9503 111.754 42.796C112.026 42.6355 112.242 42.4133 112.402 42.1293C112.563 41.8392 112.643 41.5059 112.643 41.1294C112.643 40.7529 112.563 40.4226 112.402 40.1387C112.242 39.8548 112.026 39.6325 111.754 39.4721C111.482 39.3116 111.174 39.2313 110.828 39.2313C110.483 39.2313 110.171 39.3116 109.893 39.4721C109.621 39.6325 109.405 39.8548 109.245 40.1387C109.091 40.4226 109.013 40.7529 109.013 41.1294C109.013 41.5059 109.091 41.8392 109.245 42.1293C109.405 42.4133 109.621 42.6355 109.893 42.796C110.171 42.9503 110.483 43.0274 110.828 43.0274ZM117.122 38.6573C117.517 38.6573 117.862 38.7344 118.159 38.8888C118.461 39.0369 118.696 39.2653 118.862 39.5739C119.035 39.8825 119.122 40.2714 119.122 40.7405V43.5645H118.464V40.8053C118.464 40.293 118.335 39.9072 118.075 39.648C117.822 39.3826 117.464 39.2499 117.001 39.2499C116.656 39.2499 116.353 39.3208 116.094 39.4628C115.841 39.5986 115.643 39.7992 115.501 40.0646C115.366 40.3239 115.298 40.6387 115.298 41.009V43.5645H114.64V36.6944H115.298V40.0368L115.168 39.7869C115.322 39.435 115.569 39.1603 115.909 38.9628C116.248 38.7591 116.653 38.6573 117.122 38.6573ZM122.879 43.6107C122.41 43.6107 121.987 43.5058 121.61 43.2959C121.24 43.0799 120.947 42.7867 120.731 42.4164C120.515 42.0398 120.407 41.6108 120.407 41.1294C120.407 40.6418 120.515 40.2128 120.731 39.8424C120.947 39.4721 121.24 39.182 121.61 38.9721C121.981 38.7622 122.403 38.6573 122.879 38.6573C123.36 38.6573 123.786 38.7622 124.156 38.9721C124.533 39.182 124.826 39.4721 125.036 39.8424C125.252 40.2128 125.36 40.6418 125.36 41.1294C125.36 41.6108 125.252 42.0398 125.036 42.4164C124.826 42.7867 124.533 43.0799 124.156 43.2959C123.78 43.5058 123.354 43.6107 122.879 43.6107ZM122.879 43.0274C123.231 43.0274 123.542 42.9503 123.814 42.796C124.085 42.6355 124.298 42.4133 124.453 42.1293C124.613 41.8392 124.693 41.5059 124.693 41.1294C124.693 40.7467 124.613 40.4134 124.453 40.1294C124.298 39.8455 124.085 39.6264 123.814 39.4721C123.542 39.3116 123.234 39.2313 122.888 39.2313C122.542 39.2313 122.234 39.3116 121.962 39.4721C121.69 39.6264 121.474 39.8455 121.314 40.1294C121.153 40.4134 121.073 40.7467 121.073 41.1294C121.073 41.5059 121.153 41.8392 121.314 42.1293C121.474 42.4133 121.69 42.6355 121.962 42.796C122.234 42.9503 122.539 43.0274 122.879 43.0274ZM128.239 43.6107C127.782 43.6107 127.43 43.4873 127.184 43.2404C126.937 42.9935 126.813 42.6447 126.813 42.1942V37.6296H127.471V42.1571C127.471 42.4411 127.542 42.6602 127.684 42.8145C127.832 42.9688 128.042 43.046 128.313 43.046C128.603 43.046 128.844 42.9626 129.035 42.796L129.267 43.2682C129.137 43.3854 128.98 43.4719 128.795 43.5274C128.616 43.583 128.43 43.6107 128.239 43.6107ZM125.943 39.2499V38.7036H128.952V39.2499H125.943ZM132.273 43.6107C131.804 43.6107 131.381 43.5058 131.005 43.2959C130.634 43.0799 130.341 42.7867 130.125 42.4164C129.909 42.0398 129.801 41.6108 129.801 41.1294C129.801 40.6418 129.909 40.2128 130.125 39.8424C130.341 39.4721 130.634 39.182 131.005 38.9721C131.375 38.7622 131.798 38.6573 132.273 38.6573C132.755 38.6573 133.18 38.7622 133.551 38.9721C133.927 39.182 134.221 39.4721 134.43 39.8424C134.646 40.2128 134.754 40.6418 134.754 41.1294C134.754 41.6108 134.646 42.0398 134.43 42.4164C134.221 42.7867 133.927 43.0799 133.551 43.2959C133.174 43.5058 132.748 43.6107 132.273 43.6107ZM132.273 43.0274C132.625 43.0274 132.937 42.9503 133.208 42.796C133.48 42.6355 133.693 42.4133 133.847 42.1293C134.008 41.8392 134.088 41.5059 134.088 41.1294C134.088 40.7467 134.008 40.4134 133.847 40.1294C133.693 39.8455 133.48 39.6264 133.208 39.4721C132.937 39.3116 132.628 39.2313 132.282 39.2313C131.937 39.2313 131.628 39.3116 131.356 39.4721C131.085 39.6264 130.869 39.8455 130.708 40.1294C130.548 40.4134 130.468 40.7467 130.468 41.1294C130.468 41.5059 130.548 41.8392 130.708 42.1293C130.869 42.4133 131.085 42.6355 131.356 42.796C131.628 42.9503 131.934 43.0274 132.273 43.0274ZM138.171 45.407C137.726 45.407 137.3 45.3421 136.893 45.2125C136.485 45.0829 136.155 44.8977 135.902 44.657L136.235 44.157C136.464 44.3607 136.745 44.5212 137.078 44.6385C137.417 44.7619 137.775 44.8237 138.152 44.8237C138.769 44.8237 139.223 44.6786 139.513 44.3885C139.803 44.1046 139.948 43.6601 139.948 43.0552V41.8423L140.041 41.009L139.976 40.1757V38.7036H140.606V42.9719C140.606 43.8114 140.399 44.4255 139.985 44.8144C139.578 45.2094 138.973 45.407 138.171 45.407ZM138.05 43.3793C137.587 43.3793 137.171 43.2805 136.8 43.083C136.43 42.8793 136.137 42.5985 135.921 42.2404C135.711 41.8824 135.606 41.472 135.606 41.009C135.606 40.5461 135.711 40.1387 135.921 39.7869C136.137 39.4289 136.43 39.1511 136.8 38.9536C137.171 38.756 137.587 38.6573 138.05 38.6573C138.482 38.6573 138.871 38.7468 139.217 38.9258C139.562 39.1048 139.837 39.3702 140.041 39.722C140.245 40.0739 140.346 40.5029 140.346 41.009C140.346 41.5152 140.245 41.9442 140.041 42.296C139.837 42.6478 139.562 42.9163 139.217 43.1015C138.871 43.2867 138.482 43.3793 138.05 43.3793ZM138.115 42.796C138.473 42.796 138.791 42.7219 139.069 42.5738C139.346 42.4194 139.566 42.2096 139.726 41.9442C139.886 41.6726 139.967 41.3609 139.967 41.009C139.967 40.6572 139.886 40.3486 139.726 40.0831C139.566 39.8177 139.346 39.6109 139.069 39.4628C138.791 39.3085 138.473 39.2313 138.115 39.2313C137.763 39.2313 137.445 39.3085 137.161 39.4628C136.884 39.6109 136.664 39.8177 136.504 40.0831C136.35 40.3486 136.272 40.6572 136.272 41.009C136.272 41.3609 136.35 41.6726 136.504 41.9442C136.664 42.2096 136.884 42.4194 137.161 42.5738C137.445 42.7219 137.763 42.796 138.115 42.796ZM142.435 43.5645V38.7036H143.064V40.0276L143 39.7961C143.135 39.4258 143.364 39.1449 143.685 38.9536C144.006 38.756 144.404 38.6573 144.879 38.6573V39.2961C144.854 39.2961 144.83 39.2961 144.805 39.2961C144.78 39.29 144.756 39.2869 144.731 39.2869C144.219 39.2869 143.818 39.4443 143.527 39.7591C143.237 40.0677 143.092 40.509 143.092 41.0831V43.5645H142.435ZM148.763 43.5645V42.4904L148.735 42.3145V40.5183C148.735 40.1047 148.618 39.7869 148.384 39.5646C148.155 39.3424 147.813 39.2313 147.356 39.2313C147.041 39.2313 146.742 39.2838 146.458 39.3887C146.174 39.4937 145.933 39.6325 145.736 39.8054L145.439 39.3147C145.686 39.1048 145.982 38.9443 146.328 38.8332C146.674 38.7159 147.038 38.6573 147.421 38.6573C148.05 38.6573 148.535 38.8147 148.874 39.1295C149.22 39.4381 149.393 39.9103 149.393 40.5461V43.5645H148.763ZM147.087 43.6107C146.723 43.6107 146.405 43.5521 146.134 43.4348C145.868 43.3114 145.665 43.1447 145.523 42.9349C145.381 42.7188 145.31 42.4719 145.31 42.1942C145.31 41.9411 145.368 41.7127 145.486 41.509C145.609 41.2991 145.807 41.1325 146.078 41.009C146.356 40.8794 146.726 40.8146 147.189 40.8146H148.865V41.3053H147.208C146.739 41.3053 146.411 41.3886 146.226 41.5553C146.047 41.722 145.958 41.9287 145.958 42.1756C145.958 42.4534 146.066 42.6756 146.282 42.8423C146.498 43.0089 146.8 43.0923 147.189 43.0923C147.56 43.0923 147.877 43.0089 148.143 42.8423C148.414 42.6694 148.612 42.4225 148.735 42.1016L148.884 42.5552C148.76 42.8762 148.544 43.1324 148.235 43.3237C147.933 43.5151 147.55 43.6107 147.087 43.6107ZM153.687 43.6107C153.268 43.6107 152.888 43.5151 152.549 43.3237C152.209 43.1262 151.938 42.8454 151.734 42.4812C151.536 42.1108 151.438 41.6602 151.438 41.1294C151.438 40.5985 151.536 40.151 151.734 39.7869C151.931 39.4165 152.2 39.1357 152.539 38.9443C152.879 38.753 153.262 38.6573 153.687 38.6573C154.15 38.6573 154.564 38.7622 154.928 38.9721C155.298 39.1758 155.589 39.4659 155.798 39.8424C156.008 40.2128 156.113 40.6418 156.113 41.1294C156.113 41.6232 156.008 42.0553 155.798 42.4256C155.589 42.796 155.298 43.0861 154.928 43.2959C154.564 43.5058 154.15 43.6107 153.687 43.6107ZM151.178 45.3607V38.7036H151.808V40.1665L151.743 41.1386L151.836 42.1201V45.3607H151.178ZM153.641 43.0274C153.987 43.0274 154.295 42.9503 154.567 42.796C154.839 42.6355 155.055 42.4133 155.215 42.1293C155.376 41.8392 155.456 41.5059 155.456 41.1294C155.456 40.7529 155.376 40.4226 155.215 40.1387C155.055 39.8548 154.839 39.6325 154.567 39.4721C154.295 39.3116 153.987 39.2313 153.641 39.2313C153.295 39.2313 152.984 39.3116 152.706 39.4721C152.434 39.6325 152.218 39.8548 152.058 40.1387C151.904 40.4226 151.826 40.7529 151.826 41.1294C151.826 41.5059 151.904 41.8392 152.058 42.1293C152.218 42.4133 152.434 42.6355 152.706 42.796C152.984 42.9503 153.295 43.0274 153.641 43.0274ZM159.935 38.6573C160.33 38.6573 160.675 38.7344 160.972 38.8888C161.274 39.0369 161.509 39.2653 161.675 39.5739C161.848 39.8825 161.935 40.2714 161.935 40.7405V43.5645H161.277V40.8053C161.277 40.293 161.148 39.9072 160.888 39.648C160.635 39.3826 160.277 39.2499 159.814 39.2499C159.469 39.2499 159.166 39.3208 158.907 39.4628C158.654 39.5986 158.456 39.7992 158.314 40.0646C158.179 40.3239 158.111 40.6387 158.111 41.009V43.5645H157.453V36.6944H158.111V40.0368L157.981 39.7869C158.135 39.435 158.382 39.1603 158.722 38.9628C159.061 38.7591 159.466 38.6573 159.935 38.6573ZM163.657 45.407C163.428 45.407 163.209 45.3699 162.999 45.2958C162.796 45.2218 162.62 45.1107 162.472 44.9625L162.777 44.4718C162.901 44.5891 163.033 44.6786 163.175 44.7403C163.324 44.8082 163.487 44.8422 163.666 44.8422C163.882 44.8422 164.067 44.7804 164.222 44.657C164.382 44.5397 164.533 44.3298 164.675 44.0274L164.99 43.3145L165.064 43.2126L167.064 38.7036H167.712L165.277 44.1478C165.141 44.4626 164.99 44.7125 164.823 44.8977C164.663 45.0829 164.487 45.2125 164.296 45.2866C164.104 45.3668 163.891 45.407 163.657 45.407ZM164.953 43.7033L162.712 38.7036H163.398L165.379 43.1663L164.953 43.7033Z" fill="#222222"/>
<path fill-rule="evenodd" clip-rule="evenodd" d="M80.5882 2.22462C80.4249 2.38789 79.4994 3.55089 78.5316 4.8089L76.7721 7.09635L72.3107 7.09856C67.5655 7.10078 66.5339 7.23564 65.2674 8.01841C64.6676 8.38904 63.6985 9.45408 63.6985 9.74262C63.6985 9.80922 66.9362 9.86364 70.8935 9.86364C77.6381 9.86364 78.1096 9.84243 78.4284 9.52364C78.6155 9.33657 79.5418 8.1743 80.4873 6.94083L82.2062 4.69803L91.0781 4.70688L99.9501 4.71592L101.789 7.12033C102.801 8.44291 103.771 9.60112 103.945 9.69429C104.119 9.78745 105.165 9.86364 106.269 9.86364C108.676 9.86364 109.747 10.1454 111.019 11.113C111.678 11.6139 112.12 12.1633 112.563 13.0335L113.185 14.2522L113.803 24.2801C114.142 29.7956 114.423 34.5365 114.426 34.8154C114.431 35.232 114.515 35.3228 114.893 35.3228C115.274 35.3228 115.354 35.2338 115.354 34.8154C115.353 34.5365 115.529 29.9911 115.744 24.7148C116.176 14.1022 116.161 13.7853 115.139 11.7085C114.34 10.0858 113.014 8.80322 111.217 7.9151C109.825 7.22715 109.658 7.19007 107.543 7.0993L105.327 7.00411L103.369 4.51354L101.41 2.02297L91.1478 1.97538C81.9204 1.93239 80.8552 1.95767 80.5882 2.22462ZM69.5015 4.59748C69.1882 4.91055 69.0486 5.25517 69.0486 5.71473C69.0486 6.36468 69.0576 6.37298 69.4587 6.09219C70.0236 5.69647 73.246 5.68411 73.7639 6.07577C74.298 6.4798 74.3662 6.42519 74.2747 5.66658C74.2231 5.23931 74.0153 4.8161 73.7312 4.55966C73.3261 4.19401 73.0733 4.14457 71.6128 4.14457C70.0979 4.14457 69.9151 4.18386 69.5015 4.59748ZM106.03 4.59748C105.717 4.91055 105.577 5.25517 105.577 5.71473C105.577 6.36468 105.586 6.37298 105.987 6.09219C106.292 5.87837 106.872 5.80494 108.252 5.80494C109.632 5.80494 110.212 5.87837 110.517 6.09219C110.913 6.36966 110.927 6.3608 110.927 5.82948C110.927 5.50718 110.729 5.04486 110.449 4.71223C109.978 4.15213 109.949 4.14457 108.227 4.14457C106.621 4.14457 106.447 4.18054 106.03 4.59748ZM88.8006 9.69558C87.0856 10.0319 85.0216 10.8584 83.7164 11.7314C81.4988 13.2147 78.6775 16.0489 79.0489 16.4203C79.0848 16.4563 79.8174 15.9408 80.6768 15.275C84.4231 12.373 85.9807 11.5794 88.7929 11.1407C92.0192 10.6372 95.9893 11.539 98.6932 13.3894C100.752 14.7983 102.309 16.5863 103.416 18.8116C104.566 21.1245 104.742 21.977 104.743 25.2683C104.744 28.028 104.71 28.3162 104.227 29.6959C102.285 35.2451 97.4551 38.9378 91.6482 39.3125C88.6761 39.5043 85.1384 38.4917 82.2781 36.6306C81.5464 36.1544 80.8518 35.7069 80.7345 35.6358C80.5917 35.5495 80.5526 35.6272 80.6164 35.8711C81.0151 37.3955 86.8275 40.2771 90.3097 40.6769C91.9105 40.8607 94.3597 40.6469 95.9779 40.1821C101.468 38.6051 105.831 33.9 107.072 28.22C107.47 26.3949 107.388 22.9421 106.906 21.2485C105.223 15.3398 100.63 10.9772 94.8383 9.7869C93.3157 9.47401 90.1728 9.42641 88.8006 9.69558ZM107.007 11.9055C106.066 12.4022 106.138 12.5939 107.225 12.4893C108.341 12.3821 109.261 12.8732 109.708 13.8148C110.074 14.5856 110.081 15.0431 109.739 15.8613C109.343 16.8097 108.473 17.28 107.278 17.1916C106.634 17.144 106.326 17.1874 106.367 17.3197C106.486 17.7023 107.704 18.165 108.593 18.1652C111.45 18.1661 112.948 15.1357 111.262 12.7673C110.438 11.6111 108.361 11.1905 107.007 11.9055Z" fill="#A61010"/>
<path d="M15.743 13.2715C16.1181 13.0339 16.512 12.7338 16.9246 12.3712C17.3498 11.9961 17.7687 11.5772 18.1814 11.1145C18.6065 10.6393 19.0129 10.1329 19.4006 9.59517C19.7882 9.04497 20.1258 8.49477 20.4134 7.94456C20.7135 7.38185 20.9511 6.8254 21.1262 6.27519C21.3013 5.71249 21.3888 5.17479 21.3888 4.6621C21.3888 4.27445 21.3575 3.96184 21.295 3.72425C21.2325 3.48666 21.145 3.30535 21.0324 3.1803C20.9324 3.04275 20.8136 2.94896 20.676 2.89895C20.5385 2.84893 20.3947 2.82392 20.2446 2.82392C19.6444 2.82392 18.9629 3.08026 18.2001 3.59295C17.4373 4.09314 16.6308 4.78089 15.7805 5.65622C14.9427 6.51904 14.0798 7.53191 13.192 8.69484C12.3167 9.85777 11.4664 11.1082 10.6411 12.4462C9.81576 13.7717 9.03422 15.141 8.29645 16.554C7.57118 17.967 6.93345 19.3613 6.38324 20.7368C5.84554 22.1123 5.41413 23.4315 5.08901 24.6945C4.7764 25.945 4.62009 27.0704 4.62009 28.0708C4.62009 28.4459 4.6451 28.7585 4.69512 29.0086C4.75764 29.2462 4.83892 29.44 4.93896 29.5901C5.0515 29.7276 5.18905 29.8214 5.35161 29.8714C5.51417 29.9214 5.70174 29.9465 5.91432 29.9465C6.27695 29.9465 6.70211 29.7964 7.18979 29.4963C7.68998 29.1837 8.21517 28.7835 8.76537 28.2958C9.32808 27.8082 9.89079 27.2642 10.4535 26.664C11.0287 26.0638 11.5664 25.4761 12.0666 24.9008C12.5668 24.3131 13.0169 23.7754 13.4171 23.2877C13.8172 22.7876 14.1236 22.3937 14.3362 22.1061C14.3362 22.1186 14.4862 22.2499 14.7864 22.5C15.099 22.75 15.4616 23.0502 15.8743 23.4003C16.2869 23.7504 16.6996 24.1068 17.1122 24.4694C17.5249 24.8196 17.8375 25.1072 18.0501 25.3322C17.7499 25.6699 17.3686 26.1013 16.9059 26.6265C16.4432 27.1517 15.918 27.7081 15.3303 28.2958C14.7551 28.8711 14.1361 29.4525 13.4734 30.0402C12.8106 30.628 12.1291 31.1532 11.4289 31.6158C10.7286 32.091 10.0221 32.4724 9.30933 32.76C8.59656 33.0601 7.90255 33.2102 7.22731 33.2102C6.73962 33.2102 6.22068 33.0601 5.67048 32.76C5.12028 32.4724 4.57632 32.091 4.03862 31.6158C3.50093 31.1532 3.00074 30.6342 2.53807 30.059C2.0754 29.4963 1.68775 28.9336 1.37514 28.3709C1 27.6706 0.781169 27.0266 0.718646 26.4389C0.656123 25.8512 0.624861 25.3823 0.624861 25.0321C0.624861 24.0693 0.762412 22.9814 1.03751 21.7684C1.31262 20.5555 1.70651 19.2925 2.2192 17.9795C2.73189 16.654 3.35087 15.3098 4.07614 13.9468C4.80141 12.5838 5.6017 11.2645 6.47703 9.98907C7.36486 8.7136 8.32146 7.51315 9.34684 6.38774C10.3847 5.26232 11.4664 4.28071 12.5918 3.4429C13.7297 2.60509 14.8989 1.94859 16.0993 1.47342C17.3123 0.985737 18.5377 0.741897 19.7757 0.741897C20.1258 0.741897 20.4947 0.835681 20.8824 1.02325C21.27 1.19832 21.6514 1.4359 22.0265 1.73601C22.4017 2.02362 22.7643 2.36125 23.1144 2.74889C23.4646 3.13653 23.7709 3.53668 24.0335 3.94933C24.2961 4.34948 24.5024 4.75588 24.6525 5.16854C24.8151 5.56868 24.8963 5.93757 24.8963 6.27519C24.8963 7.02547 24.7463 7.85703 24.4462 8.76987C24.1461 9.6702 23.7397 10.583 23.227 11.5084C22.7143 12.4212 22.1016 13.3153 21.3888 14.1906C20.6885 15.0659 19.9383 15.8475 19.138 16.5352L15.743 13.2715ZM31.6113 28.4459C31.7989 28.4459 32.049 28.3646 32.3616 28.2021C32.6742 28.0395 33.0181 27.8332 33.3932 27.5831C33.7809 27.333 34.1748 27.0579 34.5749 26.7578C34.9751 26.4452 35.3565 26.145 35.7191 25.8574C36.0942 25.5573 36.4256 25.2885 36.7132 25.0509C37.0008 24.8008 37.2197 24.6132 37.3697 24.4882C37.4823 24.6007 37.6136 24.7445 37.7636 24.9196C37.9262 25.0947 38.0762 25.2572 38.2138 25.4073C37.9387 25.6824 37.5948 26.0138 37.1821 26.4014C36.7695 26.7765 36.3256 27.1642 35.8504 27.5643C35.3752 27.9645 34.8813 28.3584 34.3686 28.746C33.8559 29.1337 33.3557 29.4838 32.868 29.7964C32.3804 30.109 31.9239 30.3591 31.4988 30.5467C31.0736 30.7342 30.7173 30.828 30.4296 30.828C30.1921 30.828 29.9107 30.7655 29.5856 30.6405C29.273 30.5279 28.9666 30.3779 28.6665 30.1903C28.3789 30.0152 28.1288 29.8214 27.9162 29.6088C27.7161 29.3837 27.6161 29.1649 27.6161 28.9523C27.6286 28.4146 27.7286 27.7894 27.9162 27.0766C28.1038 26.3639 28.3226 25.6324 28.5727 24.8821C28.8353 24.1318 29.1104 23.394 29.398 22.6688C29.6981 21.931 29.9732 21.2745 30.2233 20.6993C30.1233 20.7243 29.9295 20.8618 29.6419 21.1119C29.3542 21.362 29.0041 21.7059 28.5915 22.1436C28.1913 22.5687 27.7474 23.0877 27.2597 23.7004C26.7845 24.3006 26.3094 24.9759 25.8342 25.7261C25.3715 26.4764 24.9276 27.2892 24.5024 28.1645C24.0773 29.0274 23.7209 29.9402 23.4333 30.9031C23.3958 31.0406 23.3395 31.1406 23.2645 31.2032C23.202 31.2657 23.0894 31.297 22.9269 31.297C22.8143 31.297 22.6393 31.2407 22.4017 31.1281C22.1641 31.0156 21.914 30.8781 21.6514 30.7155C21.3888 30.5654 21.1325 30.4029 20.8824 30.2278C20.6323 30.0527 20.4322 29.8964 20.2821 29.7589C20.2071 29.6714 20.1446 29.5901 20.0946 29.515C20.0445 29.44 20.0195 29.3275 20.0195 29.1774C20.0195 28.3521 20.1571 27.3392 20.4322 26.1388C20.7073 24.9384 21.0887 23.6379 21.5764 22.2374C22.0515 20.8243 22.608 19.355 23.2457 17.8295C23.896 16.2914 24.5837 14.7846 25.309 13.309C26.0468 11.8335 26.8096 10.433 27.5973 9.10749C28.3976 7.7695 29.1792 6.59406 29.942 5.58119C30.7173 4.55581 31.455 3.73676 32.1553 3.12403C32.868 2.4988 33.5183 2.16742 34.106 2.12991C34.3936 2.21744 34.6812 2.35499 34.9688 2.54256C35.2689 2.73013 35.5503 2.93646 35.8129 3.16154C36.0755 3.38663 36.3068 3.60546 36.5069 3.81804C36.7195 4.03061 36.882 4.21193 36.9946 4.36199C37.0696 4.46202 37.1196 4.58082 37.1446 4.71837C37.1696 4.85592 37.1821 4.95596 37.1821 5.01848C37.1821 5.46865 37.0571 6.0251 36.807 6.68785C36.5569 7.35059 36.2068 8.09462 35.7566 8.91992C35.3064 9.74523 34.7562 10.6331 34.106 11.5834C33.4683 12.5213 32.7555 13.4904 31.9677 14.4907C31.1924 15.4786 30.3484 16.479 29.4355 17.4918C28.5352 18.5047 27.5911 19.4863 26.6032 20.4367C26.3531 21.1119 26.1281 21.7684 25.928 22.4062C26.6032 21.7059 27.2222 21.1182 27.7849 20.643C28.3476 20.1678 28.8478 19.7927 29.2855 19.5176C29.7231 19.23 30.092 19.0299 30.3921 18.9174C30.7047 18.7923 30.9423 18.7298 31.1049 18.7298C31.2174 18.7298 31.4175 18.8048 31.7051 18.9549C31.9927 19.0924 32.2928 19.2613 32.6054 19.4613C32.9181 19.6614 33.2057 19.8677 33.4683 20.0803C33.7309 20.2929 33.8934 20.4679 33.9559 20.6055C33.981 20.668 33.981 20.7556 33.9559 20.8681C33.9309 20.9681 33.9059 21.0494 33.8809 21.1119C33.7684 21.4496 33.6308 21.8435 33.4683 22.2936C33.3182 22.7313 33.1494 23.2002 32.9618 23.7004C32.7868 24.1881 32.6117 24.682 32.4366 25.1822C32.2616 25.6824 32.1053 26.145 31.9677 26.5702C31.8302 26.9829 31.7176 27.3517 31.6301 27.6769C31.5426 27.9895 31.4988 28.2083 31.4988 28.3334C31.4988 28.4084 31.5363 28.4459 31.6113 28.4459ZM29.9607 12.3149C29.6606 12.9527 29.3668 13.5904 29.0791 14.2281C28.804 14.8534 28.5352 15.4849 28.2726 16.1226C29.1104 15.0472 29.9232 13.9593 30.711 12.8589C31.4988 11.746 32.199 10.6831 32.8118 9.6702C33.437 8.64482 33.9372 7.70072 34.3123 6.8379C34.6875 5.97508 34.875 5.24982 34.875 4.6621C34.875 4.387 34.825 4.24944 34.725 4.24944C34.5749 4.24944 34.3436 4.45577 34.031 4.86842C33.7309 5.26857 33.3682 5.82503 32.9431 6.53779C32.5179 7.25056 32.049 8.10087 31.5363 9.08874C31.0361 10.0766 30.5109 11.152 29.9607 12.3149ZM45.7916 22.2561C45.629 22.7438 45.4227 23.3002 45.1726 23.9255C44.935 24.5507 44.7037 25.1634 44.4786 25.7637C44.2535 26.3639 44.0597 26.9078 43.8971 27.3955C43.7471 27.8832 43.672 28.2333 43.672 28.4459C43.672 28.5209 43.7096 28.5584 43.7846 28.5584C43.9221 28.5584 44.1285 28.4772 44.4036 28.3146C44.6787 28.152 44.9913 27.9395 45.3414 27.6769C45.704 27.4143 46.0792 27.1267 46.4668 26.814C46.8545 26.5014 47.2234 26.1951 47.5735 25.895C47.9361 25.5823 48.2612 25.301 48.5489 25.0509C48.8365 24.8008 49.0553 24.6132 49.2053 24.4882C49.3179 24.6007 49.4492 24.7445 49.5992 24.9196C49.7618 25.0947 49.9119 25.2572 50.0494 25.4073C49.7743 25.6824 49.4304 26.02 49.0178 26.4202C48.6051 26.8078 48.155 27.2079 47.6673 27.6206C47.1921 28.0332 46.6919 28.4459 46.1667 28.8586C45.654 29.2712 45.1476 29.6401 44.6474 29.9652C44.1597 30.2903 43.7033 30.5529 43.2782 30.753C42.853 30.9531 42.4966 31.0531 42.209 31.0531C42.0214 31.0531 41.7838 30.9843 41.4962 30.8468C41.2086 30.7217 40.9335 30.5592 40.6709 30.3591C40.4083 30.1715 40.1833 29.959 39.9957 29.7214C39.8081 29.4838 39.7143 29.2524 39.7143 29.0274C39.9019 28.1896 40.0895 27.458 40.277 26.8328C40.4646 26.2076 40.6397 25.6761 40.8022 25.2385C40.9648 24.7883 41.1086 24.4257 41.2336 24.1506C41.3587 23.8755 41.4525 23.6691 41.515 23.5316C41.3649 23.4691 41.2211 23.4003 41.0836 23.3253C40.946 23.2502 40.8085 23.1752 40.6709 23.1002C40.4709 23.3128 40.2458 23.5378 39.9957 23.7754C39.7581 24.013 39.5143 24.2506 39.2642 24.4882C39.0141 24.7258 38.764 24.9571 38.5139 25.1822C38.2638 25.4073 38.0387 25.6136 37.8386 25.8012L36.9383 24.8821C37.2634 24.5695 37.6573 24.1943 38.12 23.7567C38.5702 23.3065 39.0141 22.8563 39.4517 22.4062C39.1391 22.2186 38.8578 22.0435 38.6077 21.881C38.3576 21.7059 38.145 21.5496 37.9699 21.412C37.7574 21.262 37.5698 21.1244 37.4072 20.9994C37.3322 20.9619 37.2947 20.8806 37.2947 20.7556C37.2947 20.618 37.351 20.4242 37.4635 20.1741C37.5635 19.9115 37.6948 19.6364 37.8574 19.3488C38.02 19.0487 38.195 18.7486 38.3826 18.4485C38.5702 18.1358 38.7515 17.8545 38.9265 17.6044C39.1016 17.3543 39.2517 17.1542 39.3767 17.0042C39.5143 16.8416 39.6018 16.7603 39.6393 16.7603C39.6643 16.7603 39.7456 16.7916 39.8831 16.8541C40.0332 16.9166 40.1895 16.9917 40.3521 17.0792C40.5146 17.1542 40.6647 17.2418 40.8022 17.3418C40.9398 17.4418 41.0273 17.5294 41.0648 17.6044C41.0773 17.6669 41.0898 17.7982 41.1023 17.9983C41.1148 18.1984 41.1274 18.4422 41.1399 18.7298C41.6275 18.9799 42.1277 19.2675 42.6404 19.5926C43.1531 19.9052 43.622 20.2054 44.0472 20.493C44.5474 20.8181 45.0225 21.1495 45.4727 21.4871C45.6353 21.5871 45.7353 21.7122 45.7728 21.8622C45.8228 22.0123 45.8291 22.1436 45.7916 22.2561ZM51.4562 28.1083C51.4562 28.4834 51.5937 28.671 51.8688 28.671C52.1564 28.671 52.5378 28.4459 53.013 27.9957C53.4882 27.5331 53.9821 26.9516 54.4948 26.2513C54.4698 26.1138 54.451 25.995 54.4385 25.895C54.4385 25.7824 54.4385 25.6824 54.4385 25.5948C54.4385 25.3448 54.4635 25.0509 54.5136 24.7133C54.5761 24.3631 54.7199 23.9692 54.945 23.5316C55.095 23.194 55.2763 22.8626 55.4889 22.5375C55.664 22.2499 55.8766 21.9435 56.1267 21.6184C56.3767 21.2807 56.6519 20.9681 56.952 20.6805L57.0645 20.568C57.1896 20.718 57.3521 20.9244 57.5522 21.187C57.7648 21.4371 57.9711 21.6997 58.1712 21.9748C58.3837 22.2374 58.5651 22.4812 58.7151 22.7063C58.8777 22.9314 58.9777 23.0877 59.0152 23.1752C59.0152 23.7129 58.9152 24.2506 58.7151 24.7883C58.5275 25.326 58.2712 25.8574 57.9461 26.3826C58.6964 26.3326 59.3904 26.145 60.0281 25.8199C60.6783 25.4823 61.3536 24.9384 62.0539 24.1881C62.1664 24.3006 62.3102 24.4569 62.4853 24.657C62.6728 24.8446 62.8229 25.0071 62.9354 25.1447C62.4102 25.6949 61.8913 26.1513 61.3786 26.5139C60.8784 26.8766 60.372 27.1642 59.8593 27.3768C59.3591 27.5893 58.8464 27.7456 58.3212 27.8457C57.796 27.9332 57.2583 27.977 56.7081 27.977C56.283 28.4271 55.8265 28.8398 55.3389 29.2149C54.8512 29.5901 54.351 29.9152 53.8383 30.1903C53.3381 30.4654 52.8379 30.678 52.3378 30.828C51.8376 30.9781 51.3624 31.0531 50.9122 31.0531C50.5371 31.0531 50.1494 30.9406 49.7493 30.7155C49.3491 30.4904 48.9865 30.2153 48.6614 29.8902C48.3363 29.5526 48.0674 29.1962 47.8548 28.821C47.6423 28.4459 47.536 28.1145 47.536 27.8269C47.536 26.8766 47.6673 25.9325 47.9299 24.9946C48.18 24.0568 48.5801 23.1815 49.1303 22.3687C49.668 21.5433 50.3558 20.8181 51.1936 20.1928C52.0439 19.5676 53.0505 19.0924 54.2134 18.7673C54.251 18.7423 54.3135 18.7236 54.401 18.711C54.5011 18.6985 54.5823 18.6923 54.6449 18.6923C54.8199 18.6923 55.0012 18.7611 55.1888 18.8986C55.3889 19.0237 55.5702 19.1675 55.7328 19.33C55.9078 19.4926 56.0516 19.6551 56.1642 19.8177C56.2767 19.9678 56.333 20.0678 56.333 20.1178C56.308 20.1803 56.2142 20.2616 56.0516 20.3617C55.8891 20.4492 55.6702 20.6055 55.3951 20.8306C55.12 21.0557 54.7949 21.3808 54.4198 21.8059C54.0446 22.2186 53.632 22.7688 53.1818 23.4566C52.5066 24.4694 52.0501 25.3885 51.8126 26.2138C51.575 27.0266 51.4562 27.6581 51.4562 28.1083ZM66.8556 20.9619C66.7056 21.3495 66.5555 21.7497 66.4055 22.1623C66.2554 22.575 66.1116 22.9939 65.9741 23.419C66.7618 22.4812 67.4121 21.7309 67.9248 21.1682C68.45 20.6055 68.8814 20.1678 69.219 19.8552C69.5691 19.5426 69.8567 19.3238 70.0818 19.1987C70.3069 19.0737 70.5132 18.9799 70.7008 18.9174C70.8133 18.9174 71.0009 18.9799 71.2635 19.1049C71.5386 19.23 71.8262 19.3863 72.1263 19.5739C72.4389 19.7489 72.7328 19.9365 73.0079 20.1366C73.283 20.3241 73.4768 20.4805 73.5894 20.6055C73.6894 20.7055 73.7019 20.8493 73.6269 21.0369C73.4768 21.4371 73.3268 21.8435 73.1767 22.2561C73.0392 22.6563 72.9016 23.0689 72.7641 23.4941C73.6019 22.5312 74.3021 21.7622 74.8648 21.187C75.4275 20.5992 75.884 20.1491 76.2341 19.8365C76.5967 19.5238 76.8781 19.3175 77.0782 19.2175C77.2782 19.1174 77.4345 19.0674 77.5471 19.0674C77.7096 19.0674 77.9535 19.1487 78.2786 19.3113C78.6037 19.4738 78.9288 19.6739 79.254 19.9115C79.5916 20.1491 79.8792 20.3929 80.1168 20.643C80.3669 20.8931 80.4919 21.1119 80.4919 21.2995C80.4919 21.337 80.4857 21.387 80.4732 21.4496C80.4607 21.4996 80.4419 21.5684 80.4169 21.6559C80.3169 21.9685 80.1856 22.3374 80.023 22.7625C79.8729 23.1877 79.7104 23.6316 79.5353 24.0943C79.3603 24.5445 79.1852 25.0009 79.0101 25.4635C78.8351 25.9137 78.6788 26.3389 78.5412 26.739C78.4037 27.1392 78.2911 27.4893 78.2036 27.7894C78.116 28.0895 78.0723 28.3084 78.0723 28.4459C78.0723 28.5209 78.1098 28.5584 78.1848 28.5584C78.3224 28.5584 78.5287 28.4772 78.8038 28.3146C79.0789 28.152 79.3915 27.9395 79.7416 27.6769C80.1043 27.4143 80.4794 27.1267 80.8671 26.814C81.2547 26.5014 81.6236 26.1951 81.9737 25.895C82.3364 25.5823 82.6615 25.301 82.9491 25.0509C83.2367 24.8008 83.4555 24.6132 83.6056 24.4882C83.7181 24.6007 83.8494 24.7445 83.9995 24.9196C84.162 25.0947 84.3121 25.2572 84.4496 25.4073C84.1745 25.6824 83.8307 26.02 83.418 26.4202C83.0054 26.8078 82.5552 27.2079 82.0675 27.6206C81.5923 28.0332 81.0921 28.4459 80.567 28.8586C80.0543 29.2712 79.5541 29.6401 79.0664 29.9652C78.5787 30.2903 78.1223 30.5529 77.6971 30.753C77.272 30.9531 76.9093 31.0531 76.6092 31.0531C76.4217 31.0531 76.1841 30.9843 75.8965 30.8468C75.6089 30.7217 75.3338 30.5592 75.0712 30.3591C74.8086 30.1715 74.5835 29.959 74.3959 29.7214C74.2083 29.4838 74.1146 29.2524 74.1146 29.0274C74.2271 28.5147 74.3772 27.9332 74.5647 27.283C74.7523 26.6327 74.9586 25.97 75.1837 25.2947C75.4088 24.607 75.6401 23.9317 75.8777 23.269C76.1278 22.6062 76.3654 21.9935 76.5905 21.4308C76.3404 21.7309 76.009 22.0935 75.5964 22.5187C75.1837 22.9439 74.7148 23.5066 74.1896 24.2068C73.6644 24.8946 73.1017 25.7512 72.5015 26.7765C71.9012 27.8019 71.301 29.0524 70.7008 30.5279C70.6258 30.778 70.4445 30.9031 70.1568 30.9031C70.0068 30.9031 69.8192 30.8718 69.5941 30.8093C69.3816 30.7593 69.1502 30.6717 68.9001 30.5467C68.6625 30.4341 68.4125 30.2903 68.1499 30.1153C67.8998 29.9402 67.6622 29.7276 67.4371 29.4775C67.4371 29.39 67.4809 29.1274 67.5684 28.6897C67.6684 28.2396 67.806 27.6706 67.981 26.9829C68.1686 26.2951 68.3874 25.5261 68.6375 24.6758C68.8876 23.8254 69.169 22.9501 69.4816 22.0498C69.1815 22.3749 68.8063 22.7938 68.3562 23.3065C67.906 23.8067 67.4246 24.4194 66.9119 25.1447C66.3992 25.8574 65.874 26.689 65.3363 27.6394C64.7986 28.5897 64.2922 29.6651 63.817 30.8655C63.742 31.1281 63.5669 31.2594 63.2918 31.2594C63.0792 31.2594 62.8416 31.1969 62.579 31.0719C62.3039 30.9593 62.0288 30.803 61.7537 30.6029C61.4661 30.4154 61.1848 30.2028 60.9097 29.9652C60.6221 29.7276 60.3657 29.49 60.1406 29.2524C60.1406 29.1774 60.1782 28.9648 60.2532 28.6147C60.3157 28.2646 60.4095 27.8269 60.5345 27.3017C60.6596 26.764 60.8159 26.1576 61.0035 25.4823C61.1785 24.7945 61.3849 24.0755 61.6224 23.3253C61.86 22.575 62.1226 21.8122 62.4102 21.0369C62.6978 20.2491 63.0042 19.4926 63.3293 18.7673C63.8545 19.0174 64.436 19.3238 65.0737 19.6864C65.724 20.049 66.3179 20.4742 66.8556 20.9619ZM94.147 28.3709C94.147 28.4459 94.1845 28.4834 94.2595 28.4834C94.3721 28.4834 94.5596 28.4021 94.8222 28.2396C95.0848 28.077 95.3849 27.8707 95.7226 27.6206C96.0602 27.3705 96.4166 27.0891 96.7917 26.7765C97.1794 26.4639 97.5482 26.1576 97.8984 25.8574C98.2485 25.5573 98.5611 25.2822 98.8362 25.0321C99.1238 24.782 99.3427 24.5882 99.4927 24.4507C99.6053 24.5632 99.7428 24.7133 99.9054 24.9008C100.08 25.0884 100.237 25.2572 100.374 25.4073C100.074 25.6824 99.7115 26.02 99.2864 26.4202C98.8737 26.8078 98.4236 27.2142 97.9359 27.6394C97.4607 28.0645 96.9668 28.4897 96.4541 28.9148C95.9414 29.3275 95.4412 29.6964 94.9535 30.0215C94.4658 30.3466 94.0032 30.6092 93.5655 30.8093C93.1279 31.0219 92.7465 31.1281 92.4213 31.1281C92.1963 31.1281 91.9462 31.0844 91.6711 30.9968C91.4085 30.9093 91.1646 30.7843 90.9395 30.6217C90.7145 30.4717 90.5269 30.2903 90.3768 30.0778C90.2268 29.8652 90.1518 29.6276 90.1518 29.365C90.1518 29.265 90.1455 29.1462 90.133 29.0086C90.133 28.8586 90.1455 28.671 90.1705 28.4459C90.1955 28.2083 90.2455 27.927 90.3206 27.6018C90.3956 27.2642 90.5081 26.8516 90.6582 26.3639C90.2455 26.8015 89.7579 27.258 89.1951 27.7331C88.6449 28.2083 88.0635 28.6585 87.4508 29.0836C86.838 29.5088 86.219 29.8902 85.5938 30.2278C84.9811 30.5779 84.4121 30.8405 83.8869 31.0156C83.8244 31.0406 83.7744 31.0531 83.7369 31.0531C83.6994 31.0531 83.6619 31.0531 83.6243 31.0531C83.4993 31.0531 83.3367 30.9906 83.1367 30.8655C82.9241 30.7405 82.7178 30.5717 82.5177 30.3591C82.3176 30.159 82.1488 29.9277 82.0112 29.6651C81.8612 29.4025 81.7862 29.1399 81.7862 28.8773C81.7862 28.8023 81.8237 28.5522 81.8987 28.127C81.9737 27.7019 82.155 27.1642 82.4426 26.5139C82.7178 25.8512 83.1304 25.1134 83.6806 24.3006C84.2308 23.4753 84.9811 22.6312 85.9314 21.7684C86.4191 21.3308 86.9443 20.9181 87.507 20.5305C87.9822 20.2054 88.5262 19.874 89.1389 19.5364C89.7516 19.1987 90.3956 18.9299 91.0708 18.7298C91.0959 18.7298 91.1146 18.7236 91.1271 18.711C91.1521 18.6985 91.1834 18.7048 91.2209 18.7298C91.371 18.7798 91.546 18.8611 91.7461 18.9736C91.9587 19.0737 92.165 19.1862 92.3651 19.3113C92.5777 19.4238 92.759 19.5426 92.909 19.6677C93.0716 19.7802 93.1779 19.874 93.2279 19.949C93.2404 19.974 93.2404 19.9928 93.2279 20.0053L93.1904 20.0428C92.6277 20.3429 92.0962 20.6805 91.596 21.0557C91.0959 21.4183 90.6519 21.7622 90.2643 22.0873C89.8141 22.4749 89.3952 22.8563 89.0076 23.2315C88.0947 24.1318 87.4633 24.9133 87.1131 25.5761C86.763 26.2263 86.5879 26.6953 86.5879 26.9829C86.5879 27.1954 86.6755 27.3017 86.8505 27.3017C87.0256 27.3017 87.2444 27.233 87.507 27.0954C87.7821 26.9453 88.0885 26.7515 88.4261 26.5139C88.7637 26.2638 89.1326 25.9762 89.5328 25.6511C89.9454 25.3135 90.3706 24.9634 90.8082 24.6007C91.1959 24.2881 91.571 23.9505 91.9337 23.5879C92.2463 23.2877 92.5714 22.9439 92.909 22.5562C93.2466 22.1686 93.5343 21.7747 93.7718 21.3745C93.7718 21.362 93.7781 21.3495 93.7906 21.337C93.8031 21.3245 93.8219 21.3245 93.8469 21.337C93.9844 21.4371 94.1407 21.6059 94.3158 21.8435C94.4909 22.0685 94.6534 22.3186 94.8035 22.5937C94.9535 22.8688 95.0786 23.1377 95.1786 23.4003C95.2912 23.6504 95.3474 23.8442 95.3474 23.9817C95.0598 24.5695 94.8347 25.1072 94.6722 25.5948C94.5221 26.07 94.4033 26.4889 94.3158 26.8516C94.2408 27.2142 94.1907 27.5268 94.1657 27.7894C94.1532 28.0395 94.147 28.2333 94.147 28.3709Z" fill="#222222"/>
<path d="M131.132 20.1531C131.373 20.0003 131.626 19.8074 131.891 19.5743C132.165 19.3331 132.434 19.0638 132.699 18.7664C132.973 18.4609 133.234 18.1354 133.483 17.7897C133.732 17.436 133.949 17.0823 134.134 16.7286C134.327 16.3669 134.48 16.0091 134.592 15.6554C134.705 15.2937 134.761 14.948 134.761 14.6184C134.761 14.3692 134.741 14.1683 134.701 14.0155C134.661 13.8628 134.604 13.7462 134.532 13.6659C134.468 13.5774 134.391 13.5171 134.303 13.485C134.215 13.4528 134.122 13.4367 134.026 13.4367C133.64 13.4367 133.202 13.6015 132.711 13.9311C132.221 14.2527 131.702 14.6948 131.156 15.2575C130.617 15.8122 130.063 16.4633 129.492 17.2109C128.929 17.9585 128.382 18.7624 127.852 19.6225C127.321 20.4746 126.819 21.3549 126.345 22.2632C125.878 23.1716 125.468 24.0679 125.115 24.9522C124.769 25.8364 124.492 26.6845 124.283 27.4964C124.082 28.3003 123.981 29.0238 123.981 29.6669C123.981 29.908 123.997 30.109 124.029 30.2698C124.07 30.4225 124.122 30.5471 124.186 30.6436C124.259 30.732 124.347 30.7923 124.452 30.8244C124.556 30.8566 124.677 30.8727 124.813 30.8727C125.046 30.8727 125.32 30.7762 125.633 30.5833C125.955 30.3823 126.292 30.1251 126.646 29.8116C127.008 29.4981 127.37 29.1484 127.731 28.7625C128.101 28.3767 128.447 27.9988 128.768 27.6291C129.09 27.2512 129.379 26.9056 129.636 26.5921C129.894 26.2705 130.091 26.0173 130.227 25.8324C130.227 25.8404 130.324 25.9249 130.517 26.0856C130.718 26.2464 130.951 26.4393 131.216 26.6644C131.481 26.8895 131.747 27.1186 132.012 27.3517C132.277 27.5768 132.478 27.7617 132.615 27.9064C132.422 28.1234 132.177 28.4008 131.879 28.7384C131.582 29.076 131.244 29.4337 130.866 29.8116C130.497 30.1813 130.099 30.5551 129.673 30.933C129.247 31.3108 128.808 31.6484 128.358 31.9458C127.908 32.2513 127.454 32.4965 126.996 32.6814C126.538 32.8743 126.091 32.9708 125.657 32.9708C125.344 32.9708 125.01 32.8743 124.657 32.6814C124.303 32.4965 123.953 32.2513 123.607 31.9458C123.262 31.6484 122.94 31.3148 122.643 30.945C122.345 30.5833 122.096 30.2215 121.895 29.8598C121.654 29.4096 121.513 28.9956 121.473 28.6178C121.433 28.24 121.413 27.9385 121.413 27.7135C121.413 27.0945 121.501 26.3951 121.678 25.6154C121.855 24.8356 122.108 24.0237 122.438 23.1796C122.767 22.3275 123.165 21.4634 123.632 20.5872C124.098 19.7109 124.612 18.8629 125.175 18.0429C125.746 17.223 126.361 16.4513 127.02 15.7278C127.687 15.0043 128.382 14.3733 129.106 13.8347C129.837 13.2961 130.589 12.874 131.361 12.5686C132.141 12.2551 132.928 12.0983 133.724 12.0983C133.949 12.0983 134.186 12.1586 134.436 12.2792C134.685 12.3917 134.93 12.5445 135.171 12.7374C135.412 12.9223 135.645 13.1393 135.87 13.3885C136.096 13.6377 136.293 13.895 136.461 14.1602C136.63 14.4175 136.763 14.6787 136.859 14.944C136.964 15.2012 137.016 15.4384 137.016 15.6554C137.016 16.1377 136.92 16.6723 136.727 17.2591C136.534 17.8379 136.272 18.4248 135.943 19.0196C135.613 19.6064 135.219 20.1812 134.761 20.7439C134.311 21.3066 133.829 21.809 133.314 22.2512L131.132 20.1531ZM137.137 30.0768C137.265 30.0768 137.438 30.0206 137.655 29.908C137.88 29.7955 138.125 29.6548 138.391 29.486C138.656 29.3091 138.933 29.1162 139.223 28.9072C139.512 28.6982 139.781 28.4932 140.03 28.2922C140.288 28.0913 140.517 27.9064 140.718 27.7376C140.919 27.5688 141.067 27.4442 141.164 27.3638C141.236 27.4361 141.321 27.5286 141.417 27.6411C141.522 27.7537 141.618 27.8582 141.707 27.9546C141.53 28.1315 141.309 28.3485 141.043 28.6058C140.778 28.855 140.489 29.1122 140.175 29.3775C139.87 29.6427 139.548 29.908 139.211 30.1733C138.881 30.4386 138.555 30.6757 138.234 30.8847C137.92 31.0937 137.627 31.2625 137.354 31.3912C137.08 31.5198 136.851 31.5841 136.666 31.5841C136.417 31.5841 136.152 31.4957 135.87 31.3188C135.597 31.142 135.34 30.937 135.099 30.7039C134.858 30.4627 134.653 30.2215 134.484 29.9804C134.315 29.7392 134.219 29.5583 134.194 29.4378C134.178 29.3895 134.17 29.3333 134.17 29.2689C134.17 29.1966 134.17 29.1202 134.17 29.0398C134.17 28.6379 134.223 28.1315 134.327 27.5205C134.424 26.9016 134.556 26.2504 134.725 25.5671C134.894 24.8758 135.087 24.1925 135.304 23.5173C135.529 22.834 135.762 22.2311 136.003 21.7086C136.493 20.6394 136.996 19.6908 137.51 18.8629C138.033 18.0349 138.543 17.3154 139.042 16.7045C139.54 16.0855 140.018 15.567 140.477 15.149C140.935 14.731 141.345 14.3934 141.707 14.1361C142.076 13.8789 142.386 13.694 142.635 13.5814C142.892 13.4689 143.069 13.4126 143.166 13.4126C143.318 13.4689 143.471 13.5533 143.624 13.6659C143.785 13.7704 143.933 13.8829 144.07 14.0035C144.207 14.1241 144.327 14.2446 144.432 14.3652C144.536 14.4778 144.613 14.5622 144.661 14.6184C144.725 14.6827 144.765 14.7471 144.781 14.8114C144.805 14.8676 144.818 14.944 144.818 15.0405C144.818 15.2334 144.769 15.4987 144.673 15.8363C144.576 16.1739 144.396 16.604 144.13 17.1265C143.865 17.641 143.495 18.26 143.021 18.9834C142.555 19.7069 141.944 20.551 141.188 21.5156C140.834 21.9658 140.461 22.424 140.067 22.8902C139.729 23.2922 139.339 23.7303 138.897 24.2046C138.455 24.6789 138.001 25.133 137.534 25.5671C137.301 26.4514 137.137 27.2311 137.04 27.9064C136.952 28.5816 136.907 29.1082 136.907 29.486C136.907 29.7352 136.928 29.896 136.968 29.9683C137.008 30.0407 137.064 30.0768 137.137 30.0768ZM139.066 21.2383C138.929 21.5438 138.801 21.8412 138.68 22.1306C138.567 22.42 138.459 22.7054 138.354 22.9867C138.604 22.7054 138.829 22.4361 139.03 22.1788C139.239 21.9216 139.416 21.7005 139.56 21.5156C139.729 21.2986 139.882 21.0936 140.018 20.9007C140.581 20.1129 141.067 19.3894 141.477 18.7302C141.887 18.0711 142.225 17.4923 142.49 16.9939C142.756 16.4874 142.949 16.0694 143.069 15.7398C143.198 15.4022 143.262 15.161 143.262 15.0164C143.262 14.9762 143.258 14.948 143.25 14.9319C143.25 14.9078 143.23 14.8958 143.19 14.8958C143.117 14.8958 142.953 15.0164 142.695 15.2575C142.438 15.4906 142.121 15.8644 141.743 16.3789C141.373 16.8934 140.955 17.5526 140.489 18.3564C140.03 19.1523 139.556 20.1129 139.066 21.2383ZM141.936 31.5841C141.815 31.5841 141.662 31.5399 141.477 31.4515C141.293 31.3711 141.116 31.2666 140.947 31.1379C140.778 31.0174 140.633 30.8807 140.513 30.728C140.392 30.5752 140.332 30.4265 140.332 30.2818C140.412 29.9281 140.521 29.5222 140.658 29.064C140.794 28.6058 140.943 28.1395 141.104 27.6652C141.256 27.1909 141.421 26.7287 141.598 26.2786C141.767 25.8204 141.92 25.4144 142.056 25.0607C142.201 24.707 142.326 24.4216 142.43 24.2046C142.535 23.9875 142.603 23.879 142.635 23.879C142.683 23.879 142.804 23.9313 142.997 24.0358C143.19 24.1403 143.391 24.2689 143.6 24.4216C143.817 24.5663 144.01 24.7231 144.178 24.8919C144.347 25.0527 144.432 25.1933 144.432 25.3139C144.432 25.338 144.428 25.3702 144.42 25.4104C144.412 25.4425 144.4 25.4867 144.383 25.543C144.319 25.744 144.235 25.9811 144.13 26.2544C144.034 26.5278 143.929 26.8131 143.817 27.1106C143.704 27.4 143.592 27.6934 143.479 27.9908C143.367 28.2802 143.266 28.5535 143.178 28.8107C143.089 29.068 143.017 29.2931 142.961 29.486C142.904 29.6789 142.876 29.8196 142.876 29.908C142.876 29.9563 142.9 29.9804 142.949 29.9804C143.037 29.9804 143.17 29.9281 143.346 29.8236C143.523 29.7191 143.724 29.5825 143.949 29.4136C144.182 29.2448 144.424 29.0599 144.673 28.859C144.922 28.658 145.159 28.4611 145.384 28.2681C145.617 28.0672 145.826 27.8863 146.011 27.7255C146.196 27.5647 146.337 27.4442 146.433 27.3638C146.506 27.4361 146.59 27.5286 146.687 27.6411C146.791 27.7537 146.887 27.8582 146.976 27.9546C146.799 28.1315 146.578 28.3485 146.313 28.6058C146.047 28.855 145.758 29.1122 145.445 29.3775C145.139 29.6427 144.818 29.908 144.48 30.1733C144.15 30.4386 143.829 30.6757 143.515 30.8847C143.202 31.0937 142.908 31.2625 142.635 31.3912C142.362 31.5198 142.129 31.5841 141.936 31.5841ZM146.711 20.2013C146.703 20.2335 146.67 20.3138 146.614 20.4425C146.566 20.563 146.506 20.7077 146.433 20.8766C146.361 21.0373 146.277 21.2102 146.18 21.3951C146.092 21.5719 146.003 21.7367 145.915 21.8894C145.826 22.0422 145.742 22.1708 145.662 22.2753C145.581 22.3718 145.517 22.42 145.469 22.42C145.324 22.4119 145.147 22.3677 144.938 22.2873C144.737 22.207 144.54 22.1185 144.347 22.0221C144.162 21.9176 144.002 21.8171 143.865 21.7206C143.736 21.6242 143.672 21.5558 143.672 21.5156C143.672 21.3468 143.72 21.1298 143.817 20.8645C143.913 20.5912 144.026 20.3299 144.154 20.0807C144.283 19.8235 144.412 19.6024 144.54 19.4175C144.677 19.2326 144.781 19.1402 144.854 19.1402C144.998 19.1402 145.175 19.1884 145.384 19.2849C145.593 19.3733 145.794 19.4778 145.987 19.5984C146.188 19.719 146.357 19.8396 146.494 19.9601C146.638 20.0727 146.711 20.1531 146.711 20.2013ZM147.35 31.8132C147.205 31.8132 147.04 31.765 146.855 31.6685C146.67 31.5801 146.482 31.4555 146.289 31.2947C146.096 31.142 145.911 30.9611 145.734 30.7521C145.549 30.535 145.396 30.31 145.276 30.0768C145.228 29.9884 145.195 29.8879 145.179 29.7754C145.163 29.6628 145.155 29.5181 145.155 29.3413C145.155 28.8831 145.228 28.4249 145.372 27.9667C145.509 27.5004 145.702 27.0583 145.951 26.6403C146.2 26.2223 146.502 25.8324 146.855 25.4707C147.201 25.1009 147.579 24.7834 147.989 24.5181C148.399 24.2528 148.837 24.0438 149.303 23.8911C149.769 23.7383 150.244 23.662 150.726 23.662C150.798 23.662 150.895 23.7022 151.015 23.7825C151.144 23.8549 151.281 23.9554 151.425 24.084C151.57 24.2126 151.715 24.3573 151.859 24.5181C152.012 24.6789 152.149 24.8436 152.269 25.0125C152.39 25.1732 152.486 25.334 152.559 25.4948C152.639 25.6475 152.679 25.7842 152.679 25.9048C152.639 26.0575 152.515 26.2263 152.306 26.4112C152.097 26.588 151.847 26.7569 151.558 26.9176C151.277 27.0704 150.979 27.199 150.666 27.3035C150.352 27.408 150.079 27.4602 149.846 27.4602C149.709 27.4602 149.641 27.42 149.641 27.3397C149.641 27.2512 149.701 27.1226 149.822 26.9538C149.942 26.777 150.075 26.588 150.22 26.3871C150.372 26.1781 150.509 25.9731 150.63 25.7721C150.75 25.5631 150.81 25.3863 150.81 25.2416C150.81 25.1692 150.79 25.1089 150.75 25.0607C150.718 25.0125 150.67 24.9883 150.605 24.9883C150.429 24.9883 150.244 25.0687 150.051 25.2295C149.858 25.3903 149.665 25.6033 149.472 25.8686C149.279 26.1339 149.094 26.4393 148.917 26.785C148.74 27.1226 148.584 27.4723 148.447 27.834C148.318 28.1958 148.214 28.5575 148.133 28.9193C148.053 29.281 148.013 29.6106 148.013 29.908C148.013 30.0849 148.065 30.2095 148.17 30.2818C148.274 30.3461 148.435 30.3783 148.652 30.3783C149.191 30.3783 149.709 30.2899 150.207 30.113C150.714 29.9281 151.196 29.695 151.654 29.4136C152.121 29.1243 152.563 28.8027 152.981 28.449C153.399 28.0953 153.793 27.7416 154.163 27.3879C154.251 27.4924 154.359 27.5969 154.488 27.7014C154.617 27.7979 154.713 27.8823 154.777 27.9546C154.279 28.4771 153.749 28.9755 153.186 29.4498C152.631 29.9161 152.044 30.326 151.425 30.6797C150.806 31.0254 150.155 31.2987 149.472 31.4997C148.797 31.7087 148.089 31.8132 147.35 31.8132ZM160.819 29.7151C160.947 29.7151 161.108 29.6669 161.301 29.5704C161.502 29.4739 161.719 29.3534 161.952 29.2087C162.185 29.0559 162.422 28.8871 162.663 28.7022C162.913 28.5173 163.146 28.3365 163.363 28.1596C163.588 27.9828 163.789 27.818 163.966 27.6652C164.143 27.5125 164.279 27.3959 164.376 27.3155C164.448 27.3879 164.532 27.4803 164.629 27.5929C164.733 27.7054 164.83 27.8099 164.918 27.9064C164.741 28.0832 164.52 28.3003 164.255 28.5575C163.99 28.8067 163.7 29.064 163.387 29.3292C163.081 29.5945 162.76 29.8598 162.422 30.1251C162.093 30.3903 161.767 30.6275 161.446 30.8365C161.132 31.0455 160.839 31.2143 160.565 31.3429C160.292 31.4715 160.063 31.5359 159.878 31.5359C159.565 31.5359 159.279 31.4715 159.022 31.3429C158.773 31.2223 158.544 31.0656 158.335 30.8727C158.134 30.6717 157.945 30.4466 157.768 30.1974C157.591 29.9402 157.426 29.6789 157.273 29.4136C157.137 29.5905 156.996 29.7874 156.851 30.0045C156.715 30.2135 156.586 30.4145 156.466 30.6074C156.345 30.8003 156.245 30.9691 156.164 31.1138C156.084 31.2585 156.032 31.3469 156.007 31.3791C155.991 31.4434 155.967 31.4876 155.935 31.5117C155.903 31.5439 155.851 31.56 155.778 31.56C155.658 31.56 155.513 31.5117 155.344 31.4153C155.183 31.3269 155.019 31.2063 154.85 31.0535C154.681 30.9008 154.516 30.736 154.355 30.5592C154.187 30.3743 154.042 30.1894 153.921 30.0045C153.857 29.9161 153.817 29.8156 153.801 29.703C153.785 29.5905 153.777 29.4538 153.777 29.2931C153.777 28.7625 153.841 28.1636 153.97 27.4964C154.098 26.8292 154.279 26.1298 154.512 25.3983C154.745 24.6588 155.023 23.8991 155.344 23.1194C155.674 22.3316 156.036 21.5558 156.429 20.7922C156.823 20.0204 157.249 19.2688 157.708 18.5373C158.166 17.8058 158.64 17.1225 159.13 16.4874C159.621 15.8524 160.123 15.2816 160.638 14.7752C161.152 14.2688 161.671 13.8548 162.193 13.5332C162.274 13.485 162.346 13.4528 162.41 13.4367C162.483 13.4207 162.543 13.4126 162.591 13.4126C162.688 13.4126 162.824 13.4689 163.001 13.5814C163.178 13.6859 163.363 13.8146 163.556 13.9673C163.757 14.12 163.942 14.2728 164.11 14.4255C164.287 14.5782 164.416 14.7028 164.496 14.7993C164.544 14.8717 164.569 14.9762 164.569 15.1128C164.569 15.6434 164.392 16.3066 164.038 17.1024C163.684 17.8902 163.186 18.7624 162.543 19.719C161.9 20.6676 161.12 21.6764 160.204 22.7456C159.295 23.8147 158.282 24.8879 157.165 25.965C157.044 26.375 156.928 26.785 156.815 27.195C156.703 27.5969 156.598 28.0029 156.502 28.4128C157.257 27.3276 157.925 26.4715 158.503 25.8445C159.09 25.2094 159.593 24.7311 160.011 24.4096C160.429 24.08 160.766 23.871 161.024 23.7825C161.289 23.6861 161.474 23.6378 161.578 23.6378C161.675 23.6378 161.787 23.6901 161.916 23.7946C162.052 23.8911 162.181 24.0076 162.302 24.1443C162.422 24.2729 162.531 24.4015 162.627 24.5301C162.724 24.6507 162.788 24.7391 162.82 24.7954C162.828 24.8758 162.744 25.0406 162.567 25.2898C162.39 25.531 162.145 25.8123 161.831 26.1339C161.518 26.4554 161.144 26.7971 160.71 27.1588C160.284 27.5125 159.818 27.8421 159.311 28.1476C159.569 28.5173 159.79 28.8067 159.974 29.0157C160.159 29.2247 160.316 29.3815 160.445 29.486C160.589 29.6066 160.714 29.6829 160.819 29.7151ZM159.528 19.9843C159.287 20.4666 159.038 21.0012 158.781 21.588C158.532 22.1748 158.282 22.7978 158.033 23.457C158.925 22.4441 159.685 21.5036 160.312 20.6354C160.947 19.7672 161.466 18.9834 161.868 18.2841C162.278 17.5767 162.575 16.9537 162.76 16.4151C162.945 15.8765 163.037 15.4263 163.037 15.0646C163.037 15.0405 163.033 15.0164 163.025 14.9922C163.025 14.9601 163.005 14.944 162.965 14.944C162.868 14.944 162.712 15.0565 162.495 15.2816C162.278 15.5067 162.016 15.8363 161.711 16.2704C161.405 16.7045 161.064 17.235 160.686 17.862C160.316 18.481 159.93 19.1884 159.528 19.9843Z" fill="#222222"/>
</svg>
