<svg width="184" height="54" viewBox="0 0 184 54" fill="none" xmlns="http://www.w3.org/2000/svg">
<path d="M114.177 51.6372C113.667 51.6372 113.206 51.521 112.794 51.2886C112.382 51.0487 112.052 50.7076 111.804 50.2653C111.564 49.8155 111.445 49.2682 111.445 48.6235C111.445 47.9788 111.564 47.4353 111.804 46.993C112.044 46.5432 112.37 46.202 112.783 45.9696C113.195 45.7372 113.66 45.621 114.177 45.621C114.739 45.621 115.242 45.7485 115.684 46.0034C116.134 46.2508 116.486 46.6031 116.741 47.0604C116.996 47.5102 117.123 48.0313 117.123 48.6235C117.123 49.2233 116.996 49.748 116.741 50.1978C116.486 50.6476 116.134 51 115.684 51.2549C115.242 51.5098 114.739 51.6372 114.177 51.6372ZM111.13 53.7626V45.6773H111.894V47.454L111.816 48.6348L111.928 49.8267V53.7626H111.13ZM114.121 50.9288C114.541 50.9288 114.916 50.8351 115.245 50.6476C115.575 50.4527 115.838 50.1828 116.033 49.838C116.227 49.4856 116.325 49.0808 116.325 48.6235C116.325 48.1662 116.227 47.7651 116.033 47.4203C115.838 47.0754 115.575 46.8055 115.245 46.6106C114.916 46.4157 114.541 46.3182 114.121 46.3182C113.701 46.3182 113.322 46.4157 112.985 46.6106C112.655 46.8055 112.393 47.0754 112.198 47.4203C112.011 47.7651 111.917 48.1662 111.917 48.6235C111.917 49.0808 112.011 49.4856 112.198 49.838C112.393 50.1828 112.655 50.4527 112.985 50.6476C113.322 50.8351 113.701 50.9288 114.121 50.9288Z" fill="#222222"/>
<path d="M121.765 45.621C122.244 45.621 122.664 45.7148 123.024 45.9022C123.391 46.0821 123.676 46.3595 123.879 46.7343C124.089 47.1092 124.194 47.5815 124.194 48.1512V51.581H123.395V48.2299C123.395 47.6077 123.238 47.1391 122.923 46.8243C122.615 46.5019 122.181 46.3407 121.618 46.3407C121.199 46.3407 120.831 46.4269 120.516 46.5994C120.209 46.7643 119.969 47.008 119.797 47.3303C119.632 47.6452 119.549 48.0275 119.549 48.4773V51.581H118.751V43.2371H119.549V47.2966L119.392 46.993C119.579 46.5656 119.879 46.232 120.291 45.9921C120.704 45.7447 121.195 45.621 121.765 45.621Z" fill="#222222"/>
<path d="M128.757 51.6372C128.187 51.6372 127.673 51.5098 127.216 51.2549C126.766 50.9925 126.41 50.6364 126.148 50.1866C125.885 49.7293 125.754 49.2083 125.754 48.6235C125.754 48.0313 125.885 47.5102 126.148 47.0604C126.41 46.6106 126.766 46.2583 127.216 46.0034C127.666 45.7485 128.179 45.621 128.757 45.621C129.341 45.621 129.859 45.7485 130.309 46.0034C130.766 46.2583 131.122 46.6106 131.377 47.0604C131.639 47.5102 131.77 48.0313 131.77 48.6235C131.77 49.2083 131.639 49.7293 131.377 50.1866C131.122 50.6364 130.766 50.9925 130.309 51.2549C129.851 51.5098 129.334 51.6372 128.757 51.6372ZM128.757 50.9288C129.184 50.9288 129.563 50.8351 129.892 50.6476C130.222 50.4527 130.481 50.1828 130.668 49.838C130.863 49.4856 130.961 49.0808 130.961 48.6235C130.961 48.1587 130.863 47.7539 130.668 47.409C130.481 47.0642 130.222 46.798 129.892 46.6106C129.563 46.4157 129.188 46.3182 128.768 46.3182C128.348 46.3182 127.973 46.4157 127.643 46.6106C127.314 46.798 127.051 47.0642 126.856 47.409C126.661 47.7539 126.564 48.1587 126.564 48.6235C126.564 49.0808 126.661 49.4856 126.856 49.838C127.051 50.1828 127.314 50.4527 127.643 50.6476C127.973 50.8351 128.344 50.9288 128.757 50.9288Z" fill="#222222"/>
<path d="M135.267 51.6372C134.712 51.6372 134.285 51.4873 133.985 51.1874C133.685 50.8875 133.535 50.464 133.535 49.9167V44.3728H134.334V49.8717C134.334 50.2166 134.42 50.4827 134.592 50.6701C134.772 50.8576 135.027 50.9513 135.357 50.9513C135.709 50.9513 136.002 50.8501 136.234 50.6476L136.515 51.2212C136.358 51.3636 136.167 51.4685 135.942 51.536C135.724 51.6035 135.5 51.6372 135.267 51.6372ZM132.478 46.3407V45.6773H136.133V46.3407H132.478Z" fill="#222222"/>
<path d="M140.167 51.6372C139.597 51.6372 139.083 51.5098 138.626 51.2549C138.176 50.9925 137.82 50.6364 137.558 50.1866C137.295 49.7293 137.164 49.2083 137.164 48.6235C137.164 48.0313 137.295 47.5102 137.558 47.0604C137.82 46.6106 138.176 46.2583 138.626 46.0034C139.076 45.7485 139.589 45.621 140.167 45.621C140.751 45.621 141.269 45.7485 141.718 46.0034C142.176 46.2583 142.532 46.6106 142.787 47.0604C143.049 47.5102 143.18 48.0313 143.18 48.6235C143.18 49.2083 143.049 49.7293 142.787 50.1866C142.532 50.6364 142.176 50.9925 141.718 51.2549C141.261 51.5098 140.744 51.6372 140.167 51.6372ZM140.167 50.9288C140.594 50.9288 140.973 50.8351 141.302 50.6476C141.632 50.4527 141.891 50.1828 142.078 49.838C142.273 49.4856 142.371 49.0808 142.371 48.6235C142.371 48.1587 142.273 47.7539 142.078 47.409C141.891 47.0642 141.632 46.798 141.302 46.6106C140.973 46.4157 140.598 46.3182 140.178 46.3182C139.758 46.3182 139.383 46.4157 139.053 46.6106C138.723 46.798 138.461 47.0642 138.266 47.409C138.071 47.7539 137.974 48.1587 137.974 48.6235C137.974 49.0808 138.071 49.4856 138.266 49.838C138.461 50.1828 138.723 50.4527 139.053 50.6476C139.383 50.8351 139.754 50.9288 140.167 50.9288Z" fill="#222222"/>
<path d="M147.329 53.8188C146.789 53.8188 146.272 53.7401 145.777 53.5826C145.283 53.4252 144.882 53.2003 144.574 52.9079L144.979 52.3007C145.256 52.5481 145.598 52.743 146.002 52.8854C146.415 53.0354 146.849 53.1103 147.307 53.1103C148.056 53.1103 148.607 52.9342 148.96 52.5818C149.312 52.237 149.488 51.6972 149.488 50.9625V49.4894L149.601 48.4773L149.522 47.4653V45.6773H150.287V50.8613C150.287 51.8809 150.036 52.6268 149.533 53.0991C149.039 53.5789 148.304 53.8188 147.329 53.8188ZM147.183 51.3561C146.621 51.3561 146.115 51.2361 145.665 50.9963C145.215 50.7489 144.859 50.4078 144.597 49.9729C144.342 49.5381 144.214 49.0396 144.214 48.4773C144.214 47.9151 144.342 47.4203 144.597 46.993C144.859 46.5581 145.215 46.2208 145.665 45.9809C146.115 45.741 146.621 45.621 147.183 45.621C147.708 45.621 148.18 45.7297 148.6 45.9472C149.02 46.1646 149.353 46.4869 149.601 46.9142C149.848 47.3416 149.972 47.8626 149.972 48.4773C149.972 49.0921 149.848 49.6131 149.601 50.0404C149.353 50.4677 149.02 50.7938 148.6 51.0187C148.18 51.2436 147.708 51.3561 147.183 51.3561ZM147.262 50.6476C147.697 50.6476 148.083 50.5577 148.42 50.3778C148.757 50.1903 149.024 49.9355 149.218 49.6131C149.413 49.2832 149.511 48.9046 149.511 48.4773C149.511 48.05 149.413 47.6752 149.218 47.3528C149.024 47.0304 148.757 46.7793 148.42 46.5994C148.083 46.412 147.697 46.3182 147.262 46.3182C146.834 46.3182 146.448 46.412 146.104 46.5994C145.766 46.7793 145.5 47.0304 145.305 47.3528C145.118 47.6752 145.024 48.05 145.024 48.4773C145.024 48.9046 145.118 49.2832 145.305 49.6131C145.5 49.9355 145.766 50.1903 146.104 50.3778C146.448 50.5577 146.834 50.6476 147.262 50.6476Z" fill="#222222"/>
<path d="M152.508 51.581V45.6773H153.273V47.2853L153.194 47.0042C153.359 46.5544 153.637 46.2133 154.027 45.9809C154.416 45.741 154.9 45.621 155.477 45.621V46.397C155.447 46.397 155.417 46.397 155.387 46.397C155.357 46.3895 155.327 46.3857 155.297 46.3857C154.675 46.3857 154.188 46.5769 153.835 46.9592C153.483 47.3341 153.307 47.8701 153.307 48.5673V51.581H152.508Z" fill="#222222"/>
<path d="M160.194 51.581V50.2766L160.161 50.0629V47.8813C160.161 47.379 160.018 46.993 159.733 46.7231C159.456 46.4532 159.04 46.3182 158.485 46.3182C158.103 46.3182 157.739 46.382 157.394 46.5094C157.05 46.6369 156.757 46.8055 156.517 47.0154L156.157 46.4195C156.457 46.1646 156.817 45.9696 157.237 45.8347C157.657 45.6923 158.099 45.621 158.564 45.621C159.329 45.621 159.917 45.8122 160.329 46.1945C160.749 46.5694 160.959 47.1429 160.959 47.9151V51.581H160.194ZM158.159 51.6372C157.717 51.6372 157.331 51.566 157.001 51.4236C156.678 51.2736 156.431 51.0712 156.259 50.8163C156.086 50.5539 156 50.2541 156 49.9167C156 49.6093 156.071 49.332 156.214 49.0846C156.364 48.8297 156.604 48.6273 156.933 48.4773C157.271 48.3199 157.721 48.2412 158.283 48.2412H160.318V48.8372H158.305C157.736 48.8372 157.338 48.9384 157.113 49.1408C156.896 49.3432 156.787 49.5943 156.787 49.8942C156.787 50.2316 156.918 50.5015 157.181 50.7039C157.443 50.9063 157.81 51.0075 158.283 51.0075C158.733 51.0075 159.119 50.9063 159.441 50.7039C159.771 50.494 160.011 50.1941 160.161 49.8043L160.341 50.3553C160.191 50.7451 159.928 51.0562 159.554 51.2886C159.186 51.521 158.721 51.6372 158.159 51.6372Z" fill="#222222"/>
<path d="M166.175 51.6372C165.665 51.6372 165.204 51.521 164.792 51.2886C164.38 51.0487 164.05 50.7076 163.802 50.2653C163.563 49.8155 163.443 49.2682 163.443 48.6235C163.443 47.9788 163.563 47.4353 163.802 46.993C164.042 46.5432 164.368 46.202 164.781 45.9696C165.193 45.7372 165.658 45.621 166.175 45.621C166.737 45.621 167.24 45.7485 167.682 46.0034C168.132 46.2508 168.484 46.6031 168.739 47.0604C168.994 47.5102 169.121 48.0313 169.121 48.6235C169.121 49.2233 168.994 49.748 168.739 50.1978C168.484 50.6476 168.132 51 167.682 51.2549C167.24 51.5098 166.737 51.6372 166.175 51.6372ZM163.128 53.7626V45.6773H163.892V47.454L163.814 48.6348L163.926 49.8267V53.7626H163.128ZM166.119 50.9288C166.539 50.9288 166.914 50.8351 167.243 50.6476C167.573 50.4527 167.836 50.1828 168.031 49.838C168.226 49.4856 168.323 49.0808 168.323 48.6235C168.323 48.1662 168.226 47.7651 168.031 47.4203C167.836 47.0754 167.573 46.8055 167.243 46.6106C166.914 46.4157 166.539 46.3182 166.119 46.3182C165.699 46.3182 165.321 46.4157 164.983 46.6106C164.653 46.8055 164.391 47.0754 164.196 47.4203C164.009 47.7651 163.915 48.1662 163.915 48.6235C163.915 49.0808 164.009 49.4856 164.196 49.838C164.391 50.1828 164.653 50.4527 164.983 50.6476C165.321 50.8351 165.699 50.9288 166.119 50.9288Z" fill="#222222"/>
<path d="M173.763 45.621C174.242 45.621 174.662 45.7148 175.022 45.9022C175.389 46.0821 175.674 46.3595 175.877 46.7343C176.087 47.1092 176.192 47.5815 176.192 48.1512V51.581H175.393V48.2299C175.393 47.6077 175.236 47.1391 174.921 46.8243C174.614 46.5019 174.179 46.3407 173.617 46.3407C173.197 46.3407 172.829 46.4269 172.514 46.5994C172.207 46.7643 171.967 47.008 171.795 47.3303C171.63 47.6452 171.547 48.0275 171.547 48.4773V51.581H170.749V43.2371H171.547V47.2966L171.39 46.993C171.577 46.5656 171.877 46.232 172.29 45.9921C172.702 45.7447 173.193 45.621 173.763 45.621Z" fill="#222222"/>
<path d="M178.283 53.8188C178.006 53.8188 177.74 53.7738 177.485 53.6839C177.238 53.5939 177.024 53.459 176.844 53.279L177.215 52.683C177.365 52.8255 177.526 52.9342 177.699 53.0091C177.879 53.0916 178.077 53.1328 178.295 53.1328C178.557 53.1328 178.782 53.0579 178.969 52.9079C179.164 52.7655 179.348 52.5106 179.52 52.1433L179.903 51.2774L179.993 51.1537L182.422 45.6773H183.209L180.251 52.2894C180.086 52.6718 179.903 52.9754 179.7 53.2003C179.505 53.4252 179.292 53.5826 179.059 53.6726C178.827 53.7701 178.568 53.8188 178.283 53.8188ZM179.858 51.7497L177.136 45.6773H177.969L180.375 51.0975L179.858 51.7497Z" fill="#222222"/>
<path fill-rule="evenodd" clip-rule="evenodd" d="M77.3934 0.435128C77.1951 0.633426 76.071 2.04594 74.8955 3.57385L72.7586 6.35205L67.34 6.35474C61.5768 6.35743 60.3238 6.52122 58.7856 7.47193C58.0571 7.92208 56.8801 9.21561 56.8801 9.56605C56.8801 9.64694 60.8125 9.71304 65.6187 9.71304C73.8104 9.71304 74.3831 9.68728 74.7703 9.30009C74.9975 9.07289 76.1225 7.66127 77.2708 6.16316L79.3585 3.43918L90.1338 3.44994L100.909 3.46092L103.143 6.38118C104.372 7.98751 105.55 9.3942 105.761 9.50735C105.972 9.6205 107.243 9.71304 108.584 9.71304C111.507 9.71304 112.808 10.0552 114.353 11.2304C115.153 11.8388 115.689 12.506 116.229 13.563L116.984 15.0431L117.734 27.2225C118.146 33.9212 118.487 39.6792 118.491 40.018C118.497 40.524 118.599 40.6342 119.059 40.6342C119.521 40.6342 119.618 40.5262 119.618 40.018C119.617 39.6792 119.83 34.1587 120.091 27.7504C120.616 14.861 120.598 14.476 119.356 11.9537C118.386 9.98282 116.776 8.42511 114.593 7.34646C112.903 6.51091 112.7 6.46587 110.131 6.35563L107.44 6.24001L105.062 3.21512L102.683 0.190222L90.2185 0.132413C79.0114 0.0802052 77.7176 0.110903 77.3934 0.435128ZM63.9281 3.31707C63.5477 3.69731 63.3781 4.11587 63.3781 4.67401C63.3781 5.4634 63.389 5.47348 63.8761 5.13245C64.5622 4.65183 68.476 4.63682 69.105 5.11251C69.7536 5.60322 69.8365 5.53689 69.7254 4.61553C69.6627 4.0966 69.4104 3.58259 69.0653 3.27114C68.5733 2.82704 68.2663 2.76699 66.4923 2.76699C64.6525 2.76699 64.4305 2.81471 63.9281 3.31707ZM108.293 3.31707C107.913 3.69731 107.743 4.11587 107.743 4.67401C107.743 5.4634 107.754 5.47348 108.241 5.13245C108.612 4.87276 109.316 4.78358 110.992 4.78358C112.669 4.78358 113.373 4.87276 113.743 5.13245C114.224 5.46945 114.241 5.4587 114.241 4.81338C114.241 4.42194 114.001 3.86043 113.661 3.45644C113.089 2.77617 113.053 2.76699 110.962 2.76699C109.011 2.76699 108.8 2.81068 108.293 3.31707ZM87.3677 9.50892C85.2848 9.91739 82.7779 10.9212 81.1927 11.9815C78.4994 13.783 75.0727 17.2253 75.5238 17.6764C75.5675 17.7201 76.4572 17.094 77.501 16.2854C82.0511 12.7608 83.9429 11.7969 87.3583 11.264C91.2768 10.6526 96.0987 11.7478 99.3826 13.9952C101.883 15.7064 103.775 17.878 105.119 20.5807C106.516 23.3898 106.729 24.4252 106.73 28.4226C106.731 31.7744 106.69 32.1244 106.104 33.8002C103.745 40.5399 97.8789 45.0248 90.8262 45.4799C87.2165 45.7129 82.9198 44.483 79.4458 42.2226C78.5572 41.6443 77.7136 41.1007 77.5711 41.0144C77.3977 40.9096 77.3502 41.0039 77.4277 41.3001C77.9119 43.1516 84.9713 46.6515 89.2006 47.1371C91.1448 47.3602 94.1195 47.1005 96.0848 46.5361C102.752 44.6208 108.052 38.9062 109.559 32.0076C110.043 29.791 109.943 25.5973 109.357 23.5404C107.314 16.364 101.735 11.0655 94.7007 9.61983C92.8515 9.23982 89.0343 9.18201 87.3677 9.50892ZM109.48 12.193C108.337 12.7962 108.424 13.029 109.745 12.902C111.101 12.7718 112.218 13.3682 112.761 14.5119C113.205 15.448 113.214 16.0037 112.798 16.9974C112.317 18.1494 111.26 18.7205 109.81 18.6132C109.027 18.5554 108.652 18.608 108.702 18.7687C108.847 19.2334 110.327 19.7954 111.406 19.7956C114.876 19.7967 116.696 16.1162 114.648 13.2396C113.648 11.8354 111.125 11.3245 109.48 12.193Z" fill="#A61010"/>
<path d="M13.9718 40.1402C11.0105 40.1402 8.62803 39.3999 6.82433 37.9192C5.04756 36.4386 4.15917 34.1503 4.15917 31.0544C4.15917 28.6854 4.63028 26.4375 5.57251 24.3108C6.51474 22.1571 7.76656 20.1919 9.32797 18.4151C10.9163 16.6383 12.6661 15.1173 14.5775 13.852C13.5276 13.7174 12.4642 13.5828 11.3874 13.4482C10.3106 13.3136 9.2472 13.2463 8.19729 13.2463C6.98586 13.2463 5.89556 13.4078 4.92641 13.7309C3.98418 14.0539 3.0958 14.6731 2.26125 15.5884C2.01896 15.8576 1.83052 16.0999 1.69591 16.3153C1.56131 16.5306 1.49401 16.8268 1.49401 17.2037C1.49401 17.8228 1.60169 18.267 1.81706 18.5362C2.03242 18.8054 2.28817 18.9804 2.5843 19.0612C2.88043 19.142 3.1631 19.1958 3.43231 19.2227C3.70151 19.2496 3.8765 19.3304 3.95726 19.465C3.93034 19.5458 3.83612 19.6131 3.67459 19.6669C3.51307 19.6938 3.37846 19.7073 3.27078 19.7073C2.86697 19.7073 2.517 19.6131 2.22087 19.4246C1.95166 19.2362 1.70937 19.0612 1.49401 18.8997C1.30556 18.7112 1.13057 18.617 0.96905 18.617C0.915208 18.617 0.861367 18.6439 0.807525 18.6978C0.780604 18.7516 0.726762 18.7785 0.646 18.7785C0.430633 18.7785 0.30949 18.6305 0.282569 18.3343C0.255648 18.0113 0.242188 17.7959 0.242188 17.6882C0.242188 17.3921 0.363331 17.0556 0.605619 16.6787C0.847906 16.3018 1.06327 16.0057 1.25172 15.7903C2.40931 14.3904 3.64767 13.4078 4.96679 12.8425C6.31283 12.2771 7.87424 11.9945 9.65102 11.9945C10.8086 11.9945 11.9527 12.0752 13.0834 12.2368C14.2141 12.3714 15.3448 12.5329 16.4754 12.7213C17.7946 11.9945 19.1945 11.4561 20.6751 11.1061C22.1557 10.7292 23.6364 10.5408 25.117 10.5408C25.9785 10.5408 26.8803 10.635 27.8226 10.8234C28.7648 10.9849 29.6397 11.2676 30.4474 11.6714C31.2819 12.0752 31.9549 12.6271 32.4664 13.3271C32.9779 14.027 33.2337 14.9019 33.2337 15.9518C33.2337 16.7864 33.0856 17.6075 32.7895 18.4151C32.7895 18.5228 32.7626 18.617 32.7087 18.6978C32.6818 18.7516 32.6414 18.8189 32.5876 18.8997C32.3991 19.2496 32.2107 19.5727 32.0222 19.8688C31.8607 20.138 31.5377 20.2726 31.0531 20.2726C30.7031 20.2726 30.5281 20.0842 30.5281 19.7073C30.5281 19.5727 30.5281 19.4381 30.5281 19.3035C30.555 19.142 30.582 19.0074 30.6089 18.8997C28.4552 17.7152 26.1131 16.7325 23.5825 15.9518C21.0789 15.1442 18.6157 14.525 16.1928 14.0943C14.9544 15.0096 13.7564 16.0999 12.5988 17.3652C11.4413 18.6305 10.3913 20.0169 9.44911 21.5244C8.5338 23.0051 7.80694 24.553 7.26852 26.1683C6.73011 27.7835 6.4609 29.3853 6.4609 30.9737C6.4609 32.7774 6.86471 34.2849 7.67234 35.4964C8.47996 36.7078 9.57025 37.6096 10.9432 38.2019C12.3162 38.7942 13.8641 39.0903 15.5871 39.0903C17.0677 39.0903 18.5618 38.8615 20.0694 38.4038C21.6039 37.9731 23.0576 37.3674 24.4306 36.5867C25.8035 35.779 27.0015 34.8503 28.0245 33.8003C28.7513 33.0466 29.4917 32.1582 30.2455 31.1352C31.0262 30.1122 31.6184 29.1027 32.0222 28.1066C32.0222 28.0797 32.0491 27.9989 32.103 27.8643C32.1838 27.7297 32.2376 27.6624 32.2645 27.6624C32.3184 27.6624 32.3453 27.7432 32.3453 27.9047C32.3722 28.0662 32.3857 28.1604 32.3857 28.1874C32.3857 28.322 32.3722 28.6315 32.3453 29.1161C32.3453 29.5738 32.3184 29.8699 32.2645 30.0045C31.8876 31.189 31.1608 32.3197 30.0839 33.3965C29.034 34.4464 27.8091 35.4021 26.4092 36.2636C25.0363 37.1251 23.6229 37.8519 22.1692 38.4442C20.7424 39.0364 19.4502 39.4537 18.2926 39.696C17.5927 39.8306 16.8793 39.9383 16.1524 40.0191C15.4255 40.0998 14.6987 40.1402 13.9718 40.1402ZM30.9319 17.1229C30.9589 16.9614 30.9723 16.7998 30.9723 16.6383C30.9992 16.4768 31.0127 16.3018 31.0127 16.1134C31.0127 14.9019 30.6762 13.9597 30.0032 13.2867C29.3301 12.5867 28.4956 12.1022 27.4995 11.833C26.5035 11.5368 25.4939 11.3888 24.4709 11.3888C23.3941 11.3888 22.2769 11.5234 21.1193 11.7926C19.9617 12.0349 18.8983 12.4252 17.9292 12.9636C20.1636 13.3944 22.3711 13.9597 24.5517 14.6596C26.7323 15.3596 28.859 16.1807 30.9319 17.1229Z" fill="#222222"/>
<path d="M30.2142 38.525C30.1604 38.525 30.1335 38.5115 30.1335 38.4846C30.1335 38.3769 30.1873 38.2692 30.295 38.1615C30.3757 38.0808 30.443 38 30.4969 37.9192C30.7123 37.5693 30.9276 37.1116 31.143 36.5463C31.3584 35.954 31.5603 35.3618 31.7487 34.7695C31.9641 34.1503 32.1391 33.6388 32.2737 33.235C32.8121 31.6467 33.337 30.0449 33.8485 28.4296C34.36 26.8144 34.9119 25.2126 35.5042 23.6243C35.8541 22.682 36.2714 21.6187 36.756 20.4342C37.2406 19.2227 37.8059 18.0113 38.452 16.7998C39.0981 15.5884 39.825 14.4847 40.6326 13.4886C41.4671 12.4656 42.3959 11.6445 43.4189 11.0253C44.4419 10.4061 45.5725 10.0966 46.8109 10.0966C48.1569 10.0966 49.0453 10.3388 49.4761 10.8234C49.9337 11.308 50.1626 11.806 50.1626 12.3175C50.1626 12.5329 50.0818 12.6675 49.9203 12.7213C49.7857 12.7752 49.7184 12.7079 49.7184 12.5194C49.7184 11.9541 49.4895 11.4964 49.0319 11.1465C48.5742 10.7696 48.0358 10.5811 47.4166 10.5811C46.8513 10.5811 46.2456 10.7965 45.5995 11.2272C44.9803 11.631 44.388 12.1156 43.8227 12.681C43.2574 13.2463 42.8132 13.7443 42.4901 14.1751C41.4133 15.6288 40.5384 16.9748 39.8653 18.2132C39.1923 19.4515 38.6135 20.663 38.1289 21.8475C37.6713 23.032 37.2271 24.2838 36.7964 25.603C36.3925 26.9221 35.908 28.3893 35.3426 30.0045V30.166C35.3426 30.2468 35.3561 30.2872 35.383 30.2872C35.4638 30.2064 35.5042 30.166 35.5042 30.166C36.3387 29.0623 37.1867 27.9854 38.0482 26.9355C38.9366 25.8587 39.9999 24.9838 41.2383 24.3108C41.4267 24.2031 41.6421 24.0954 41.8844 23.9877C42.1267 23.8531 42.3555 23.7858 42.5709 23.7858C42.9208 23.7858 43.1228 23.9473 43.1766 24.2704C43.2574 24.5665 43.2977 24.8492 43.2977 25.1184C43.2977 25.6837 43.1093 26.424 42.7324 27.3393C42.3824 28.2277 41.9517 29.1969 41.4402 30.2468C40.9556 31.2967 40.5249 32.3332 40.148 33.3562C39.798 34.3522 39.623 35.2541 39.623 36.0617C39.623 36.1694 39.6365 36.304 39.6634 36.4655C39.7173 36.6001 39.825 36.6674 39.9865 36.6674C40.2557 36.6674 40.6191 36.452 41.0768 36.0213C41.5344 35.5637 41.9652 35.0791 42.369 34.5676C42.7728 34.0292 43.0285 33.6388 43.1362 33.3965C43.2439 33.5042 43.2977 33.585 43.2977 33.6388C43.2977 33.8811 43.0555 34.2715 42.5709 34.8099C42.1132 35.3214 41.5613 35.8598 40.9152 36.4251C40.2691 36.9905 39.65 37.475 39.0577 37.8789C38.4655 38.2827 38.0482 38.4846 37.8059 38.4846C37.5367 38.4846 37.3482 38.2827 37.2406 37.8789C37.1598 37.475 37.1194 37.1789 37.1194 36.9905C37.1194 36.479 37.2271 35.8329 37.4425 35.0522C37.6847 34.2715 37.9674 33.4504 38.2905 32.5889C38.6404 31.7274 38.9769 30.9064 39.3 30.1257C39.65 29.345 39.9326 28.6989 40.148 28.1874C40.2288 28.0258 40.3499 27.7432 40.5114 27.3393C40.673 26.9086 40.7537 26.599 40.7537 26.4106C40.7537 26.276 40.7268 26.1279 40.673 25.9664C40.646 25.8049 40.5384 25.7241 40.3499 25.7241C40.0538 25.7241 39.6904 25.8991 39.2596 26.2491C38.8558 26.599 38.5462 26.8817 38.3308 27.0971C37.1733 28.3623 36.1637 29.8026 35.3023 31.4179C34.4677 33.0062 33.7812 34.6214 33.2428 36.2636C33.189 36.479 33.1486 36.627 33.1217 36.7078C33.0947 36.7886 32.9736 36.9097 32.7582 37.0712C32.6775 37.0981 32.4217 37.2328 31.991 37.475C31.5872 37.7173 31.1968 37.9462 30.8199 38.1615C30.443 38.4038 30.2411 38.525 30.2142 38.525Z" fill="#222222"/>
<path d="M42.8419 38.525C42.788 38.525 42.7611 38.5115 42.7611 38.4846C42.7611 38.3769 42.815 38.2692 42.9226 38.1615C43.0034 38.0808 43.0707 38 43.1245 37.9192C43.3668 37.5154 43.636 36.8289 43.9322 35.8598C44.2552 34.8637 44.5648 33.7734 44.8609 32.5889C45.184 31.4044 45.4667 30.3006 45.7089 29.2776C45.9781 28.2277 46.1666 27.4336 46.2743 26.8952C46.3281 26.6798 46.382 26.3971 46.4358 26.0472C46.5166 25.6972 46.6108 25.3472 46.7185 24.9972C46.8262 24.6473 46.9473 24.4184 47.0819 24.3108C47.3242 24.0954 47.6876 23.9069 48.1722 23.7454C48.6568 23.5839 49.1413 23.4627 49.6259 23.382C50.1374 23.2743 50.5547 23.2205 50.8777 23.2205C50.9316 23.2205 50.9989 23.2474 51.0796 23.3012C51.1604 23.3551 51.2142 23.4089 51.2412 23.4628L51.2816 23.5839C51.2546 23.6647 51.2142 23.705 51.1604 23.705C51.1066 23.6781 51.0527 23.6647 50.9989 23.6647C50.4874 23.6647 50.0163 23.9608 49.5855 24.553C49.1548 25.1184 48.7779 25.8183 48.4549 26.6529C48.1318 27.4874 47.8491 28.295 47.6069 29.0757C47.3915 29.8295 47.2434 30.3949 47.1627 30.7718C47.4319 30.1526 47.7818 29.4526 48.2126 28.6719C48.6702 27.8643 49.1952 27.0971 49.7874 26.3702C50.3797 25.6164 51.0258 24.9972 51.7257 24.5127C52.4257 24.0012 53.166 23.7454 53.9467 23.7454C54.0544 23.7454 54.2294 23.7723 54.4717 23.8262C54.7409 23.8531 54.9832 23.9204 55.1985 24.0281C55.4408 24.1088 55.562 24.2165 55.562 24.3511L55.5216 24.3915H55.4812L55.2389 24.3108C55.3197 24.4992 55.3735 24.6876 55.4004 24.8761C55.4274 25.0645 55.4408 25.253 55.4408 25.4414C55.4408 25.603 55.387 25.9529 55.2793 26.4913C55.1985 27.0298 55.0774 27.5413 54.9159 28.0258C54.7813 28.4835 54.6332 28.7123 54.4717 28.7123C54.364 28.7123 54.3101 28.6719 54.3101 28.5912C54.3101 28.4566 54.3505 28.2412 54.4313 27.9451C54.539 27.622 54.5928 27.3259 54.5928 27.0567C54.5928 26.5721 54.4717 26.1818 54.2294 25.8856C53.9871 25.5895 53.6237 25.4414 53.1391 25.4414C52.3315 25.4414 51.5508 25.7914 50.797 26.4913C50.0432 27.1644 49.3567 28.0124 48.7375 29.0354C48.1184 30.0314 47.5934 31.041 47.1627 32.064C46.7319 33.0869 46.4358 33.9215 46.2743 34.5676C46.1666 34.9176 46.0724 35.3752 45.9916 35.9406C45.9108 36.479 45.7089 36.8559 45.3859 37.0712C45.3051 37.0981 45.0494 37.2328 44.6186 37.475C44.2148 37.7173 43.8245 37.9462 43.4476 38.1615C43.0438 38.4038 42.8419 38.525 42.8419 38.525Z" fill="#222222"/>
<path d="M55.6456 38.2019C55.1341 38.2019 54.7706 38.0673 54.5553 37.7981C54.3668 37.502 54.2726 36.9905 54.2726 36.2636C54.2726 35.2137 54.4072 34.1099 54.6764 32.9523C54.9456 31.7947 55.3091 30.6775 55.7667 29.6007C56.2244 28.4969 56.7359 27.5413 57.3012 26.7336C57.7319 26.1414 58.3107 25.5895 59.0376 25.078C59.7644 24.5665 60.5452 24.1492 61.3797 23.8262C62.2142 23.5031 62.995 23.3416 63.7218 23.3416C63.9641 23.3416 64.2602 23.382 64.6102 23.4628C64.9602 23.5166 65.2294 23.6243 65.4178 23.7858C65.5524 23.8935 65.6332 24.0415 65.6601 24.23C65.714 24.4184 65.7409 24.5934 65.7409 24.755C65.7409 25.4549 65.6197 26.276 65.3774 27.2182C65.1621 28.1335 64.8659 29.0757 64.4891 30.0449C64.1122 31.014 63.7084 31.9294 63.2776 32.7908C62.8469 33.6254 62.4161 34.3253 61.9854 34.8906C61.7431 35.2137 61.3528 35.5771 60.8144 35.9809C60.2759 36.3578 59.6837 36.7213 59.0376 37.0712C58.4184 37.3943 57.7992 37.6635 57.18 37.8789C56.5609 38.0942 56.0494 38.2019 55.6456 38.2019ZM56.7359 37.0712C58.0011 36.802 59.0241 36.1963 59.8048 35.2541C60.424 34.5272 61.0028 33.5715 61.5412 32.387C62.0796 31.2025 62.5104 29.9776 62.8334 28.7123C63.1834 27.447 63.3584 26.3433 63.3584 25.401C63.3584 25.3203 63.3449 25.1857 63.318 24.9972C63.318 24.8088 63.2776 24.7011 63.1969 24.6742C62.8738 24.5127 62.5104 24.4319 62.1066 24.4319C61.8374 24.4319 61.4874 24.5261 61.0566 24.7146C60.6259 24.8761 60.3029 25.0645 60.0875 25.2799C59.9529 25.4145 59.8183 25.603 59.6837 25.8452C59.576 26.0606 59.4683 26.2491 59.3606 26.4106C58.8491 27.2182 58.3511 28.1604 57.8665 29.2373C57.4089 30.3141 57.032 31.4179 56.7359 32.5485C56.4397 33.6792 56.2917 34.7426 56.2917 35.7386C56.2917 36.0617 56.3186 36.3578 56.3724 36.627C56.4532 36.8693 56.5743 37.0174 56.7359 37.0712Z" fill="#222222"/>
<path d="M64.1752 38.525C64.1482 38.525 64.1348 38.5115 64.1348 38.4846C64.1348 38.3769 64.1886 38.2692 64.2963 38.1615C64.3771 38.0538 64.4309 37.9731 64.4578 37.9192C64.6463 37.6231 64.8751 37.1251 65.1443 36.4251C65.3866 35.6983 65.6289 34.8906 65.8712 34.0023C66.1404 33.0869 66.3827 32.1716 66.598 31.2563C66.8403 30.3141 67.0557 29.4526 67.2441 28.6719C67.4326 27.8912 67.5672 27.299 67.6479 26.8952C67.7018 26.6798 67.7556 26.3971 67.8095 26.0472C67.8633 25.6972 67.9441 25.3472 68.0518 24.9972C68.1594 24.6473 68.2806 24.4184 68.4152 24.3108C68.6575 24.0954 69.0209 23.9069 69.5055 23.7454C69.9901 23.5839 70.4881 23.4627 70.9996 23.382C71.5111 23.2743 71.9149 23.2205 72.211 23.2205C72.3725 23.2205 72.4937 23.3012 72.5745 23.4628L72.6148 23.5839C72.5879 23.6647 72.5475 23.705 72.4937 23.705C72.4398 23.6781 72.386 23.6647 72.3322 23.6647C71.7399 23.6647 71.2149 24.0012 70.7573 24.6742C70.3266 25.3203 69.9362 26.1279 69.5862 27.0971C69.2632 28.0393 68.994 28.9546 68.7786 29.843C68.5902 30.7314 68.4421 31.4044 68.3344 31.862C69.1959 30.4083 70.1785 28.995 71.2823 27.622C72.4129 26.2491 73.7186 25.1453 75.1992 24.3108C75.4146 24.2031 75.63 24.0954 75.8453 23.9877C76.0876 23.8531 76.3164 23.7858 76.5318 23.7858C76.8818 23.7858 77.0972 23.9473 77.1779 24.2704C77.2587 24.5665 77.2991 24.8492 77.2991 25.1184C77.2991 25.4684 77.1914 25.9664 76.976 26.6125C76.7876 27.2317 76.5587 27.8508 76.2895 28.47C76.0472 29.0892 75.8453 29.5738 75.6838 29.9237C76.5184 28.82 77.4471 27.7835 78.4701 26.8144C79.4931 25.8183 80.6238 24.9838 81.8621 24.3108C82.0506 24.2031 82.266 24.0954 82.5082 23.9877C82.7505 23.8531 82.9794 23.7858 83.1947 23.7858C83.5447 23.7858 83.7466 23.9473 83.8004 24.2704C83.8812 24.5665 83.9216 24.8492 83.9216 25.1184C83.9216 25.5222 83.8004 26.0337 83.5582 26.6529C83.3428 27.2451 83.087 27.8508 82.7909 28.47C82.5217 29.0623 82.3063 29.5603 82.1448 29.9641C81.9564 30.3949 81.7679 30.8391 81.5795 31.2967C81.4179 31.7544 81.2699 32.212 81.1353 32.6697C81.0276 33.1004 80.9064 33.585 80.7718 34.1234C80.6372 34.6349 80.5699 35.1195 80.5699 35.5771C80.5699 35.7656 80.5969 35.9809 80.6507 36.2232C80.7315 36.4655 80.893 36.5867 81.1353 36.5867C81.2699 36.5867 81.3776 36.5597 81.4583 36.5059C81.566 36.452 81.6737 36.3982 81.7814 36.3444C82.4006 35.9944 82.9928 35.5233 83.5582 34.931C84.1504 34.3118 84.6888 33.6523 85.1734 32.9523C85.658 32.2255 86.0618 31.5659 86.3848 30.9737C86.4118 31.0006 86.4252 31.0544 86.4252 31.1352C86.4252 31.2967 86.331 31.539 86.1425 31.862C85.9541 32.1582 85.7387 32.4812 85.4965 32.8312C85.2542 33.1812 85.0253 33.4908 84.81 33.76C84.6215 34.0292 84.5273 34.1907 84.5273 34.2445C84.5004 34.433 84.46 34.5945 84.4062 34.7291C84.3523 34.8368 84.2716 34.9849 84.1639 35.1733C83.8408 35.4964 83.3697 35.9002 82.7505 36.3847C82.1583 36.8424 81.5391 37.2597 80.893 37.6366C80.2469 37.9865 79.6816 38.1615 79.197 38.1615C78.7932 38.1615 78.524 38.0269 78.3894 37.7577C78.2547 37.4616 78.1874 37.1385 78.1874 36.7886C78.1874 36.0886 78.349 35.2272 78.672 34.2042C78.9951 33.1542 79.3585 32.1043 79.7623 31.0544C80.1661 30.0045 80.4892 29.143 80.7315 28.47C80.8122 28.2547 80.9334 27.9047 81.0949 27.4201C81.2833 26.9355 81.3776 26.599 81.3776 26.4106C81.3776 26.2491 81.3506 26.0875 81.2968 25.926C81.243 25.7645 81.1084 25.6837 80.893 25.6837C80.4623 25.6837 79.9373 25.9664 79.3181 26.5317C78.7259 27.0971 78.1201 27.7835 77.501 28.5912C76.8818 29.3719 76.3299 30.1391 75.8453 30.8929C75.3877 31.6198 75.0646 32.1582 74.8762 32.5081C74.607 33.0466 74.3512 33.6119 74.1089 34.2042C73.8667 34.7695 73.6917 35.3483 73.584 35.9406C73.3417 35.9406 73.0187 36.1021 72.6148 36.4251C72.2379 36.7482 71.8745 37.0712 71.5245 37.3943C71.2015 37.6904 70.9996 37.8385 70.9188 37.8385C70.865 37.8385 70.8515 37.8116 70.8784 37.7577C70.9054 37.6769 70.9188 37.6096 70.9188 37.5558L70.9592 37.2731C71.013 36.8693 71.0938 36.479 71.2015 36.1021C71.3361 35.6983 71.4572 35.3214 71.5649 34.9714C71.6995 34.5137 71.8476 34.0561 72.0091 33.5984C72.1976 33.1139 72.386 32.6562 72.5745 32.2255C72.6552 32.0101 72.8033 31.6332 73.0186 31.0948C73.2609 30.5295 73.5167 29.9103 73.7859 29.2373C74.0551 28.5642 74.2839 27.972 74.4724 27.4605C74.6608 26.9221 74.755 26.5721 74.755 26.4106C74.755 26.276 74.7281 26.1279 74.6743 25.9664C74.6474 25.8049 74.5262 25.7241 74.3108 25.7241C74.0416 25.7241 73.6917 25.8991 73.2609 26.2491C72.8571 26.599 72.5475 26.8817 72.3322 27.0971C71.1746 28.3623 70.165 29.8026 69.3036 31.4179C68.469 33.0062 67.7825 34.6214 67.2441 36.2636C67.1634 36.479 67.1095 36.627 67.0826 36.7078C67.0826 36.7886 66.9749 36.9097 66.7596 37.0712C66.6788 37.0981 66.423 37.2328 65.9923 37.475C65.5885 37.7173 65.1981 37.9462 64.8213 38.1615C64.4174 38.4038 64.2021 38.525 64.1752 38.525Z" fill="#222222"/>
<path d="M85.6009 38.0808C85.1701 38.0808 84.8875 37.9192 84.7529 37.5962C84.6452 37.2462 84.5913 36.8962 84.5913 36.5463C84.5913 35.281 84.8336 33.9215 85.3182 32.4678C85.8028 31.014 86.4354 29.6276 87.2161 28.3085C87.9968 26.9625 88.8448 25.8587 89.7601 24.9972C90.7293 24.1089 91.8734 23.6647 93.1925 23.6647C93.731 23.6647 94.2559 23.732 94.7674 23.8666C95.3058 23.9742 95.8308 24.1358 96.3423 24.3511C96.7999 24.0281 97.298 23.7454 97.8364 23.5031C98.3748 23.2608 98.9267 23.1397 99.492 23.1397C99.6266 23.1397 99.7343 23.2205 99.8151 23.382V23.5031C99.8151 23.5839 99.7747 23.6243 99.6939 23.6243C99.6401 23.5974 99.5862 23.5839 99.5324 23.5839C99.1017 23.5839 98.6306 23.9204 98.1191 24.5934C97.6076 25.2395 97.0961 26.0741 96.5846 27.0971C96.0731 28.1201 95.602 29.1969 95.1712 30.3276C94.7674 31.4582 94.4309 32.4947 94.1617 33.4369C93.9194 34.3791 93.7983 35.0925 93.7983 35.5771C93.7983 35.7656 93.8252 35.9809 93.879 36.2232C93.9598 36.4655 94.1213 36.5867 94.3636 36.5867C94.4982 36.5867 94.6059 36.5597 94.6867 36.5059C94.7943 36.452 94.902 36.3982 95.0097 36.3444C95.602 35.9944 96.1808 35.5233 96.7461 34.931C97.3384 34.3118 97.8768 33.6523 98.3613 32.9523C98.8728 32.2255 99.2901 31.5659 99.6132 30.9737C99.6401 31.0006 99.6535 31.0544 99.6535 31.1352C99.6535 31.2967 99.5593 31.539 99.3709 31.862C99.1824 32.1582 98.9671 32.4812 98.7248 32.8312C98.4825 33.1812 98.2537 33.4908 98.0383 33.76C97.8499 34.0292 97.7556 34.1907 97.7556 34.2445C97.7287 34.433 97.6883 34.5945 97.6345 34.7291C97.5806 34.8368 97.4999 34.9849 97.3922 35.1733C97.0422 35.5233 96.598 35.9271 96.0596 36.3847C95.5212 36.8424 94.9559 37.2462 94.3636 37.5962C93.7983 37.9192 93.2464 38.0808 92.708 38.0808C91.8734 38.0808 91.4562 37.6366 91.4562 36.7482C91.4562 36.2098 91.5638 35.5906 91.7792 34.8906C92.0215 34.1638 92.2907 33.4504 92.5868 32.7504C92.9099 32.0236 93.1926 31.4179 93.4348 30.9333C93.4348 30.9064 93.4348 30.866 93.4348 30.8121C93.4348 30.7583 93.4214 30.7314 93.3945 30.7314C93.3675 30.7314 93.3271 30.7583 93.2733 30.8121C92.9503 31.2429 92.4791 31.862 91.86 32.6697C91.2408 33.4773 90.5543 34.2984 89.8005 35.1329C89.0737 35.9406 88.3333 36.6405 87.5796 37.2328C86.8258 37.7981 86.1662 38.0808 85.6009 38.0808ZM87.3776 36.3444C87.6738 36.3444 88.0372 36.1559 88.4679 35.779C88.9256 35.3752 89.3967 34.9041 89.8813 34.3657C90.3928 33.8003 90.837 33.2619 91.2139 32.7504C91.6177 32.2389 91.9003 31.862 92.0619 31.6198C92.3849 31.1352 92.7484 30.5295 93.1522 29.8026C93.5829 29.0757 93.9463 28.322 94.2425 27.5413C94.5655 26.7606 94.727 26.101 94.727 25.5626C94.727 24.728 94.3098 24.3108 93.4752 24.3108C92.9906 24.3108 92.4791 24.5261 91.9407 24.9569C91.4023 25.3876 90.9716 25.7779 90.6485 26.1279C90.2986 26.5586 89.8947 27.1778 89.4371 27.9855C89.0064 28.7931 88.6025 29.668 88.2257 30.6102C87.8488 31.5525 87.5257 32.4543 87.2565 33.3158C87.0142 34.1772 86.8931 34.8906 86.8931 35.456C86.8931 35.6175 86.92 35.8059 86.9738 36.0213C87.0277 36.2367 87.1623 36.3444 87.3776 36.3444Z" fill="#222222"/>
<path d="M135.709 39.5789C133.398 39.5789 131.538 39.0012 130.131 37.8457C128.744 36.6902 128.051 34.9044 128.051 32.4883C128.051 30.6395 128.418 28.8853 129.154 27.2255C129.889 25.5448 130.866 24.0111 132.084 22.6245C133.324 21.2379 134.69 20.0509 136.181 19.0635C135.362 18.9584 134.532 18.8534 133.692 18.7483C132.851 18.6433 132.021 18.5908 131.202 18.5908C130.257 18.5908 129.406 18.7168 128.649 18.9689C127.914 19.221 127.221 19.7042 126.57 20.4186C126.381 20.6287 126.233 20.8177 126.128 20.9858C126.023 21.1539 125.971 21.385 125.971 21.6791C125.971 22.1623 126.055 22.509 126.223 22.7191C126.391 22.9292 126.591 23.0657 126.822 23.1287C127.053 23.1918 127.273 23.2338 127.483 23.2548C127.694 23.2758 127.83 23.3388 127.893 23.4439C127.872 23.5069 127.799 23.5594 127.673 23.6014C127.547 23.6225 127.441 23.633 127.357 23.633C127.042 23.633 126.769 23.5594 126.538 23.4124C126.328 23.2653 126.139 23.1287 125.971 23.0027C125.824 22.8556 125.687 22.7821 125.561 22.7821C125.519 22.7821 125.477 22.8031 125.435 22.8451C125.414 22.8871 125.372 22.9081 125.309 22.9081C125.141 22.9081 125.046 22.7926 125.025 22.5615C125.004 22.3094 124.994 22.1413 124.994 22.0573C124.994 21.8262 125.088 21.5636 125.278 21.2694C125.467 20.9753 125.635 20.7442 125.782 20.5761C126.685 19.4837 127.652 18.7168 128.681 18.2756C129.731 17.8344 130.95 17.6138 132.337 17.6138C133.24 17.6138 134.133 17.6769 135.015 17.8029C135.898 17.908 136.78 18.034 137.662 18.1811C138.692 17.6138 139.784 17.1937 140.94 16.9205C142.095 16.6264 143.251 16.4793 144.406 16.4793C145.079 16.4793 145.782 16.5529 146.518 16.6999C147.253 16.826 147.936 17.0466 148.566 17.3617C149.217 17.6769 149.743 18.1076 150.142 18.6538C150.541 19.2 150.741 19.8828 150.741 20.7022C150.741 21.3535 150.625 21.9942 150.394 22.6245C150.394 22.7086 150.373 22.7821 150.331 22.8451C150.31 22.8871 150.278 22.9397 150.236 23.0027C150.089 23.2758 149.942 23.5279 149.795 23.759C149.669 23.9691 149.417 24.0742 149.039 24.0742C148.766 24.0742 148.629 23.9271 148.629 23.633C148.629 23.5279 148.629 23.4229 148.629 23.3178C148.65 23.1918 148.671 23.0867 148.692 23.0027C147.011 22.0783 145.184 21.3114 143.209 20.7022C141.255 20.0719 139.333 19.5887 137.442 19.2526C136.475 19.9669 135.54 20.8177 134.637 21.8052C133.734 22.7926 132.914 23.8746 132.179 25.0511C131.465 26.2066 130.897 27.4146 130.477 28.6752C130.057 29.9357 129.847 31.1858 129.847 32.4253C129.847 33.8329 130.162 35.0094 130.792 35.9548C131.423 36.9002 132.274 37.6041 133.345 38.0663C134.417 38.5285 135.625 38.7596 136.969 38.7596C138.125 38.7596 139.291 38.581 140.467 38.2238C141.665 37.8877 142.799 37.415 143.871 36.8057C144.942 36.1754 145.877 35.4506 146.675 34.6313C147.243 34.043 147.82 33.3497 148.409 32.5513C149.018 31.753 149.48 30.9652 149.795 30.1878C149.795 30.1668 149.816 30.1038 149.858 29.9987C149.921 29.8937 149.963 29.8412 149.984 29.8412C150.026 29.8412 150.047 29.9042 150.047 30.0303C150.068 30.1563 150.079 30.2298 150.079 30.2508C150.079 30.3559 150.068 30.5975 150.047 30.9757C150.047 31.3328 150.026 31.5639 149.984 31.669C149.69 32.5934 149.123 33.4758 148.283 34.3161C147.463 35.1355 146.507 35.8813 145.415 36.5536C144.343 37.2259 143.24 37.7931 142.106 38.2553C140.992 38.7175 139.984 39.0432 139.081 39.2323C138.534 39.3373 137.978 39.4213 137.41 39.4844C136.843 39.5474 136.276 39.5789 135.709 39.5789ZM148.944 21.6161C148.965 21.49 148.976 21.364 148.976 21.2379C148.997 21.1119 149.007 20.9753 149.007 20.8282C149.007 19.8828 148.745 19.1475 148.22 18.6223C147.694 18.076 147.043 17.6979 146.266 17.4878C145.488 17.2567 144.7 17.1411 143.902 17.1411C143.062 17.1411 142.19 17.2462 141.286 17.4563C140.383 17.6453 139.553 17.95 138.797 18.3702C140.541 18.7063 142.263 19.1475 143.965 19.6937C145.667 20.24 147.327 20.8808 148.944 21.6161Z" fill="#222222"/>
<path d="M150.338 37.8772C149.708 37.8772 149.393 37.5305 149.393 36.8372C149.393 36.354 149.519 35.6817 149.771 34.8203C150.023 33.959 150.317 33.0451 150.653 32.0786C151.01 31.0912 151.357 30.1668 151.693 29.3054C152.05 28.423 152.323 27.7297 152.513 27.2255C152.786 26.4902 153.122 25.6393 153.521 24.6729C153.92 23.7065 154.382 22.7296 154.908 21.7421C155.433 20.7337 156.021 19.8093 156.672 18.9689C157.345 18.1286 158.08 17.4458 158.878 16.9205C159.698 16.3953 160.591 16.1327 161.557 16.1327C162.607 16.1327 163.301 16.3218 163.637 16.6999C163.994 17.0781 164.173 17.4668 164.173 17.8659C164.173 18.034 164.11 18.1391 163.984 18.1811C163.878 18.2231 163.826 18.1706 163.826 18.0235C163.826 17.5823 163.647 17.2252 163.29 16.952C162.954 16.6579 162.534 16.5109 162.03 16.5109C161.168 16.5109 160.349 16.8365 159.572 17.4878C158.794 18.1391 158.069 18.9794 157.397 20.0089C156.725 21.0383 156.116 22.1308 155.569 23.2863C155.023 24.4208 154.54 25.5028 154.12 26.5322C153.721 27.5407 153.405 28.3495 153.174 28.9588C153.027 29.358 152.828 29.8832 152.576 30.5345C152.323 31.1647 152.071 31.837 151.819 32.5513C151.588 33.2447 151.389 33.9169 151.22 34.5682C151.052 35.1985 150.968 35.7132 150.968 36.1124C150.968 36.2385 150.989 36.3855 151.031 36.5536C151.073 36.7217 151.178 36.8057 151.347 36.8057C151.452 36.8057 151.536 36.7847 151.599 36.7427C151.683 36.7007 151.767 36.6586 151.851 36.6166C152.334 36.3435 152.796 35.9758 153.237 35.5136C153.7 35.0304 154.12 34.5157 154.498 33.9695C154.876 33.4022 155.191 32.8875 155.443 32.4253C155.464 32.4463 155.475 32.4883 155.475 32.5513C155.475 32.7194 155.349 32.982 155.097 33.3392C154.866 33.6963 154.624 34.043 154.372 34.3791C154.141 34.6943 154.015 34.8939 153.994 34.9779C153.973 35.125 153.941 35.251 153.899 35.3561C153.857 35.4401 153.805 35.5557 153.742 35.7027C153.489 35.9548 153.164 36.249 152.765 36.5851C152.386 36.9213 151.987 37.2259 151.567 37.499C151.147 37.7511 150.737 37.8772 150.338 37.8772Z" fill="#222222"/>
<path d="M160.157 24.3578C159.989 24.3578 159.726 24.2948 159.369 24.1687C159.033 24.0216 158.865 23.8431 158.865 23.633C158.865 23.612 158.865 23.6014 158.865 23.6014C158.886 23.5804 158.897 23.5594 158.897 23.5384C159.002 23.3283 159.233 23.2023 159.59 23.1603C159.968 23.1182 160.252 23.0552 160.441 22.9712C160.861 22.8031 161.271 22.6665 161.67 22.5615C162.069 22.4564 162.447 22.2674 162.804 21.9942C162.888 22.0363 162.93 22.0783 162.93 22.1203C162.93 22.2043 162.836 22.3199 162.647 22.467C162.479 22.614 162.363 22.7401 162.3 22.8451C162.216 22.9712 162.027 23.1603 161.733 23.4124C161.46 23.6435 161.166 23.8641 160.85 24.0742C160.535 24.2632 160.304 24.3578 160.157 24.3578ZM154.831 38.0032C154.495 38.0032 154.264 37.9192 154.138 37.7511C154.012 37.583 153.949 37.3414 153.949 37.0263C153.949 36.333 154.085 35.4926 154.359 34.5052C154.653 33.5178 154.978 32.5198 155.335 31.5114C155.693 30.4819 155.976 29.568 156.186 28.7697C156.27 28.4756 156.47 28.276 156.785 28.1709C157.121 28.0449 157.405 27.8978 157.636 27.7297C157.972 27.4986 158.329 27.3096 158.707 27.1625C159.086 26.9944 159.485 26.9104 159.905 26.9104C160.01 26.9104 160.073 26.9314 160.094 26.9734C160.136 27.0154 160.157 27.047 160.157 27.068C160.157 27.194 160.084 27.257 159.936 27.257C159.642 27.257 159.338 27.4356 159.023 27.7928C158.707 28.1289 158.392 28.5701 158.077 29.1164C157.762 29.6626 157.478 30.2298 157.226 30.8181C156.974 31.4064 156.754 31.9526 156.565 32.4568C156.375 32.94 156.249 33.2972 156.186 33.5283C156.081 33.8644 155.976 34.2636 155.871 34.7258C155.766 35.167 155.714 35.5767 155.714 35.9548C155.714 36.1019 155.735 36.2805 155.777 36.4906C155.819 36.6797 155.945 36.7742 156.155 36.7742C156.302 36.7742 156.459 36.7217 156.628 36.6166C157.09 36.3435 157.541 35.9758 157.983 35.5136C158.445 35.0304 158.865 34.5157 159.243 33.9695C159.642 33.4022 159.957 32.8875 160.189 32.4253C160.231 32.4463 160.252 32.4883 160.252 32.5513C160.252 32.6774 160.178 32.8665 160.031 33.1186C159.884 33.3497 159.716 33.6018 159.527 33.8749C159.338 34.148 159.159 34.3897 158.991 34.5997C158.844 34.8098 158.77 34.9359 158.77 34.9779C158.749 35.146 158.718 35.272 158.676 35.3561C158.634 35.4191 158.571 35.5347 158.487 35.7027C158.235 35.9548 157.899 36.27 157.478 36.6481C157.058 37.0053 156.617 37.3204 156.155 37.5935C155.693 37.8667 155.251 38.0032 154.831 38.0032Z" fill="#222222"/>
<path d="M159.822 37.9087C159.591 37.9087 159.391 37.8036 159.223 37.5935C159.076 37.3835 158.961 37.1419 158.877 36.8687C158.814 36.5956 158.782 36.3645 158.782 36.1754C158.782 35.251 158.971 34.2636 159.349 33.2131C159.748 32.1417 160.253 31.1227 160.862 30.1563C161.471 29.1689 162.101 28.3705 162.753 27.7613C163.131 27.4041 163.562 27.1415 164.045 26.9734C164.549 26.8053 165.053 26.7213 165.557 26.7213C165.894 26.7213 166.251 26.7633 166.629 26.8474C167.028 26.9314 167.364 27.0785 167.637 27.2886C167.637 27.3096 167.637 27.3306 167.637 27.3516C167.658 27.3516 167.669 27.3621 167.669 27.3831C167.669 27.4251 167.658 27.4461 167.637 27.4461H167.606L167.385 27.3831C167.448 27.5722 167.48 27.7613 167.48 27.9503C167.48 28.1394 167.427 28.4231 167.322 28.8012C167.217 29.1584 167.091 29.505 166.944 29.8412C166.797 30.1773 166.639 30.3979 166.471 30.503C166.471 30.503 166.45 30.503 166.408 30.503C166.345 30.503 166.314 30.4504 166.314 30.3454C166.314 30.3034 166.335 30.2614 166.377 30.2193C166.419 30.1773 166.45 30.1353 166.471 30.0933C166.576 29.8622 166.65 29.6311 166.692 29.4C166.755 29.1689 166.787 28.9378 166.787 28.7067C166.787 28.3495 166.702 28.0134 166.534 27.6982C166.366 27.3831 166.072 27.2255 165.652 27.2255C165.274 27.2255 164.875 27.3936 164.455 27.7297C164.034 28.0659 163.698 28.3705 163.446 28.6436C163.026 29.1269 162.595 29.7886 162.154 30.629C161.734 31.4484 161.377 32.2992 161.083 33.1816C160.788 34.064 160.641 34.8308 160.641 35.4821C160.641 35.7763 160.694 36.0599 160.799 36.333C160.925 36.5851 161.167 36.7112 161.524 36.7112C162.049 36.7112 162.606 36.5326 163.194 36.1754C163.782 35.7973 164.37 35.3456 164.959 34.8203C165.547 34.2741 166.083 33.7384 166.566 33.2131C167.07 32.6669 167.48 32.2152 167.795 31.858C168.131 31.4799 168.32 31.2908 168.362 31.2908C168.425 31.2908 168.457 31.3433 168.457 31.4484C168.457 31.4904 168.446 31.5324 168.425 31.5744C168.425 31.6164 168.415 31.6585 168.394 31.7005C167.869 32.3938 167.301 33.1081 166.692 33.8434C166.104 34.5577 165.452 35.23 164.738 35.8603C164.045 36.4696 163.289 36.9633 162.469 37.3414C161.65 37.7196 160.767 37.9087 159.822 37.9087Z" fill="#222222"/>
<path d="M165.744 38.3184C165.723 38.3184 165.713 38.3079 165.713 38.2868C165.713 38.2028 165.755 38.1188 165.839 38.0347C165.902 37.9717 165.944 37.9087 165.965 37.8457C166.133 37.5725 166.312 37.2154 166.501 36.7742C166.69 36.312 166.868 35.8393 167.036 35.3561C167.204 34.8729 167.341 34.4842 167.446 34.1901C167.887 32.9505 168.318 31.7005 168.738 30.4399C169.158 29.1584 169.6 27.8978 170.062 26.6583C170.335 25.923 170.65 25.0931 171.007 24.1687C171.385 23.2443 171.816 22.3094 172.299 21.364C172.803 20.4186 173.371 19.5572 174.001 18.7798C174.631 17.9815 175.335 17.3407 176.112 16.8575C176.89 16.3743 177.762 16.1327 178.728 16.1327C178.959 16.1327 179.211 16.1747 179.484 16.2587C179.778 16.3428 179.989 16.4898 180.115 16.6999C180.199 16.784 180.241 16.8785 180.241 16.9836C180.241 17.0676 180.209 17.1096 180.146 17.1096C179.999 17.0466 179.863 16.931 179.736 16.763C179.61 16.5949 179.421 16.5109 179.169 16.5109C178.749 16.5109 178.287 16.6789 177.783 17.0151C177.278 17.3302 176.806 17.7084 176.364 18.1496C175.944 18.5908 175.608 18.9794 175.356 19.3156C174.642 20.282 173.959 21.406 173.308 22.6875C172.677 23.9691 172.089 25.2822 171.543 26.6268C171.018 27.9714 170.545 29.2214 170.125 30.3769C170.335 30.0828 170.618 29.7466 170.976 29.3685C171.354 28.9693 171.763 28.5806 172.205 28.2025C172.646 27.8243 173.087 27.5092 173.528 27.257C173.99 27.0049 174.4 26.8789 174.757 26.8789C175.156 26.8789 175.482 27.0049 175.734 27.257C175.986 27.5092 176.112 27.8348 176.112 28.234C176.112 28.8853 175.913 29.442 175.514 29.9042C175.114 30.3454 174.6 30.7025 173.969 30.9757C173.36 31.2488 172.719 31.4484 172.047 31.5744C171.396 31.7005 170.818 31.774 170.314 31.795C170.461 32.2572 170.682 32.814 170.976 33.4652C171.27 34.0955 171.627 34.7258 172.047 35.3561C172.488 35.9653 172.961 36.4801 173.465 36.9002C173.969 37.2994 174.495 37.499 175.041 37.499C175.692 37.499 176.186 37.2994 176.522 36.9002C176.879 36.5011 177.226 36.0704 177.562 35.6082C177.583 35.6082 177.594 35.6397 177.594 35.7027C177.594 35.7868 177.573 35.8708 177.531 35.9548C177.488 36.0389 177.446 36.1124 177.404 36.1754C177.32 36.3225 177.236 36.4801 177.152 36.6481C177.089 36.7952 177.005 36.9423 176.9 37.0893C176.627 37.4465 176.28 37.7091 175.86 37.8772C175.461 38.0452 175.041 38.1293 174.6 38.1293C173.654 38.1293 172.824 37.8772 172.11 37.373C171.417 36.8477 170.829 36.1859 170.345 35.3876C169.883 34.5892 169.505 33.7909 169.211 32.9925C169.064 33.4547 168.917 33.9274 168.77 34.4107C168.623 34.8729 168.476 35.3456 168.328 35.8288C168.307 35.9128 168.276 36.0074 168.234 36.1124C168.213 36.2174 168.192 36.3225 168.171 36.4275C168.15 36.4696 168.139 36.5116 168.139 36.5536C168.118 36.7217 168.087 36.8477 168.045 36.9318C168.024 36.9948 167.929 37.0788 167.761 37.1839C167.719 37.2049 167.53 37.3099 167.194 37.499C166.858 37.6881 166.543 37.8667 166.249 38.0347C165.933 38.2238 165.765 38.3184 165.744 38.3184ZM170.881 31.2278C171.448 31.2278 171.995 31.1227 172.52 30.9126C173.045 30.6815 173.476 30.3559 173.812 29.9357C174.148 29.4945 174.316 28.9693 174.316 28.36C174.316 28.255 174.295 28.1394 174.253 28.0134C174.232 27.8663 174.138 27.7928 173.969 27.7928C173.465 27.7928 172.961 28.0029 172.457 28.423C171.974 28.8432 171.511 29.3159 171.07 29.8412C170.629 30.3664 170.251 30.7971 169.936 31.1332C170.23 31.1963 170.545 31.2278 170.881 31.2278Z" fill="#222222"/>
</svg>
